<?xml version="1.0" encoding="UTF-8" standalone="no"?>
<?xml-stylesheet href="static/css/cargoflow_styles.css" type="text/css"?>
<!DOCTYPE svg PUBLIC "-//W3C//DTD SVG 1.1//EN"
 "http://www.w3.org/Graphics/SVG/1.1/DTD/svg11.dtd">
<!-- Generated by graphviz version 12.1.2 (20240928.0832)
 -->
<!-- Title: tropic_basic Pages: 1 -->
<svg width="2698pt" height="1992pt"
 viewBox="0.00 0.00 2697.75 1992.25" xmlns="http://www.w3.org/2000/svg" xmlns:xlink="http://www.w3.org/1999/xlink">
<g id="page0,1_graph0" class="graph" transform="scale(1 1) rotate(0) translate(4 1988.25)">
<title>tropic_basic</title>
<g id="a_page0,1_graph0"><a xlink:title="Tropic Basic">
<polygon fill="white" stroke="none" points="-4,4 -4,-1988.25 2693.75,-1988.25 2693.75,4 -4,4"/>
</a>
</g>
<g id="clust4" class="cluster">
<title>cluster_BASIC_TROPIC_0</title>
<g id="a_clust4"><a xlink:title="Tropic Basic">
<polygon fill="none" stroke="white" points="1009.5,-393.62 1009.5,-576.62 1221.5,-576.62 1221.5,-393.62 1009.5,-393.62"/>
</a>
</g>
</g>
<g id="clust5" class="cluster">
<title>cluster_BASIC_TROPIC_1</title>
<g id="a_clust5"><a xlink:title="Tropic Basic">
<polygon fill="none" stroke="white" points="384.25,-157.62 384.25,-340.62 538.5,-340.62 538.5,-157.62 384.25,-157.62"/>
</a>
</g>
</g>
<g id="clust6" class="cluster">
<title>cluster_BASIC_TROPIC_2</title>
<g id="a_clust6"><a xlink:title="Tropic Basic">
<polygon fill="none" stroke="white" points="394,-1384.62 394,-1567.62 528.75,-1567.62 528.75,-1384.62 394,-1384.62"/>
</a>
</g>
</g>
<g id="clust7" class="cluster">
<title>cluster_BASIC_TROPIC_3</title>
<g id="a_clust7"><a xlink:title="Tropic Basic">
<polygon fill="none" stroke="white" points="1673.38,-583.62 1673.38,-1078.62 1959.62,-1078.62 1959.62,-583.62 1673.38,-583.62"/>
</a>
</g>
</g>
<!-- I_arable_farm -->
<g id="arable_farm" class="node">
<title>I_arable_farm</title>
<g id="a_arable_farm"><a xlink:href="industries.html#arable_farm" xlink:title="Arable Farm" target="_top">
<polygon fill="white" stroke="none" points="8,-1634 8,-1871.25 310,-1871.25 310,-1634 8,-1634"/>
<polygon fill="none" stroke="#c1cdcd" points="8,-1704.25 8,-1871.25 310,-1871.25 310,-1704.25 8,-1704.25"/>
<image xlink:href="static/img/industries/arable_farm.png" width="300px" height="165px" preserveAspectRatio="xMinYMin meet" x="9" y="-1870.25"/>
<polygon fill="none" stroke="#c1cdcd" points="8,-1634 8,-1704.25 310,-1704.25 310,-1634 8,-1634"/>
<polygon fill="ghostwhite" stroke="none" points="9,-1635 9,-1703.25 309,-1703.25 309,-1635 9,-1635"/>
<text text-anchor="start" x="70.88" y="-1667.85" font-family="sans-serif" font-size="32.00">Arable Farm</text>
<text text-anchor="start" x="51.75" y="-1642" font-family="sans-serif" font-size="20.00">Requires Farm Supplies</text>
</a>
</g>
</g>
<!-- C_beans -->
<g id="beans" class="node">
<title>C_beans</title>
<g id="a_beans"><a xlink:href="cargos.html#beans" xlink:title="&lt;TABLE&gt;" target="_top">
<polygon fill="#a80000" stroke="#a80000" points="520.75,-1559.75 402,-1559.75 402,-1507.5 520.75,-1507.5 520.75,-1559.75"/>
<polygon fill="none" stroke="#a80000" points="413,-1514.5 413,-1552.75 509.75,-1552.75 509.75,-1514.5 413,-1514.5"/>
<text text-anchor="start" x="416" y="-1519.35" font-family="sans-serif" font-size="32.00" fill="white">Beans</text>
<polygon fill="none" stroke="#a80000" points="410,-1511.5 410,-1555.75 512.75,-1555.75 512.75,-1511.5 410,-1511.5"/>
</a>
</g>
</g>
<!-- I_arable_farm&#45;&gt;C_beans -->
<g id="edge16" class="edge">
<title>I_arable_farm&#45;&gt;C_beans</title>
<g id="a_edge16"><a xlink:title="Arable Farm &#45;&gt; Beans">
<path fill="none" stroke="#a80000" stroke-width="5" d="M317.66,-1637.67C357.61,-1608.55 396.84,-1579.95 424.03,-1560.12"/>
</a>
</g>
</g>
<!-- C_grain -->
<g id="grain" class="node">
<title>C_grain</title>
<g id="a_grain"><a xlink:href="cargos.html#grain" xlink:title="&lt;TABLE&gt;" target="_top">
<polygon fill="#882034" stroke="#882034" points="514.38,-1792.75 408.38,-1792.75 408.38,-1740.5 514.38,-1740.5 514.38,-1792.75"/>
<polygon fill="none" stroke="#882034" points="419.38,-1747.5 419.38,-1785.75 503.38,-1785.75 503.38,-1747.5 419.38,-1747.5"/>
<text text-anchor="start" x="422.38" y="-1752.35" font-family="sans-serif" font-size="32.00" fill="white">Grain</text>
<polygon fill="none" stroke="#882034" points="416.38,-1744.5 416.38,-1788.75 506.38,-1788.75 506.38,-1744.5 416.38,-1744.5"/>
</a>
</g>
</g>
<!-- I_arable_farm&#45;&gt;C_grain -->
<g id="edge17" class="edge">
<title>I_arable_farm&#45;&gt;C_grain</title>
<g id="a_edge17"><a xlink:title="Arable Farm &#45;&gt; Grain">
<path fill="none" stroke="#882034" stroke-width="5" d="M317.66,-1759.97C350.38,-1761.5 382.63,-1763 408.17,-1764.19"/>
</a>
</g>
</g>
<!-- I_coffee_estate -->
<g id="coffee_estate" class="node">
<title>I_coffee_estate</title>
<g id="a_coffee_estate"><a xlink:href="industries.html#coffee_estate" xlink:title="Coffee Estate" target="_top">
<polygon fill="white" stroke="none" points="8,-1297 8,-1534.25 310,-1534.25 310,-1297 8,-1297"/>
<polygon fill="none" stroke="#c1cdcd" points="8,-1367.25 8,-1534.25 310,-1534.25 310,-1367.25 8,-1367.25"/>
<image xlink:href="static/img/industries/coffee_estate.png" width="300px" height="165px" preserveAspectRatio="xMinYMin meet" x="9" y="-1533.25"/>
<polygon fill="none" stroke="#c1cdcd" points="8,-1297 8,-1367.25 310,-1367.25 310,-1297 8,-1297"/>
<polygon fill="ghostwhite" stroke="none" points="9,-1298 9,-1366.25 309,-1366.25 309,-1298 9,-1298"/>
<text text-anchor="start" x="62.25" y="-1330.85" font-family="sans-serif" font-size="32.00">Coffee Estate</text>
<text text-anchor="start" x="51.75" y="-1305" font-family="sans-serif" font-size="20.00">Requires Farm Supplies</text>
</a>
</g>
</g>
<!-- C_fruits -->
<g id="fruits" class="node">
<title>C_fruits</title>
<g id="a_fruits"><a xlink:href="cargos.html#fruits" xlink:title="&lt;TABLE&gt;" target="_top">
<polygon fill="#74581c" stroke="#74581c" points="507.25,-1444.75 415.5,-1444.75 415.5,-1392.5 507.25,-1392.5 507.25,-1444.75"/>
<polygon fill="none" stroke="#74581c" points="426.5,-1399.5 426.5,-1437.75 496.25,-1437.75 496.25,-1399.5 426.5,-1399.5"/>
<text text-anchor="start" x="429.5" y="-1404.35" font-family="sans-serif" font-size="32.00" fill="white">Fruit</text>
<polygon fill="none" stroke="#74581c" points="423.5,-1396.5 423.5,-1440.75 499.25,-1440.75 499.25,-1396.5 423.5,-1396.5"/>
</a>
</g>
</g>
<!-- I_coffee_estate&#45;&gt;C_fruits -->
<g id="edge20" class="edge">
<title>I_coffee_estate&#45;&gt;C_fruits</title>
<g id="a_edge20"><a xlink:title="Coffee Estate &#45;&gt; Fruit">
<path fill="none" stroke="#74581c" stroke-width="5" d="M317.66,-1417.2C353.5,-1417.56 388.77,-1417.91 415.28,-1418.17"/>
</a>
</g>
</g>
<!-- C_coffee -->
<g id="coffee" class="node">
<title>C_coffee</title>
<g id="a_coffee"><a xlink:href="cargos.html#coffee" xlink:title="&lt;TABLE&gt;" target="_top">
<polygon fill="#602c03" stroke="#602c03" points="1877.38,-1070.75 1755.62,-1070.75 1755.62,-1018.5 1877.38,-1018.5 1877.38,-1070.75"/>
<polygon fill="none" stroke="#602c03" points="1766.62,-1025.5 1766.62,-1063.75 1866.38,-1063.75 1866.38,-1025.5 1766.62,-1025.5"/>
<text text-anchor="start" x="1769.62" y="-1030.35" font-family="sans-serif" font-size="32.00" fill="white">Coffee</text>
<polygon fill="none" stroke="#602c03" points="1763.62,-1022.5 1763.62,-1066.75 1869.38,-1066.75 1869.38,-1022.5 1763.62,-1022.5"/>
</a>
</g>
</g>
<!-- I_coffee_estate&#45;&gt;C_coffee -->
<g id="edge19" class="edge">
<title>I_coffee_estate&#45;&gt;C_coffee</title>
<g id="a_edge19"><a xlink:title="Coffee Estate &#45;&gt; Coffee">
<path fill="none" stroke="#602c03" stroke-width="5" d="M318,-1368.48C442.07,-1335.61 619.81,-1297.62 778.62,-1297.62 778.62,-1297.62 778.62,-1297.62 1116.5,-1297.62 1380.42,-1297.62 1668.74,-1136.18 1774.06,-1071.22"/>
</a>
</g>
</g>
<!-- I_nitrate_mine -->
<g id="nitrate_mine" class="node">
<title>I_nitrate_mine</title>
<g id="a_nitrate_mine"><a xlink:href="industries.html#nitrate_mine" xlink:title="Nitrate Mine" target="_top">
<polygon fill="white" stroke="none" points="8,-4 8,-267.25 310,-267.25 310,-4 8,-4"/>
<polygon fill="none" stroke="#c1cdcd" points="8,-100.25 8,-267.25 310,-267.25 310,-100.25 8,-100.25"/>
<image xlink:href="static/img/industries/nitrate_mine.png" width="300px" height="165px" preserveAspectRatio="xMinYMin meet" x="9" y="-266.25"/>
<polygon fill="none" stroke="#c1cdcd" points="8,-4 8,-100.25 310,-100.25 310,-4 8,-4"/>
<polygon fill="ghostwhite" stroke="none" points="9,-5 9,-99.25 309,-99.25 309,-5 9,-5"/>
<text text-anchor="start" x="72.38" y="-63.85" font-family="sans-serif" font-size="32.00">Nitrate Mine</text>
<text text-anchor="start" x="21" y="-38" font-family="sans-serif" font-size="20.00">Requires Engineering Supplies</text>
<text text-anchor="start" x="49.5" y="-12" font-family="sans-serif" font-size="20.00">Produces Farm Supplies</text>
</a>
</g>
</g>
<!-- C_nitrates -->
<g id="nitrates" class="node">
<title>C_nitrates</title>
<g id="a_nitrates"><a xlink:href="cargos.html#nitrates" xlink:title="&lt;TABLE&gt;" target="_top">
<polygon fill="#468fa8" stroke="#468fa8" points="530.5,-217.75 392.25,-217.75 392.25,-165.5 530.5,-165.5 530.5,-217.75"/>
<polygon fill="none" stroke="#468fa8" points="403.25,-172.5 403.25,-210.75 519.5,-210.75 519.5,-172.5 403.25,-172.5"/>
<text text-anchor="start" x="406.25" y="-177.35" font-family="sans-serif" font-size="32.00" fill="white">Nitrates</text>
<polygon fill="none" stroke="#468fa8" points="400.25,-169.5 400.25,-213.75 522.5,-213.75 522.5,-169.5 400.25,-169.5"/>
</a>
</g>
</g>
<!-- I_nitrate_mine&#45;&gt;C_nitrates -->
<g id="edge27" class="edge">
<title>I_nitrate_mine&#45;&gt;C_nitrates</title>
<g id="a_edge27"><a xlink:title="Nitrate Mine &#45;&gt; Nitrates">
<path fill="none" stroke="#468fa8" stroke-width="5" d="M317.66,-165.02C343.73,-169.88 369.49,-174.68 391.8,-178.84"/>
</a>
</g>
</g>
<!-- I_ranch -->
<g id="ranch" class="node">
<title>I_ranch</title>
<g id="a_ranch"><a xlink:href="industries.html#ranch" xlink:title="Ranch" target="_top">
<polygon fill="white" stroke="none" points="8,-666 8,-903.25 310,-903.25 310,-666 8,-666"/>
<polygon fill="none" stroke="#c1cdcd" points="8,-736.25 8,-903.25 310,-903.25 310,-736.25 8,-736.25"/>
<image xlink:href="static/img/industries/ranch.png" width="300px" height="165px" preserveAspectRatio="xMinYMin meet" x="9" y="-902.25"/>
<polygon fill="none" stroke="#c1cdcd" points="8,-666 8,-736.25 310,-736.25 310,-666 8,-666"/>
<polygon fill="ghostwhite" stroke="none" points="9,-667 9,-735.25 309,-735.25 309,-667 9,-667"/>
<text text-anchor="start" x="112.5" y="-699.85" font-family="sans-serif" font-size="32.00">Ranch</text>
<text text-anchor="start" x="51.75" y="-674" font-family="sans-serif" font-size="20.00">Requires Farm Supplies</text>
</a>
</g>
</g>
<!-- C_wool -->
<g id="wool" class="node">
<title>C_wool</title>
<g id="a_wool"><a xlink:href="cargos.html#wool" xlink:title="&lt;TABLE&gt;" target="_top">
<polygon fill="#a8926d" stroke="#a8926d" points="1866.5,-758.75 1766.5,-758.75 1766.5,-706.5 1866.5,-706.5 1866.5,-758.75"/>
<polygon fill="none" stroke="#a8926d" points="1777.5,-713.5 1777.5,-751.75 1855.5,-751.75 1855.5,-713.5 1777.5,-713.5"/>
<text text-anchor="start" x="1780.5" y="-718.35" font-family="sans-serif" font-size="32.00" fill="white">Wool</text>
<polygon fill="none" stroke="#a8926d" points="1774.5,-710.5 1774.5,-754.75 1858.5,-754.75 1858.5,-710.5 1774.5,-710.5"/>
</a>
</g>
</g>
<!-- I_ranch&#45;&gt;C_wool -->
<g id="edge31" class="edge">
<title>I_ranch&#45;&gt;C_wool</title>
<g id="a_edge31"><a xlink:title="Ranch &#45;&gt; Wool">
<path fill="none" stroke="#a8926d" stroke-width="5" d="M317.9,-775.12C442.87,-768.42 621.84,-760.62 778.62,-760.62 778.62,-760.62 778.62,-760.62 1116.5,-760.62 1360.62,-760.62 1652.31,-743.36 1766.37,-735.95"/>
</a>
</g>
</g>
<!-- C_livestock -->
<g id="livestock" class="node">
<title>C_livestock</title>
<g id="a_livestock"><a xlink:href="cargos.html#livestock" xlink:title="&lt;TABLE&gt;" target="_top">
<polygon fill="#004ca8" stroke="#004ca8" points="541.75,-1076.75 381,-1076.75 381,-1024.5 541.75,-1024.5 541.75,-1076.75"/>
<polygon fill="none" stroke="#004ca8" points="392,-1031.5 392,-1069.75 530.75,-1069.75 530.75,-1031.5 392,-1031.5"/>
<text text-anchor="start" x="395" y="-1036.35" font-family="sans-serif" font-size="32.00" fill="white">Livestock</text>
<polygon fill="none" stroke="#004ca8" points="389,-1028.5 389,-1072.75 533.75,-1072.75 533.75,-1028.5 389,-1028.5"/>
</a>
</g>
</g>
<!-- I_ranch&#45;&gt;C_livestock -->
<g id="edge30" class="edge">
<title>I_ranch&#45;&gt;C_livestock</title>
<g id="a_edge30"><a xlink:title="Ranch &#45;&gt; Livestock">
<path fill="none" stroke="#004ca8" stroke-width="5" d="M298.32,-907.11C347.9,-951.02 399.21,-996.46 430.47,-1024.14"/>
</a>
</g>
</g>
<!-- I_flour_mill -->
<g id="flour_mill" class="node">
<title>I_flour_mill</title>
<g id="a_flour_mill"><a xlink:href="industries.html#flour_mill" xlink:title="Flour Mill" target="_top">
<polygon fill="white" stroke="none" points="628.62,-1679 628.62,-1890.25 930.62,-1890.25 930.62,-1679 628.62,-1679"/>
<polygon fill="none" stroke="#c1cdcd" points="628.62,-1723.25 628.62,-1890.25 930.62,-1890.25 930.62,-1723.25 628.62,-1723.25"/>
<image xlink:href="static/img/industries/flour_mill.png" width="300px" height="165px" preserveAspectRatio="xMinYMin meet" x="629.625" y="-1889.25"/>
<polygon fill="none" stroke="#c1cdcd" points="628.62,-1679 628.62,-1723.25 930.62,-1723.25 930.62,-1679 628.62,-1679"/>
<polygon fill="ghostwhite" stroke="none" points="629.62,-1680 629.62,-1722.25 929.62,-1722.25 929.62,-1680 629.62,-1680"/>
<text text-anchor="start" x="715.12" y="-1686.85" font-family="sans-serif" font-size="32.00">Flour Mill</text>
</a>
</g>
</g>
<!-- C_food -->
<g id="food" class="node">
<title>C_food</title>
<g id="a_food"><a xlink:href="cargos.html#food" xlink:title="&lt;TABLE&gt;" target="_top">
<polygon fill="#a88000" stroke="#a88000" points="2332.62,-1503 2062.38,-1503 2062.38,-1370.25 2332.62,-1370.25 2332.62,-1503"/>
<polygon fill="none" stroke="#a88000" points="2073.38,-1457.75 2073.38,-1496 2321.62,-1496 2321.62,-1457.75 2073.38,-1457.75"/>
<text text-anchor="start" x="2160.75" y="-1462.6" font-family="sans-serif" font-size="32.00" fill="white">Food</text>
<polygon fill="white" stroke="none" points="2073.38,-1417.5 2073.38,-1455.75 2321.62,-1455.75 2321.62,-1417.5 2073.38,-1417.5"/>
<polygon fill="none" stroke="#a88000" points="2073.38,-1417.5 2073.38,-1455.75 2321.62,-1455.75 2321.62,-1417.5 2073.38,-1417.5"/>
<text text-anchor="start" x="2076.38" y="-1422.35" font-family="sans-serif" font-size="32.00">To General Store</text>
<polygon fill="white" stroke="none" points="2073.38,-1377.25 2073.38,-1415.5 2321.62,-1415.5 2321.62,-1377.25 2073.38,-1377.25"/>
<polygon fill="none" stroke="#a88000" points="2073.38,-1377.25 2073.38,-1415.5 2321.62,-1415.5 2321.62,-1377.25 2073.38,-1377.25"/>
<text text-anchor="start" x="2138.62" y="-1382.1" font-family="sans-serif" font-size="32.00">To Hotel</text>
<polygon fill="none" stroke="#a88000" points="2070.38,-1374.25 2070.38,-1499 2324.62,-1499 2324.62,-1374.25 2070.38,-1374.25"/>
</a>
</g>
</g>
<!-- I_flour_mill&#45;&gt;C_food -->
<g id="edge25" class="edge">
<title>I_flour_mill&#45;&gt;C_food</title>
<g id="a_edge25"><a xlink:title="Flour Mill &#45;&gt; Food">
<path fill="none" stroke="#a88000" stroke-width="5" d="M938.35,-1750.09C1167.61,-1699.26 1605.89,-1599.67 1975.5,-1501.62 2003.62,-1494.16 2033.61,-1485.7 2062.13,-1477.39"/>
</a>
</g>
</g>
<!-- I_food_processor -->
<g id="food_processor" class="node">
<title>I_food_processor</title>
<g id="a_food_processor"><a xlink:href="industries.html#food_processor" xlink:title="Food Processing Plant" target="_top">
<polygon fill="white" stroke="none" points="612.75,-1397 612.75,-1608.25 946.5,-1608.25 946.5,-1397 612.75,-1397"/>
<polygon fill="none" stroke="#c1cdcd" points="612.75,-1441.25 612.75,-1608.25 946.5,-1608.25 946.5,-1441.25 612.75,-1441.25"/>
<image xlink:href="static/img/industries/food_processor.png" width="331.75px" height="165px" preserveAspectRatio="xMinYMin meet" x="613.75" y="-1607.25"/>
<polygon fill="none" stroke="#c1cdcd" points="612.75,-1397 612.75,-1441.25 946.5,-1441.25 946.5,-1397 612.75,-1397"/>
<polygon fill="ghostwhite" stroke="none" points="613.75,-1398 613.75,-1440.25 945.5,-1440.25 945.5,-1398 613.75,-1398"/>
<text text-anchor="start" x="618.75" y="-1404.85" font-family="sans-serif" font-size="32.00">Food Processing Plant</text>
</a>
</g>
</g>
<!-- I_food_processor&#45;&gt;C_food -->
<g id="edge26" class="edge">
<title>I_food_processor&#45;&gt;C_food</title>
<g id="a_edge26"><a xlink:title="Food Processing Plant &#45;&gt; Food">
<path fill="none" stroke="#a88000" stroke-width="5" d="M954.24,-1494.53C1240.2,-1481.2 1804.24,-1454.91 2062.12,-1442.89"/>
</a>
</g>
</g>
<!-- I_stockyard -->
<g id="stockyard" class="node">
<title>I_stockyard</title>
<g id="a_stockyard"><a xlink:href="industries.html#stockyard" xlink:title="Stockyard" target="_top">
<polygon fill="white" stroke="none" points="628.62,-987 628.62,-1198.25 930.62,-1198.25 930.62,-987 628.62,-987"/>
<polygon fill="none" stroke="#c1cdcd" points="628.62,-1031.25 628.62,-1198.25 930.62,-1198.25 930.62,-1031.25 628.62,-1031.25"/>
<image xlink:href="static/img/industries/stockyard.png" width="300px" height="165px" preserveAspectRatio="xMinYMin meet" x="629.625" y="-1197.25"/>
<polygon fill="none" stroke="#c1cdcd" points="628.62,-987 628.62,-1031.25 930.62,-1031.25 930.62,-987 628.62,-987"/>
<polygon fill="ghostwhite" stroke="none" points="629.62,-988 629.62,-1030.25 929.62,-1030.25 929.62,-988 629.62,-988"/>
<text text-anchor="start" x="708.75" y="-994.85" font-family="sans-serif" font-size="32.00">Stockyard</text>
</a>
</g>
</g>
<!-- I_stockyard&#45;&gt;C_food -->
<g id="edge32" class="edge">
<title>I_stockyard&#45;&gt;C_food</title>
<g id="a_edge32"><a xlink:title="Stockyard &#45;&gt; Food">
<path fill="none" stroke="#a88000" stroke-width="5" d="M938.58,-1131C1219.04,-1199.14 1799.13,-1340.08 2061.91,-1403.92"/>
</a>
</g>
</g>
<!-- C_fish -->
<g id="fish" class="node">
<title>C_fish</title>
<g id="a_fish"><a xlink:href="cargos.html#fish" xlink:title="&lt;TABLE&gt;" target="_top">
<polygon fill="#5d45a8" stroke="#5d45a8" points="2241.5,-1900.75 2153.5,-1900.75 2153.5,-1848.5 2241.5,-1848.5 2241.5,-1900.75"/>
<polygon fill="none" stroke="#5d45a8" points="2164.5,-1855.5 2164.5,-1893.75 2230.5,-1893.75 2230.5,-1855.5 2164.5,-1855.5"/>
<text text-anchor="start" x="2167.5" y="-1860.35" font-family="sans-serif" font-size="32.00" fill="white">Fish</text>
<polygon fill="none" stroke="#5d45a8" points="2161.5,-1852.5 2161.5,-1896.75 2233.5,-1896.75 2233.5,-1852.5 2161.5,-1852.5"/>
</a>
</g>
</g>
<!-- I_fishing_harbour -->
<g id="fishing_harbour" class="node">
<title>I_fishing_harbour</title>
<g id="a_fishing_harbour"><a xlink:href="industries.html#fishing_harbour" xlink:title="Fishing Harbour" target="_top">
<polygon fill="white" stroke="none" points="2046.5,-1570 2046.5,-1781.25 2348.5,-1781.25 2348.5,-1570 2046.5,-1570"/>
<polygon fill="none" stroke="#c1cdcd" points="2046.5,-1614.25 2046.5,-1781.25 2348.5,-1781.25 2348.5,-1614.25 2046.5,-1614.25"/>
<image xlink:href="static/img/industries/fishing_harbour.png" width="300px" height="165px" preserveAspectRatio="xMinYMin meet" x="2047.5" y="-1780.25"/>
<polygon fill="none" stroke="#c1cdcd" points="2046.5,-1570 2046.5,-1614.25 2348.5,-1614.25 2348.5,-1570 2046.5,-1570"/>
<polygon fill="ghostwhite" stroke="none" points="2047.5,-1571 2047.5,-1613.25 2347.5,-1613.25 2347.5,-1571 2047.5,-1571"/>
<text text-anchor="start" x="2083.5" y="-1577.85" font-family="sans-serif" font-size="32.00">Fishing Harbour</text>
</a>
</g>
</g>
<!-- C_fish&#45;&gt;I_fishing_harbour -->
<g id="edge8" class="edge">
<title>C_fish&#45;&gt;I_fishing_harbour</title>
<g id="a_edge8"><a xlink:title="Fish &#45;&gt; Fishing Harbour">
<path fill="none" stroke="#5d45a8" stroke-width="5" d="M2197.5,-1848.09C2197.5,-1835.81 2197.5,-1823.53 2197.5,-1811.26"/>
<polygon fill="#5d45a8" stroke="#5d45a8" stroke-width="5" points="2206.25,-1811.47 2197.5,-1791.47 2188.75,-1811.47 2206.25,-1811.47"/>
</a>
</g>
</g>
<!-- I_port -->
<g id="port" class="node">
<title>I_port</title>
<g id="a_port"><a xlink:href="industries.html#port" xlink:title="Port" target="_top">
<polygon fill="white" stroke="none" points="2046.5,-679 2046.5,-942.25 2348.5,-942.25 2348.5,-679 2046.5,-679"/>
<polygon fill="none" stroke="#c1cdcd" points="2046.5,-775.25 2046.5,-942.25 2348.5,-942.25 2348.5,-775.25 2046.5,-775.25"/>
<image xlink:href="static/img/industries/port.png" width="300px" height="165px" preserveAspectRatio="xMinYMin meet" x="2047.5" y="-941.25"/>
<polygon fill="none" stroke="#c1cdcd" points="2046.5,-679 2046.5,-775.25 2348.5,-775.25 2348.5,-679 2046.5,-679"/>
<polygon fill="ghostwhite" stroke="none" points="2047.5,-680 2047.5,-774.25 2347.5,-774.25 2347.5,-680 2047.5,-680"/>
<text text-anchor="start" x="2168.25" y="-738.85" font-family="sans-serif" font-size="32.00">Port</text>
<text text-anchor="start" x="2057.25" y="-713" font-family="sans-serif" font-size="20.00">Produces Engineering Supplies</text>
<text text-anchor="start" x="2088" y="-687" font-family="sans-serif" font-size="20.00">Produces Farm Supplies</text>
</a>
</g>
</g>
<!-- C_food&#45;&gt;I_port -->
<g id="edge9" class="edge">
<title>C_food&#45;&gt;I_port</title>
<g id="a_edge9"><a xlink:title="Food &#45;&gt; Port">
<path fill="none" stroke="#a88000" stroke-width="5" d="M2197.5,-1370.03C2197.5,-1237.39 2197.5,-1104.76 2197.5,-972.12"/>
<polygon fill="#a88000" stroke="#a88000" stroke-width="5" points="2206.25,-972.27 2197.5,-952.27 2188.75,-972.27 2206.25,-972.27"/>
</a>
</g>
</g>
<!-- I_fishing_harbour&#45;&gt;C_food -->
<g id="edge24" class="edge">
<title>I_fishing_harbour&#45;&gt;C_food</title>
<g id="a_edge24"><a xlink:title="Fishing Harbour &#45;&gt; Food">
<path fill="none" stroke="#a88000" stroke-width="5" d="M2197.5,-1566.29C2197.5,-1545.32 2197.5,-1524.35 2197.5,-1503.38"/>
</a>
</g>
</g>
<!-- C_goods -->
<g id="goods" class="node">
<title>C_goods</title>
<g id="a_goods"><a xlink:href="cargos.html#goods" xlink:title="&lt;TABLE&gt;" target="_top">
<polygon fill="#a84800" stroke="#a84800" points="2689.75,-856.88 2419.5,-856.88 2419.5,-764.38 2689.75,-764.38 2689.75,-856.88"/>
<polygon fill="none" stroke="#a84800" points="2430.5,-811.62 2430.5,-849.88 2678.75,-849.88 2678.75,-811.62 2430.5,-811.62"/>
<text text-anchor="start" x="2507.38" y="-816.48" font-family="sans-serif" font-size="32.00" fill="white">Goods</text>
<polygon fill="white" stroke="none" points="2430.5,-771.38 2430.5,-809.62 2678.75,-809.62 2678.75,-771.38 2430.5,-771.38"/>
<polygon fill="none" stroke="#a84800" points="2430.5,-771.38 2430.5,-809.62 2678.75,-809.62 2678.75,-771.38 2430.5,-771.38"/>
<text text-anchor="start" x="2433.5" y="-776.23" font-family="sans-serif" font-size="32.00">To General Store</text>
<polygon fill="none" stroke="#a84800" points="2427.5,-768.38 2427.5,-852.88 2681.75,-852.88 2681.75,-768.38 2427.5,-768.38"/>
</a>
</g>
</g>
<!-- I_port&#45;&gt;C_goods -->
<g id="edge29" class="edge">
<title>I_port&#45;&gt;C_goods</title>
<g id="a_edge29"><a xlink:title="Port &#45;&gt; Goods">
<path fill="none" stroke="#a84800" stroke-width="5" d="M2356.33,-810.62C2377.26,-810.62 2398.57,-810.62 2419.06,-810.62"/>
</a>
</g>
</g>
<!-- C_chemicals -->
<g id="chemicals" class="node">
<title>C_chemicals</title>
<g id="a_chemicals"><a xlink:href="cargos.html#chemicals" xlink:title="&lt;TABLE&gt;" target="_top">
<polygon fill="#a8a8a8" stroke="#a8a8a8" points="1204.12,-453.75 1026.88,-453.75 1026.88,-401.5 1204.12,-401.5 1204.12,-453.75"/>
<polygon fill="none" stroke="#a8a8a8" points="1037.88,-408.5 1037.88,-446.75 1193.12,-446.75 1193.12,-408.5 1037.88,-408.5"/>
<text text-anchor="start" x="1040.88" y="-413.35" font-family="sans-serif" font-size="32.00" fill="white">Chemicals</text>
<polygon fill="none" stroke="#a8a8a8" points="1034.88,-405.5 1034.88,-449.75 1196.12,-449.75 1196.12,-405.5 1034.88,-405.5"/>
</a>
</g>
</g>
<!-- C_chemicals&#45;&gt;I_port -->
<g id="edge4" class="edge">
<title>C_chemicals&#45;&gt;I_port</title>
<g id="a_edge4"><a xlink:title="Chemicals &#45;&gt; Port">
<path fill="none" stroke="#a8a8a8" stroke-width="5" d="M1204.23,-413.9C1300.82,-401.4 1460.24,-388.52 1594.5,-414.62 1773.78,-449.49 1825.53,-464.38 1975.5,-568.62 2010.78,-593.15 2044.47,-624.25 2074.44,-655.93"/>
<polygon fill="#a8a8a8" stroke="#a8a8a8" stroke-width="5" points="2067.92,-661.76 2087.9,-670.55 2080.79,-649.91 2067.92,-661.76"/>
</a>
</g>
</g>
<!-- I_copper_smelter -->
<g id="copper_smelter" class="node">
<title>I_copper_smelter</title>
<g id="a_copper_smelter"><a xlink:href="industries.html#copper_smelter" xlink:title="Copper Smelter" target="_top">
<polygon fill="white" stroke="none" points="1284.5,-450 1284.5,-661.25 1586.5,-661.25 1586.5,-450 1284.5,-450"/>
<polygon fill="none" stroke="#c1cdcd" points="1284.5,-494.25 1284.5,-661.25 1586.5,-661.25 1586.5,-494.25 1284.5,-494.25"/>
<image xlink:href="static/img/industries/copper_smelter.png" width="300px" height="165px" preserveAspectRatio="xMinYMin meet" x="1285.5" y="-660.25"/>
<polygon fill="none" stroke="#c1cdcd" points="1284.5,-450 1284.5,-494.25 1586.5,-494.25 1586.5,-450 1284.5,-450"/>
<polygon fill="ghostwhite" stroke="none" points="1285.5,-451 1285.5,-493.25 1585.5,-493.25 1585.5,-451 1285.5,-451"/>
<text text-anchor="start" x="1323" y="-457.85" font-family="sans-serif" font-size="32.00">Copper Smelter</text>
</a>
</g>
</g>
<!-- C_chemicals&#45;&gt;I_copper_smelter -->
<g id="edge3" class="edge">
<title>C_chemicals&#45;&gt;I_copper_smelter</title>
<g id="a_edge3"><a xlink:title="Chemicals &#45;&gt; Copper Smelter">
<path fill="none" stroke="#a8a8a8" stroke-width="5" d="M1182.39,-454.15C1203.28,-462.55 1227.47,-472.29 1252.44,-482.34"/>
<polygon fill="#a8a8a8" stroke="#a8a8a8" stroke-width="5" points="1248.93,-490.36 1270.75,-489.71 1255.47,-474.13 1248.93,-490.36"/>
</a>
</g>
</g>
<!-- C_copper_ore -->
<g id="copper_ore" class="node">
<title>C_copper_ore</title>
<g id="a_copper_ore"><a xlink:href="cargos.html#copper_ore" xlink:title="&lt;TABLE&gt;" target="_top">
<polygon fill="#a84b60" stroke="#a84b60" points="1213.5,-568.75 1017.5,-568.75 1017.5,-516.5 1213.5,-516.5 1213.5,-568.75"/>
<polygon fill="none" stroke="#a84b60" points="1028.5,-523.5 1028.5,-561.75 1202.5,-561.75 1202.5,-523.5 1028.5,-523.5"/>
<text text-anchor="start" x="1031.5" y="-528.35" font-family="sans-serif" font-size="32.00" fill="white">Copper Ore</text>
<polygon fill="none" stroke="#a84b60" points="1025.5,-520.5 1025.5,-564.75 1205.5,-564.75 1205.5,-520.5 1025.5,-520.5"/>
</a>
</g>
</g>
<!-- C_copper_ore&#45;&gt;I_copper_smelter -->
<g id="edge7" class="edge">
<title>C_copper_ore&#45;&gt;I_copper_smelter</title>
<g id="a_edge7"><a xlink:title="Copper Ore &#45;&gt; Copper Smelter">
<path fill="none" stroke="#a84b60" stroke-width="5" d="M1213.64,-546.6C1225.51,-547.08 1237.93,-547.59 1250.57,-548.11"/>
<polygon fill="#a84b60" stroke="#a84b60" stroke-width="5" points="1250.13,-556.85 1270.47,-548.92 1250.85,-539.36 1250.13,-556.85"/>
</a>
</g>
</g>
<!-- I_chemical_plant -->
<g id="chemical_plant" class="node">
<title>I_chemical_plant</title>
<g id="a_chemical_plant"><a xlink:href="industries.html#chemical_plant" xlink:title="Chemical Plant" target="_top">
<polygon fill="white" stroke="none" points="628.62,-142 628.62,-353.25 930.62,-353.25 930.62,-142 628.62,-142"/>
<polygon fill="none" stroke="#c1cdcd" points="628.62,-186.25 628.62,-353.25 930.62,-353.25 930.62,-186.25 628.62,-186.25"/>
<image xlink:href="static/img/industries/chemical_plant.png" width="300px" height="165px" preserveAspectRatio="xMinYMin meet" x="629.625" y="-352.25"/>
<polygon fill="none" stroke="#c1cdcd" points="628.62,-142 628.62,-186.25 930.62,-186.25 930.62,-142 628.62,-142"/>
<polygon fill="ghostwhite" stroke="none" points="629.62,-143 629.62,-185.25 929.62,-185.25 929.62,-143 629.62,-143"/>
<text text-anchor="start" x="672" y="-149.85" font-family="sans-serif" font-size="32.00">Chemical Plant</text>
</a>
</g>
</g>
<!-- C_nitrates&#45;&gt;I_chemical_plant -->
<g id="edge13" class="edge">
<title>C_nitrates&#45;&gt;I_chemical_plant</title>
<g id="a_edge13"><a xlink:title="Nitrates &#45;&gt; Chemical Plant">
<path fill="none" stroke="#468fa8" stroke-width="5" d="M531,-203.78C550.44,-207.22 572.57,-211.14 595.42,-215.18"/>
<polygon fill="#468fa8" stroke="#468fa8" stroke-width="5" points="593.54,-223.74 614.76,-218.61 596.59,-206.51 593.54,-223.74"/>
</a>
</g>
</g>
<!-- C_oil -->
<g id="oil" class="node">
<title>C_oil</title>
<g id="a_oil"><a xlink:href="cargos.html#oil" xlink:title="&lt;TABLE&gt;" target="_top">
<polygon fill="#a85050" stroke="#a85050" points="494.5,-332.75 428.25,-332.75 428.25,-280.5 494.5,-280.5 494.5,-332.75"/>
<polygon fill="none" stroke="#a85050" points="439.25,-287.5 439.25,-325.75 483.5,-325.75 483.5,-287.5 439.25,-287.5"/>
<text text-anchor="start" x="442.25" y="-292.35" font-family="sans-serif" font-size="32.00" fill="white">Oil</text>
<polygon fill="none" stroke="#a85050" points="436.25,-284.5 436.25,-328.75 486.5,-328.75 486.5,-284.5 436.25,-284.5"/>
</a>
</g>
</g>
<!-- C_oil&#45;&gt;I_chemical_plant -->
<g id="edge14" class="edge">
<title>C_oil&#45;&gt;I_chemical_plant</title>
<g id="a_edge14"><a xlink:title="Oil &#45;&gt; Chemical Plant">
<path fill="none" stroke="#a85050" stroke-width="5" d="M494.73,-300.59C519.66,-295.94 556.31,-289.1 595.06,-281.87"/>
<polygon fill="#a85050" stroke="#a85050" stroke-width="5" points="596.53,-290.5 614.59,-278.23 593.32,-273.29 596.53,-290.5"/>
</a>
</g>
</g>
<!-- C_beans&#45;&gt;I_food_processor -->
<g id="edge2" class="edge">
<title>C_beans&#45;&gt;I_food_processor</title>
<g id="a_edge2"><a xlink:title="Beans &#45;&gt; Food Processing Plant">
<path fill="none" stroke="#a80000" stroke-width="5" d="M521.12,-1527.87C538.33,-1526.18 558.17,-1524.23 579.06,-1522.19"/>
<polygon fill="#a80000" stroke="#a80000" stroke-width="5" points="579.68,-1530.92 598.74,-1520.26 577.98,-1513.5 579.68,-1530.92"/>
</a>
</g>
</g>
<!-- C_fruits&#45;&gt;I_food_processor -->
<g id="edge10" class="edge">
<title>C_fruits&#45;&gt;I_food_processor</title>
<g id="a_edge10"><a xlink:title="Fruit &#45;&gt; Food Processing Plant">
<path fill="none" stroke="#74581c" stroke-width="5" d="M507.69,-1430.66C527.82,-1436.01 553.05,-1442.71 579.97,-1449.86"/>
<polygon fill="#74581c" stroke="#74581c" stroke-width="5" points="577.45,-1458.24 599.03,-1454.92 581.94,-1441.33 577.45,-1458.24"/>
</a>
</g>
</g>
<!-- C_alcohol -->
<g id="alcohol" class="node">
<title>C_alcohol</title>
<g id="a_alcohol"><a xlink:href="cargos.html#alcohol" xlink:title="&lt;TABLE&gt;" target="_top">
<polygon fill="#5582a8" stroke="#5582a8" points="1951.62,-955 1681.38,-955 1681.38,-822.25 1951.62,-822.25 1951.62,-955"/>
<polygon fill="none" stroke="#5582a8" points="1692.38,-909.75 1692.38,-948 1940.62,-948 1940.62,-909.75 1692.38,-909.75"/>
<text text-anchor="start" x="1764.38" y="-914.6" font-family="sans-serif" font-size="32.00" fill="white">Alcohol</text>
<polygon fill="white" stroke="none" points="1692.38,-869.5 1692.38,-907.75 1940.62,-907.75 1940.62,-869.5 1692.38,-869.5"/>
<polygon fill="none" stroke="#5582a8" points="1692.38,-869.5 1692.38,-907.75 1940.62,-907.75 1940.62,-869.5 1692.38,-869.5"/>
<text text-anchor="start" x="1695.38" y="-874.35" font-family="sans-serif" font-size="32.00">To General Store</text>
<polygon fill="white" stroke="none" points="1692.38,-829.25 1692.38,-867.5 1940.62,-867.5 1940.62,-829.25 1692.38,-829.25"/>
<polygon fill="none" stroke="#5582a8" points="1692.38,-829.25 1692.38,-867.5 1940.62,-867.5 1940.62,-829.25 1692.38,-829.25"/>
<text text-anchor="start" x="1757.62" y="-834.1" font-family="sans-serif" font-size="32.00">To Hotel</text>
<polygon fill="none" stroke="#5582a8" points="1689.38,-826.25 1689.38,-951 1943.62,-951 1943.62,-826.25 1689.38,-826.25"/>
</a>
</g>
</g>
<!-- C_alcohol&#45;&gt;I_port -->
<g id="edge1" class="edge">
<title>C_alcohol&#45;&gt;I_port</title>
<g id="a_edge1"><a xlink:title="Alcohol &#45;&gt; Port">
<path fill="none" stroke="#5582a8" stroke-width="5" d="M1951.92,-860.96C1971.79,-856.87 1992.54,-852.6 2013.19,-848.35"/>
<polygon fill="#5582a8" stroke="#5582a8" stroke-width="5" points="2014.8,-856.95 2032.63,-844.35 2011.28,-839.81 2014.8,-856.95"/>
</a>
</g>
</g>
<!-- C_coffee&#45;&gt;I_port -->
<g id="edge5" class="edge">
<title>C_coffee&#45;&gt;I_port</title>
<g id="a_edge5"><a xlink:title="Coffee &#45;&gt; Port">
<path fill="none" stroke="#602c03" stroke-width="5" d="M1877.64,-1027.58C1908,-1017.74 1944.81,-1003.88 1975.5,-986.62 1989.46,-978.78 2003.45,-970.07 2017.24,-960.85"/>
<polygon fill="#602c03" stroke="#602c03" stroke-width="5" points="2022.12,-968.11 2033.59,-949.53 2012.16,-953.72 2022.12,-968.11"/>
</a>
</g>
</g>
<!-- C_copper -->
<g id="copper" class="node">
<title>C_copper</title>
<g id="a_copper"><a xlink:href="cargos.html#copper" xlink:title="&lt;TABLE&gt;" target="_top">
<polygon fill="#a86052" stroke="#a86052" points="1883.38,-643.75 1749.62,-643.75 1749.62,-591.5 1883.38,-591.5 1883.38,-643.75"/>
<polygon fill="none" stroke="#a86052" points="1760.62,-598.5 1760.62,-636.75 1872.38,-636.75 1872.38,-598.5 1760.62,-598.5"/>
<text text-anchor="start" x="1763.62" y="-603.35" font-family="sans-serif" font-size="32.00" fill="white">Copper</text>
<polygon fill="none" stroke="#a86052" points="1757.62,-595.5 1757.62,-639.75 1875.38,-639.75 1875.38,-595.5 1757.62,-595.5"/>
</a>
</g>
</g>
<!-- C_copper&#45;&gt;I_port -->
<g id="edge6" class="edge">
<title>C_copper&#45;&gt;I_port</title>
<g id="a_edge6"><a xlink:title="Copper &#45;&gt; Port">
<path fill="none" stroke="#a86052" stroke-width="5" d="M1883.69,-638.12C1912.46,-647.88 1946.21,-660.51 1975.5,-674.62 1988.89,-681.08 2002.5,-688.12 2016.05,-695.51"/>
<polygon fill="#a86052" stroke="#a86052" stroke-width="5" points="2011.58,-703.03 2033.3,-705.15 2020.12,-687.76 2011.58,-703.03"/>
</a>
</g>
</g>
<!-- C_wool&#45;&gt;I_port -->
<g id="edge15" class="edge">
<title>C_wool&#45;&gt;I_port</title>
<g id="a_edge15"><a xlink:title="Wool &#45;&gt; Port">
<path fill="none" stroke="#a8926d" stroke-width="5" d="M1866.66,-742.74C1904.44,-750.52 1959.15,-761.78 2013.19,-772.9"/>
<polygon fill="#a8926d" stroke="#a8926d" stroke-width="5" points="2011.28,-781.44 2032.63,-776.9 2014.81,-764.3 2011.28,-781.44"/>
</a>
</g>
</g>
<!-- I_copper_smelter&#45;&gt;C_copper -->
<g id="edge22" class="edge">
<title>I_copper_smelter&#45;&gt;C_copper</title>
<g id="a_edge22"><a xlink:title="Copper Smelter &#45;&gt; Copper">
<path fill="none" stroke="#a86052" stroke-width="5" d="M1594.49,-581.47C1648.72,-590.34 1706.49,-599.79 1749.36,-606.81"/>
</a>
</g>
</g>
<!-- C_grain&#45;&gt;I_flour_mill -->
<g id="edge11" class="edge">
<title>C_grain&#45;&gt;I_flour_mill</title>
<g id="a_edge11"><a xlink:title="Grain &#45;&gt; Flour Mill">
<path fill="none" stroke="#882034" stroke-width="5" d="M514.6,-1769.6C537.33,-1770.89 565.46,-1772.49 594.8,-1774.16"/>
<polygon fill="#882034" stroke="#882034" stroke-width="5" points="594.1,-1782.89 614.57,-1775.29 595.1,-1765.41 594.1,-1782.89"/>
</a>
</g>
</g>
<!-- C_livestock&#45;&gt;I_stockyard -->
<g id="edge12" class="edge">
<title>C_livestock&#45;&gt;I_stockyard</title>
<g id="a_edge12"><a xlink:title="Livestock &#45;&gt; Stockyard">
<path fill="none" stroke="#004ca8" stroke-width="5" d="M542.18,-1061.22C558.63,-1063.41 576.59,-1065.79 595.02,-1068.24"/>
<polygon fill="#004ca8" stroke="#004ca8" stroke-width="5" points="593.66,-1076.89 614.64,-1070.85 595.97,-1059.54 593.66,-1076.89"/>
</a>
</g>
</g>
<!-- I_chemical_plant&#45;&gt;C_chemicals -->
<g id="edge18" class="edge">
<title>I_chemical_plant&#45;&gt;C_chemicals</title>
<g id="a_edge18"><a xlink:title="Chemical Plant &#45;&gt; Chemicals">
<path fill="none" stroke="#a8a8a8" stroke-width="5" d="M938.27,-332.62C984.37,-357.47 1031.41,-382.83 1065.28,-401.09"/>
</a>
</g>
</g>
<!-- I_copper_mine -->
<g id="copper_mine" class="node">
<title>I_copper_mine</title>
<g id="a_copper_mine"><a xlink:href="industries.html#copper_mine" xlink:title="Copper Mine" target="_top">
<polygon fill="white" stroke="none" points="628.62,-424 628.62,-661.25 930.62,-661.25 930.62,-424 628.62,-424"/>
<polygon fill="none" stroke="#c1cdcd" points="628.62,-494.25 628.62,-661.25 930.62,-661.25 930.62,-494.25 628.62,-494.25"/>
<image xlink:href="static/img/industries/copper_mine.png" width="300px" height="165px" preserveAspectRatio="xMinYMin meet" x="629.625" y="-660.25"/>
<polygon fill="none" stroke="#c1cdcd" points="628.62,-424 628.62,-494.25 930.62,-494.25 930.62,-424 628.62,-424"/>
<polygon fill="ghostwhite" stroke="none" points="629.62,-425 629.62,-493.25 929.62,-493.25 929.62,-425 629.62,-425"/>
<text text-anchor="start" x="687.38" y="-457.85" font-family="sans-serif" font-size="32.00">Copper Mine</text>
<text text-anchor="start" x="641.62" y="-432" font-family="sans-serif" font-size="20.00">Requires Engineering Supplies</text>
</a>
</g>
</g>
<!-- I_copper_mine&#45;&gt;C_copper_ore -->
<g id="edge21" class="edge">
<title>I_copper_mine&#45;&gt;C_copper_ore</title>
<g id="a_edge21"><a xlink:title="Copper Mine &#45;&gt; Copper Ore">
<path fill="none" stroke="#a84b60" stroke-width="5" d="M938.27,-542.62C965.29,-542.62 992.63,-542.62 1017.45,-542.62"/>
</a>
</g>
</g>
<!-- I_fishing_grounds -->
<g id="fishing_grounds" class="node">
<title>I_fishing_grounds</title>
<g id="a_fishing_grounds"><a xlink:href="industries.html#fishing_grounds" xlink:title="Fishing Grounds" target="_top">
<polygon fill="white" stroke="none" points="1665.5,-1769 1665.5,-1980.25 1967.5,-1980.25 1967.5,-1769 1665.5,-1769"/>
<polygon fill="none" stroke="#c1cdcd" points="1665.5,-1813.25 1665.5,-1980.25 1967.5,-1980.25 1967.5,-1813.25 1665.5,-1813.25"/>
<image xlink:href="static/img/industries/fishing_grounds.png" width="300px" height="165px" preserveAspectRatio="xMinYMin meet" x="1666.5" y="-1979.25"/>
<polygon fill="none" stroke="#c1cdcd" points="1665.5,-1769 1665.5,-1813.25 1967.5,-1813.25 1967.5,-1769 1665.5,-1769"/>
<polygon fill="ghostwhite" stroke="none" points="1666.5,-1770 1666.5,-1812.25 1966.5,-1812.25 1966.5,-1770 1666.5,-1770"/>
<text text-anchor="start" x="1699.12" y="-1776.85" font-family="sans-serif" font-size="32.00">Fishing Grounds</text>
</a>
</g>
</g>
<!-- I_fishing_grounds&#45;&gt;C_fish -->
<g id="edge23" class="edge">
<title>I_fishing_grounds&#45;&gt;C_fish</title>
<g id="a_edge23"><a xlink:title="Fishing Grounds &#45;&gt; Fish">
<path fill="none" stroke="#5d45a8" stroke-width="5" d="M1975.49,-1874.62C2040.08,-1874.62 2109.69,-1874.62 2153.17,-1874.62"/>
</a>
</g>
</g>
<!-- I_oil_wells -->
<g id="oil_wells" class="node">
<title>I_oil_wells</title>
<g id="a_oil_wells"><a xlink:href="industries.html#oil_wells" xlink:title="Oil Wells" target="_top">
<polygon fill="white" stroke="none" points="8,-338 8,-575.25 310,-575.25 310,-338 8,-338"/>
<polygon fill="none" stroke="#c1cdcd" points="8,-408.25 8,-575.25 310,-575.25 310,-408.25 8,-408.25"/>
<image xlink:href="static/img/industries/oil_wells.png" width="300px" height="165px" preserveAspectRatio="xMinYMin meet" x="9" y="-574.25"/>
<polygon fill="none" stroke="#c1cdcd" points="8,-338 8,-408.25 310,-408.25 310,-338 8,-338"/>
<polygon fill="ghostwhite" stroke="none" points="9,-339 9,-407.25 309,-407.25 309,-339 9,-339"/>
<text text-anchor="start" x="97.12" y="-371.85" font-family="sans-serif" font-size="32.00">Oil Wells</text>
<text text-anchor="start" x="21" y="-346" font-family="sans-serif" font-size="20.00">Requires Engineering Supplies</text>
</a>
</g>
</g>
<!-- I_oil_wells&#45;&gt;C_oil -->
<g id="edge28" class="edge">
<title>I_oil_wells&#45;&gt;C_oil</title>
<g id="a_edge28"><a xlink:title="Oil Wells &#45;&gt; Oil">
<path fill="none" stroke="#a85050" stroke-width="5" d="M317.66,-377.89C359.59,-356.95 400.74,-336.41 427.99,-322.8"/>
</a>
</g>
</g>
<!-- I_vineyard -->
<g id="vineyard" class="node">
<title>I_vineyard</title>
<g id="a_vineyard"><a xlink:href="industries.html#vineyard" xlink:title="Vineyard" target="_top">
<polygon fill="white" stroke="none" points="8,-984 8,-1221.25 310,-1221.25 310,-984 8,-984"/>
<polygon fill="none" stroke="#c1cdcd" points="8,-1054.25 8,-1221.25 310,-1221.25 310,-1054.25 8,-1054.25"/>
<image xlink:href="static/img/industries/vineyard.png" width="300px" height="165px" preserveAspectRatio="xMinYMin meet" x="9" y="-1220.25"/>
<polygon fill="none" stroke="#c1cdcd" points="8,-984 8,-1054.25 310,-1054.25 310,-984 8,-984"/>
<polygon fill="ghostwhite" stroke="none" points="9,-985 9,-1053.25 309,-1053.25 309,-985 9,-985"/>
<text text-anchor="start" x="96" y="-1017.85" font-family="sans-serif" font-size="32.00">Vineyard</text>
<text text-anchor="start" x="51.75" y="-992" font-family="sans-serif" font-size="20.00">Requires Farm Supplies</text>
</a>
</g>
</g>
<!-- I_vineyard&#45;&gt;C_fruits -->
<g id="edge34" class="edge">
<title>I_vineyard&#45;&gt;C_fruits</title>
<g id="a_edge34"><a xlink:title="Vineyard &#45;&gt; Fruit">
<path fill="none" stroke="#74581c" stroke-width="5" d="M282.62,-1224.91C294.65,-1237.24 306.61,-1249.63 318,-1261.62 360.81,-1306.72 409.15,-1360.7 437.06,-1392.18"/>
</a>
</g>
</g>
<!-- I_vineyard&#45;&gt;C_alcohol -->
<g id="edge33" class="edge">
<title>I_vineyard&#45;&gt;C_alcohol</title>
<g id="a_edge33"><a xlink:title="Vineyard &#45;&gt; Alcohol">
<path fill="none" stroke="#5582a8" stroke-width="5" d="M317.92,-1015.02C439.93,-955.53 615.04,-887.62 778.62,-887.62 778.62,-887.62 778.62,-887.62 1116.5,-887.62 1312.94,-887.62 1540.44,-888.02 1681.17,-888.32"/>
</a>
</g>
</g>
</g>
</svg>
