<?xml version="1.0" encoding="UTF-8" standalone="no"?>
<?xml-stylesheet href="static/css/cargoflow_styles.css" type="text/css"?>
<!DOCTYPE svg PUBLIC "-//W3C//DTD SVG 1.1//EN"
 "http://www.w3.org/Graphics/SVG/1.1/DTD/svg11.dtd">
<!-- Generated by graphviz version 12.1.2 (20240928.0832)
 -->
<!-- Title: arctic_basic Pages: 1 -->
<svg width="2936pt" height="2934pt"
 viewBox="0.00 0.00 2935.75 2933.62" xmlns="http://www.w3.org/2000/svg" xmlns:xlink="http://www.w3.org/1999/xlink">
<g id="graph0" class="graph" transform="scale(1 1) rotate(0) translate(4 2929.62)">
<title>arctic_basic</title>
<g id="a_graph0"><a xlink:title="Arctic Basic">
<polygon fill="white" stroke="none" points="-4,4 -4,-2929.62 2931.75,-2929.62 2931.75,4 -4,4"/>
</a>
</g>
<g id="clust1" class="cluster">
<title>cluster_town_industries</title>
<g id="a_clust1"><a xlink:title="Arctic Basic">
<polygon fill="#e0eeee" stroke="#e0eeee" stroke-width="5" points="1209,-8 1209,-989 1543,-989 1543,-8 1209,-8"/>
</a>
</g>
</g>
<!-- I_general_store -->
<g id="general_store" class="node">
<title>I_general_store</title>
<g id="a_general_store"><a xlink:href="industries.html#general_store" xlink:title="General Store" target="_top">
<polygon fill="white" stroke="none" points="1225,-20.38 1225,-257.62 1527,-257.62 1527,-20.38 1225,-20.38"/>
<polygon fill="none" stroke="#c1cdcd" points="1225,-90.62 1225,-257.62 1527,-257.62 1527,-90.62 1225,-90.62"/>
<image xlink:href="static/img/industries/general_store.png" width="300px" height="165px" preserveAspectRatio="xMinYMin meet" x="1226" y="-256.625"/>
<polygon fill="none" stroke="#c1cdcd" points="1225,-20.38 1225,-90.62 1527,-90.62 1527,-20.38 1225,-20.38"/>
<polygon fill="ghostwhite" stroke="none" points="1226,-21.38 1226,-89.62 1526,-89.62 1526,-21.38 1226,-21.38"/>
<text text-anchor="start" x="1276.25" y="-54.23" font-family="sans-serif" font-size="32.00">General Store</text>
<text text-anchor="start" x="1310.38" y="-28.38" font-family="sans-serif" font-size="20.00">Requires Food</text>
</a>
</g>
</g>
<!-- I_hotel -->
<g id="hotel" class="node">
<title>I_hotel</title>
<g id="a_hotel"><a xlink:href="industries.html#hotel" xlink:title="Hotel" target="_top">
<polygon fill="white" stroke="none" points="1225,-328.38 1225,-591.62 1527,-591.62 1527,-328.38 1225,-328.38"/>
<polygon fill="none" stroke="#c1cdcd" points="1225,-424.62 1225,-591.62 1527,-591.62 1527,-424.62 1225,-424.62"/>
<image xlink:href="static/img/industries/hotel.png" width="300px" height="165px" preserveAspectRatio="xMinYMin meet" x="1226" y="-590.625"/>
<polygon fill="none" stroke="#c1cdcd" points="1225,-328.38 1225,-424.62 1527,-424.62 1527,-328.38 1225,-328.38"/>
<polygon fill="ghostwhite" stroke="none" points="1226,-329.38 1226,-423.62 1526,-423.62 1526,-329.38 1226,-329.38"/>
<text text-anchor="start" x="1338.5" y="-388.23" font-family="sans-serif" font-size="32.00">Hotel</text>
<text text-anchor="start" x="1310.38" y="-362.38" font-family="sans-serif" font-size="20.00">Requires Food</text>
<text text-anchor="start" x="1280.38" y="-336.38" font-family="sans-serif" font-size="20.00">Requires Passengers</text>
</a>
</g>
</g>
<!-- I_plaza -->
<g id="plaza" class="node">
<title>I_plaza</title>
<g id="a_plaza"><a xlink:href="industries.html#plaza" xlink:title="Plaza" target="_top">
<polygon fill="white" stroke="none" points="1225,-662.38 1225,-873.62 1527,-873.62 1527,-662.38 1225,-662.38"/>
<polygon fill="none" stroke="#c1cdcd" points="1225,-706.62 1225,-873.62 1527,-873.62 1527,-706.62 1225,-706.62"/>
<image xlink:href="static/img/industries/plaza.png" width="300px" height="165px" preserveAspectRatio="xMinYMin meet" x="1226" y="-872.625"/>
<polygon fill="none" stroke="#c1cdcd" points="1225,-662.38 1225,-706.62 1527,-706.62 1527,-662.38 1225,-662.38"/>
<polygon fill="ghostwhite" stroke="none" points="1226,-663.38 1226,-705.62 1526,-705.62 1526,-663.38 1226,-663.38"/>
<text text-anchor="start" x="1336.25" y="-670.23" font-family="sans-serif" font-size="32.00">Plaza</text>
</a>
</g>
</g>
<!-- T_town_industries -->
<g id="node4" class="node">
<title>T_town_industries</title>
<text text-anchor="middle" x="1376" y="-946.73" font-family="sans-serif" font-size="32.00">Town Industries</text>
</g>
<!-- T_towns_food -->
<g id="node5" class="node">
<title>T_towns_food</title>
<polygon fill="none" stroke="#a84800" stroke-width="5" stroke-dasharray="5,2" points="1445.13,-1123.88 1306.87,-1123.88 1306.87,-1044.12 1445.13,-1044.12 1445.13,-1123.88"/>
<text text-anchor="middle" x="1376" y="-1069.72" font-family="sans-serif" font-size="32.00" fill="#a84800">Towns</text>
</g>
<!-- C_ammonia -->
<g id="ammonia" class="node">
<title>C_ammonia</title>
<g id="a_ammonia"><a xlink:href="cargos.html#ammonia" xlink:title="Ammonia" target="_top">
<polygon fill="#a80000" stroke="#a80000" points="1145,-1656.12 993.25,-1656.12 993.25,-1615.88 1145,-1615.88 1145,-1656.12"/>
<text text-anchor="middle" x="1069.12" y="-1621.72" font-family="sans-serif" font-size="32.00" fill="white">Ammonia</text>
</a>
</g>
</g>
<!-- I_chemical_plant -->
<g id="chemical_plant" class="node">
<title>I_chemical_plant</title>
<g id="a_chemical_plant"><a xlink:href="industries.html#chemical_plant" xlink:title="Chemical Plant" target="_top">
<polygon fill="white" stroke="none" points="1225,-1902.38 1225,-2113.62 1527,-2113.62 1527,-1902.38 1225,-1902.38"/>
<polygon fill="none" stroke="#c1cdcd" points="1225,-1946.62 1225,-2113.62 1527,-2113.62 1527,-1946.62 1225,-1946.62"/>
<image xlink:href="static/img/industries/chemical_plant.png" width="300px" height="165px" preserveAspectRatio="xMinYMin meet" x="1226" y="-2112.62"/>
<polygon fill="none" stroke="#c1cdcd" points="1225,-1902.38 1225,-1946.62 1527,-1946.62 1527,-1902.38 1225,-1902.38"/>
<polygon fill="ghostwhite" stroke="none" points="1226,-1903.38 1226,-1945.62 1526,-1945.62 1526,-1903.38 1226,-1903.38"/>
<text text-anchor="start" x="1268.38" y="-1910.22" font-family="sans-serif" font-size="32.00">Chemical Plant</text>
</a>
</g>
</g>
<!-- C_ammonia&#45;&gt;I_chemical_plant -->
<g id="edge1" class="edge">
<title>C_ammonia&#45;&gt;I_chemical_plant</title>
<g id="a_edge1"><a xlink:title="Ammonia &#45;&gt; Chemical Plant">
<path fill="none" stroke="#a80000" stroke-width="5" d="M1086.95,-1656.53C1121.22,-1698.35 1201.57,-1796.38 1268.72,-1878.31"/>
<polygon fill="#a80000" stroke="#a80000" stroke-width="5" points="1261.85,-1883.74 1281.29,-1893.66 1275.38,-1872.64 1261.85,-1883.74"/>
</a>
</g>
</g>
<!-- C_explosives -->
<g id="explosives" class="node">
<title>C_explosives</title>
<g id="a_explosives"><a xlink:href="cargos.html#explosives" xlink:title="Explosives" target="_top">
<polygon fill="#a86052" stroke="#a86052" points="1765.5,-2156.12 1598,-2156.12 1598,-2115.88 1765.5,-2115.88 1765.5,-2156.12"/>
<text text-anchor="middle" x="1681.75" y="-2121.72" font-family="sans-serif" font-size="32.00" fill="white">Explosives</text>
</a>
</g>
</g>
<!-- I_chemical_plant&#45;&gt;C_explosives -->
<g id="edge19" class="edge">
<title>I_chemical_plant&#45;&gt;C_explosives</title>
<g id="a_edge19"><a xlink:title="Chemical Plant &#45;&gt; Explosives">
<path fill="none" stroke="#a86052" stroke-width="5" d="M1534.66,-2074.44C1570.05,-2089.35 1605.02,-2104.09 1631.87,-2115.4"/>
</a>
</g>
</g>
<!-- C_fertiliser -->
<g id="fertiliser" class="node">
<title>C_fertiliser</title>
<g id="a_fertiliser"><a xlink:href="cargos.html#fertiliser" xlink:title="Fertiliser" target="_top">
<polygon fill="#347084" stroke="#347084" points="1750.5,-1708.12 1613,-1708.12 1613,-1667.88 1750.5,-1667.88 1750.5,-1708.12"/>
<text text-anchor="middle" x="1681.75" y="-1673.72" font-family="sans-serif" font-size="32.00" fill="white">Fertiliser</text>
</a>
</g>
</g>
<!-- I_chemical_plant&#45;&gt;C_fertiliser -->
<g id="edge20" class="edge">
<title>I_chemical_plant&#45;&gt;C_fertiliser</title>
<g id="a_edge20"><a xlink:title="Chemical Plant &#45;&gt; Fertiliser">
<path fill="none" stroke="#347084" stroke-width="5" d="M1480.68,-1898.77C1546.34,-1829.61 1625.39,-1746.32 1661.3,-1708.49"/>
</a>
</g>
</g>
<!-- C_kaolin -->
<g id="kaolin" class="node">
<title>C_kaolin</title>
<g id="a_kaolin"><a xlink:href="cargos.html#kaolin" xlink:title="China Clay" target="_top">
<polygon fill="#5d45a8" stroke="#5d45a8" points="2382.25,-1707.12 2209.5,-1707.12 2209.5,-1666.88 2382.25,-1666.88 2382.25,-1707.12"/>
<text text-anchor="middle" x="2295.88" y="-1672.72" font-family="sans-serif" font-size="32.00" fill="white">China Clay</text>
</a>
</g>
</g>
<!-- I_paper_mill -->
<g id="paper_mill" class="node">
<title>I_paper_mill</title>
<g id="a_paper_mill"><a xlink:href="industries.html#paper_mill" xlink:title="Paper Mill" target="_top">
<polygon fill="white" stroke="none" points="2453.25,-1697.38 2453.25,-1908.62 2755.25,-1908.62 2755.25,-1697.38 2453.25,-1697.38"/>
<polygon fill="none" stroke="#c1cdcd" points="2453.25,-1741.62 2453.25,-1908.62 2755.25,-1908.62 2755.25,-1741.62 2453.25,-1741.62"/>
<image xlink:href="static/img/industries/paper_mill.png" width="300px" height="165px" preserveAspectRatio="xMinYMin meet" x="2454.25" y="-1907.62"/>
<polygon fill="none" stroke="#c1cdcd" points="2453.25,-1697.38 2453.25,-1741.62 2755.25,-1741.62 2755.25,-1697.38 2453.25,-1697.38"/>
<polygon fill="ghostwhite" stroke="none" points="2454.25,-1698.38 2454.25,-1740.62 2754.25,-1740.62 2754.25,-1698.38 2454.25,-1698.38"/>
<text text-anchor="start" x="2533.38" y="-1705.22" font-family="sans-serif" font-size="32.00">Paper Mill</text>
</a>
</g>
</g>
<!-- C_kaolin&#45;&gt;I_paper_mill -->
<g id="edge2" class="edge">
<title>C_kaolin&#45;&gt;I_paper_mill</title>
<g id="a_edge2"><a xlink:title="China Clay &#45;&gt; Paper Mill">
<path fill="none" stroke="#5d45a8" stroke-width="5" d="M2351.3,-1707.6C2371.49,-1715.25 2395.68,-1724.41 2420.97,-1733.99"/>
<polygon fill="#5d45a8" stroke="#5d45a8" stroke-width="5" points="2417.83,-1742.15 2439.63,-1741.05 2424.02,-1725.78 2417.83,-1742.15"/>
</a>
</g>
</g>
<!-- C_paper -->
<g id="paper" class="node">
<title>C_paper</title>
<g id="a_paper"><a xlink:href="cargos.html#paper" xlink:title="Paper" target="_top">
<polygon fill="#882034" stroke="#882034" points="2927.75,-1592.12 2826.25,-1592.12 2826.25,-1551.88 2927.75,-1551.88 2927.75,-1592.12"/>
<text text-anchor="middle" x="2877" y="-1557.72" font-family="sans-serif" font-size="32.00" fill="white">Paper</text>
</a>
</g>
</g>
<!-- I_paper_mill&#45;&gt;C_paper -->
<g id="edge26" class="edge">
<title>I_paper_mill&#45;&gt;C_paper</title>
<g id="a_edge26"><a xlink:title="Paper Mill &#45;&gt; Paper">
<path fill="none" stroke="#882034" stroke-width="5" d="M2733.49,-1693.59C2778.59,-1655.11 2824.76,-1615.72 2851.88,-1592.58"/>
</a>
</g>
</g>
<!-- I_wharf -->
<g id="wharf" class="node">
<title>I_wharf</title>
<g id="a_wharf"><a xlink:href="industries.html#wharf" xlink:title="Wharf" target="_top">
<polygon fill="white" stroke="none" points="1836.5,-2107.38 1836.5,-2370.62 2138.5,-2370.62 2138.5,-2107.38 1836.5,-2107.38"/>
<polygon fill="none" stroke="#c1cdcd" points="1836.5,-2203.62 1836.5,-2370.62 2138.5,-2370.62 2138.5,-2203.62 1836.5,-2203.62"/>
<image xlink:href="static/img/industries/wharf.png" width="300px" height="165px" preserveAspectRatio="xMinYMin meet" x="1837.5" y="-2369.62"/>
<polygon fill="none" stroke="#c1cdcd" points="1836.5,-2107.38 1836.5,-2203.62 2138.5,-2203.62 2138.5,-2107.38 1836.5,-2107.38"/>
<polygon fill="ghostwhite" stroke="none" points="1837.5,-2108.38 1837.5,-2202.62 2137.5,-2202.62 2137.5,-2108.38 1837.5,-2108.38"/>
<text text-anchor="start" x="1944.75" y="-2167.22" font-family="sans-serif" font-size="32.00">Wharf</text>
<text text-anchor="start" x="1847.25" y="-2141.38" font-family="sans-serif" font-size="20.00">Produces Engineering Supplies</text>
<text text-anchor="start" x="1878" y="-2115.38" font-family="sans-serif" font-size="20.00">Produces Farm Supplies</text>
</a>
</g>
</g>
<!-- C_explosives&#45;&gt;I_wharf -->
<g id="edge3" class="edge">
<title>C_explosives&#45;&gt;I_wharf</title>
<g id="a_edge3"><a xlink:title="Explosives &#45;&gt; Wharf">
<path fill="none" stroke="#a86052" stroke-width="5" d="M1743.49,-2156.6C1761.54,-2162.72 1782.32,-2169.76 1803.96,-2177.1"/>
<polygon fill="#a86052" stroke="#a86052" stroke-width="5" points="1801.01,-2185.34 1822.76,-2183.48 1806.63,-2168.77 1801.01,-2185.34"/>
</a>
</g>
</g>
<!-- C_potash -->
<g id="potash" class="node">
<title>C_potash</title>
<g id="a_potash"><a xlink:href="cargos.html#potash" xlink:title="Potash" target="_top">
<polygon fill="#468fa8" stroke="#468fa8" points="2353.75,-2028.12 2238,-2028.12 2238,-1987.88 2353.75,-1987.88 2353.75,-2028.12"/>
<text text-anchor="middle" x="2295.88" y="-1993.72" font-family="sans-serif" font-size="32.00" fill="white">Potash</text>
</a>
</g>
</g>
<!-- I_wharf&#45;&gt;C_potash -->
<g id="edge35" class="edge">
<title>I_wharf&#45;&gt;C_potash</title>
<g id="a_edge35"><a xlink:title="Wharf &#45;&gt; Potash">
<path fill="none" stroke="#468fa8" stroke-width="5" d="M2146.17,-2120.12C2193.09,-2084.74 2239.45,-2049.79 2267.62,-2028.55"/>
</a>
</g>
</g>
<!-- I_port -->
<g id="port" class="node">
<title>I_port</title>
<g id="a_port"><a xlink:href="industries.html#port" xlink:title="Port" target="_top">
<polygon fill="white" stroke="none" points="1836.5,-1440.38 1836.5,-1703.62 2138.5,-1703.62 2138.5,-1440.38 1836.5,-1440.38"/>
<polygon fill="none" stroke="#c1cdcd" points="1836.5,-1536.62 1836.5,-1703.62 2138.5,-1703.62 2138.5,-1536.62 1836.5,-1536.62"/>
<image xlink:href="static/img/industries/port.png" width="300px" height="165px" preserveAspectRatio="xMinYMin meet" x="1837.5" y="-1702.62"/>
<polygon fill="none" stroke="#c1cdcd" points="1836.5,-1440.38 1836.5,-1536.62 2138.5,-1536.62 2138.5,-1440.38 1836.5,-1440.38"/>
<polygon fill="ghostwhite" stroke="none" points="1837.5,-1441.38 1837.5,-1535.62 2137.5,-1535.62 2137.5,-1441.38 1837.5,-1441.38"/>
<text text-anchor="start" x="1958.25" y="-1500.22" font-family="sans-serif" font-size="32.00">Port</text>
<text text-anchor="start" x="1847.25" y="-1474.38" font-family="sans-serif" font-size="20.00">Produces Engineering Supplies</text>
<text text-anchor="start" x="1878" y="-1448.38" font-family="sans-serif" font-size="20.00">Produces Farm Supplies</text>
</a>
</g>
</g>
<!-- C_fertiliser&#45;&gt;I_port -->
<g id="edge4" class="edge">
<title>C_fertiliser&#45;&gt;I_port</title>
<g id="a_edge4"><a xlink:title="Fertiliser &#45;&gt; Port">
<path fill="none" stroke="#347084" stroke-width="5" d="M1736.7,-1667.4C1756.37,-1659.89 1779.85,-1650.92 1804.43,-1641.53"/>
<polygon fill="#347084" stroke="#347084" stroke-width="5" points="1807.37,-1649.77 1822.94,-1634.46 1801.13,-1633.43 1807.37,-1649.77"/>
</a>
</g>
</g>
<!-- I_port&#45;&gt;C_ammonia -->
<g id="edge29" class="edge">
<title>I_port&#45;&gt;C_ammonia</title>
<g id="a_edge29"><a xlink:title="Port &#45;&gt; Ammonia">
<path fill="none" stroke="#a80000" stroke-width="5" d="M1828.61,-1583.03C1629.11,-1596.96 1293.87,-1620.37 1145.12,-1630.76"/>
</a>
</g>
</g>
<!-- I_port&#45;&gt;C_kaolin -->
<g id="edge30" class="edge">
<title>I_port&#45;&gt;C_kaolin</title>
<g id="a_edge30"><a xlink:title="Port &#45;&gt; China Clay">
<path fill="none" stroke="#5d45a8" stroke-width="5" d="M2146.17,-1631.18C2180.04,-1643.9 2213.62,-1656.5 2240.27,-1666.51"/>
</a>
</g>
</g>
<!-- C_fish -->
<g id="fish" class="node">
<title>C_fish</title>
<g id="a_fish"><a xlink:href="cargos.html#fish" xlink:title="Fish" target="_top">
<polygon fill="#a89a28" stroke="#a89a28" points="498.62,-1010.12 422.62,-1010.12 422.62,-969.88 498.62,-969.88 498.62,-1010.12"/>
<text text-anchor="middle" x="460.62" y="-975.73" font-family="sans-serif" font-size="32.00" fill="white">Fish</text>
</a>
</g>
</g>
<!-- I_fishing_harbour -->
<g id="fishing_harbour" class="node">
<title>I_fishing_harbour</title>
<g id="a_fishing_harbour"><a xlink:href="industries.html#fishing_harbour" xlink:title="Fishing Harbour" target="_top">
<polygon fill="white" stroke="none" points="611.25,-884.38 611.25,-1095.62 913.25,-1095.62 913.25,-884.38 611.25,-884.38"/>
<polygon fill="none" stroke="#c1cdcd" points="611.25,-928.62 611.25,-1095.62 913.25,-1095.62 913.25,-928.62 611.25,-928.62"/>
<image xlink:href="static/img/industries/fishing_harbour.png" width="300px" height="165px" preserveAspectRatio="xMinYMin meet" x="612.25" y="-1094.62"/>
<polygon fill="none" stroke="#c1cdcd" points="611.25,-884.38 611.25,-928.62 913.25,-928.62 913.25,-884.38 611.25,-884.38"/>
<polygon fill="ghostwhite" stroke="none" points="612.25,-885.38 612.25,-927.62 912.25,-927.62 912.25,-885.38 612.25,-885.38"/>
<text text-anchor="start" x="648.25" y="-892.23" font-family="sans-serif" font-size="32.00">Fishing Harbour</text>
</a>
</g>
</g>
<!-- C_fish&#45;&gt;I_fishing_harbour -->
<g id="edge5" class="edge">
<title>C_fish&#45;&gt;I_fishing_harbour</title>
<g id="a_edge5"><a xlink:title="Fish &#45;&gt; Fishing Harbour">
<path fill="none" stroke="#a89a28" stroke-width="5" d="M498.97,-990C519.94,-990 547.85,-990 577.63,-990"/>
<polygon fill="#a89a28" stroke="#a89a28" stroke-width="5" points="577.34,-998.75 597.34,-990 577.34,-981.25 577.34,-998.75"/>
</a>
</g>
</g>
<!-- C_food -->
<g id="food" class="node">
<title>C_food</title>
<g id="a_food"><a xlink:href="cargos.html#food" xlink:title="Food" target="_top">
<polygon fill="#a84800" stroke="#a84800" points="1113.88,-1104.12 1024.38,-1104.12 1024.38,-1063.88 1113.88,-1063.88 1113.88,-1104.12"/>
<text text-anchor="middle" x="1069.12" y="-1069.72" font-family="sans-serif" font-size="32.00" fill="white">Food</text>
</a>
</g>
</g>
<!-- I_fishing_harbour&#45;&gt;C_food -->
<g id="edge23" class="edge">
<title>I_fishing_harbour&#45;&gt;C_food</title>
<g id="a_edge23"><a xlink:title="Fishing Harbour &#45;&gt; Food">
<path fill="none" stroke="#a84800" stroke-width="5" d="M921.05,-1038.65C958.97,-1050.34 996.45,-1061.9 1024.08,-1070.42"/>
</a>
</g>
</g>
<!-- C_food&#45;&gt;T_towns_food -->
<g id="edge6" class="edge">
<title>C_food&#45;&gt;T_towns_food</title>
<path fill="none" stroke="#a84800" stroke-width="5" stroke-dasharray="5,2" d="M1114.13,-1084C1156.93,-1084 1223.37,-1084 1278.48,-1084"/>
<polygon fill="#a84800" stroke="#a84800" stroke-width="5" points="1278.24,-1092.75 1298.24,-1084 1278.24,-1075.25 1278.24,-1092.75"/>
</g>
<!-- C_logs -->
<g id="logs" class="node">
<title>C_logs</title>
<g id="a_logs"><a xlink:href="cargos.html#logs" xlink:title="Logs" target="_top">
<polygon fill="#a88000" stroke="#a88000" points="1112,-2823.12 1026.25,-2823.12 1026.25,-2782.88 1112,-2782.88 1112,-2823.12"/>
<text text-anchor="middle" x="1069.12" y="-2788.72" font-family="sans-serif" font-size="32.00" fill="white">Logs</text>
</a>
</g>
</g>
<!-- C_logs&#45;&gt;I_paper_mill -->
<g id="edge7" class="edge">
<title>C_logs&#45;&gt;I_paper_mill</title>
<g id="a_edge7"><a xlink:title="Logs &#45;&gt; Paper Mill">
<path fill="none" stroke="#a88000" stroke-width="5" d="M1112.32,-2803C1211.49,-2803 1467.14,-2803 1680.75,-2803 1680.75,-2803 1680.75,-2803 1988.5,-2803 2389.81,-2803 2537.48,-2211.3 2584.26,-1938.2"/>
<polygon fill="#a88000" stroke="#a88000" stroke-width="5" points="2592.88,-1939.71 2587.52,-1918.55 2575.61,-1936.85 2592.88,-1939.71"/>
</a>
</g>
</g>
<!-- I_sawmill -->
<g id="sawmill" class="node">
<title>I_sawmill</title>
<g id="a_sawmill"><a xlink:href="industries.html#sawmill" xlink:title="Sawmill" target="_top">
<polygon fill="white" stroke="none" points="1225,-2184.38 1225,-2395.62 1527,-2395.62 1527,-2184.38 1225,-2184.38"/>
<polygon fill="none" stroke="#c1cdcd" points="1225,-2228.62 1225,-2395.62 1527,-2395.62 1527,-2228.62 1225,-2228.62"/>
<image xlink:href="static/img/industries/sawmill.png" width="300px" height="165px" preserveAspectRatio="xMinYMin meet" x="1226" y="-2394.62"/>
<polygon fill="none" stroke="#c1cdcd" points="1225,-2184.38 1225,-2228.62 1527,-2228.62 1527,-2184.38 1225,-2184.38"/>
<polygon fill="ghostwhite" stroke="none" points="1226,-2185.38 1226,-2227.62 1526,-2227.62 1526,-2185.38 1226,-2185.38"/>
<text text-anchor="start" x="1321.25" y="-2192.22" font-family="sans-serif" font-size="32.00">Sawmill</text>
</a>
</g>
</g>
<!-- C_logs&#45;&gt;I_sawmill -->
<g id="edge8" class="edge">
<title>C_logs&#45;&gt;I_sawmill</title>
<g id="a_edge8"><a xlink:title="Logs &#45;&gt; Sawmill">
<path fill="none" stroke="#a88000" stroke-width="5" d="M1073.91,-2782.76C1085.66,-2723.91 1125.83,-2549.49 1209,-2431 1211.73,-2427.11 1214.6,-2423.26 1217.57,-2419.45"/>
<polygon fill="#a88000" stroke="#a88000" stroke-width="5" points="1224.13,-2425.25 1230.42,-2404.35 1210.8,-2413.92 1224.13,-2425.25"/>
</a>
</g>
</g>
<!-- C_timber -->
<g id="timber" class="node">
<title>C_timber</title>
<g id="a_timber"><a xlink:href="cargos.html#timber" xlink:title="Timber" target="_top">
<polygon fill="#74581c" stroke="#74581c" points="1739.25,-2259.12 1624.25,-2259.12 1624.25,-2218.88 1739.25,-2218.88 1739.25,-2259.12"/>
<text text-anchor="middle" x="1681.75" y="-2224.72" font-family="sans-serif" font-size="32.00" fill="white">Timber</text>
</a>
</g>
</g>
<!-- I_sawmill&#45;&gt;C_timber -->
<g id="edge34" class="edge">
<title>I_sawmill&#45;&gt;C_timber</title>
<g id="a_edge34"><a xlink:title="Sawmill &#45;&gt; Timber">
<path fill="none" stroke="#74581c" stroke-width="5" d="M1534.66,-2263.53C1566.58,-2258.17 1598.17,-2252.87 1623.76,-2248.57"/>
</a>
</g>
</g>
<!-- C_paper&#45;&gt;I_port -->
<g id="edge9" class="edge">
<title>C_paper&#45;&gt;I_port</title>
<g id="a_edge9"><a xlink:title="Paper &#45;&gt; Port">
<path fill="none" stroke="#882034" stroke-width="5" d="M2825.93,-1572C2702.67,-1572 2379.53,-1572 2172.6,-1572"/>
<polygon fill="#882034" stroke="#882034" stroke-width="5" points="2172.64,-1563.25 2152.64,-1572 2172.64,-1580.75 2172.64,-1563.25"/>
</a>
</g>
</g>
<!-- C_peat -->
<g id="peat" class="node">
<title>C_peat</title>
<g id="a_peat"><a xlink:href="cargos.html#peat" xlink:title="Peat" target="_top">
<polygon fill="#004ca8" stroke="#004ca8" points="1722.75,-2362.12 1640.75,-2362.12 1640.75,-2321.88 1722.75,-2321.88 1722.75,-2362.12"/>
<text text-anchor="middle" x="1681.75" y="-2327.72" font-family="sans-serif" font-size="32.00" fill="white">Peat</text>
</a>
</g>
</g>
<!-- C_peat&#45;&gt;I_wharf -->
<g id="edge11" class="edge">
<title>C_peat&#45;&gt;I_wharf</title>
<g id="a_edge11"><a xlink:title="Peat &#45;&gt; Wharf">
<path fill="none" stroke="#004ca8" stroke-width="5" d="M1723.09,-2328.32C1744.92,-2320.92 1773.62,-2311.19 1804.02,-2300.88"/>
<polygon fill="#004ca8" stroke="#004ca8" stroke-width="5" points="1806.63,-2309.23 1822.77,-2294.52 1801.02,-2292.66 1806.63,-2309.23"/>
</a>
</g>
</g>
<!-- I_power_plant -->
<g id="power_plant" class="node">
<title>I_power_plant</title>
<g id="a_power_plant"><a xlink:href="industries.html#power_plant" xlink:title="Power Plant" target="_top">
<polygon fill="white" stroke="none" points="1836.5,-2441.38 1836.5,-2652.62 2138.5,-2652.62 2138.5,-2441.38 1836.5,-2441.38"/>
<polygon fill="none" stroke="#c1cdcd" points="1836.5,-2485.62 1836.5,-2652.62 2138.5,-2652.62 2138.5,-2485.62 1836.5,-2485.62"/>
<image xlink:href="static/img/industries/power_plant.png" width="300px" height="165px" preserveAspectRatio="xMinYMin meet" x="1837.5" y="-2651.62"/>
<polygon fill="none" stroke="#c1cdcd" points="1836.5,-2441.38 1836.5,-2485.62 2138.5,-2485.62 2138.5,-2441.38 1836.5,-2441.38"/>
<polygon fill="ghostwhite" stroke="none" points="1837.5,-2442.38 1837.5,-2484.62 2137.5,-2484.62 2137.5,-2442.38 1837.5,-2442.38"/>
<text text-anchor="start" x="1901.25" y="-2449.22" font-family="sans-serif" font-size="32.00">Power Plant</text>
</a>
</g>
</g>
<!-- C_peat&#45;&gt;I_power_plant -->
<g id="edge10" class="edge">
<title>C_peat&#45;&gt;I_power_plant</title>
<g id="a_edge10"><a xlink:title="Peat &#45;&gt; Power Plant">
<path fill="none" stroke="#004ca8" stroke-width="5" d="M1713.27,-2362.59C1736.53,-2378.3 1770.67,-2401.34 1806.99,-2425.85"/>
<polygon fill="#004ca8" stroke="#004ca8" stroke-width="5" points="1801.92,-2432.98 1823.39,-2436.92 1811.71,-2418.48 1801.92,-2432.98"/>
</a>
</g>
</g>
<!-- C_phosphate -->
<g id="phosphate" class="node">
<title>C_phosphate</title>
<g id="a_phosphate"><a xlink:href="cargos.html#phosphate" xlink:title="Phosphate" target="_top">
<polygon fill="#505050" stroke="#505050" points="1154,-2028.12 984.25,-2028.12 984.25,-1987.88 1154,-1987.88 1154,-2028.12"/>
<text text-anchor="middle" x="1069.12" y="-1993.72" font-family="sans-serif" font-size="32.00" fill="white">Phosphate</text>
</a>
</g>
</g>
<!-- C_phosphate&#45;&gt;I_chemical_plant -->
<g id="edge12" class="edge">
<title>C_phosphate&#45;&gt;I_chemical_plant</title>
<g id="a_edge12"><a xlink:title="Phosphate &#45;&gt; Chemical Plant">
<path fill="none" stroke="#505050" stroke-width="5" d="M1154.24,-2008C1166.06,-2008 1178.58,-2008 1191.4,-2008"/>
<polygon fill="#505050" stroke="#505050" stroke-width="5" points="1190.93,-2016.75 1210.93,-2008 1190.93,-1999.25 1190.93,-2016.75"/>
</a>
</g>
</g>
<!-- C_potash&#45;&gt;I_chemical_plant -->
<g id="edge13" class="edge">
<title>C_potash&#45;&gt;I_chemical_plant</title>
<g id="a_edge13"><a xlink:title="Potash &#45;&gt; Chemical Plant">
<path fill="none" stroke="#468fa8" stroke-width="5" d="M2237.64,-2008C2104.94,-2008 1771.54,-2008 1560.81,-2008"/>
<polygon fill="#468fa8" stroke="#468fa8" stroke-width="5" points="1561.03,-1999.25 1541.03,-2008 1561.03,-2016.75 1561.03,-1999.25"/>
</a>
</g>
</g>
<!-- C_pyrite_ore -->
<g id="pyrite_ore" class="node">
<title>C_pyrite_ore</title>
<g id="a_pyrite_ore"><a xlink:href="cargos.html#pyrite_ore" xlink:title="Pyrite Ore" target="_top">
<polygon fill="#a85050" stroke="#a85050" points="540.25,-1600.12 381,-1600.12 381,-1559.88 540.25,-1559.88 540.25,-1600.12"/>
<text text-anchor="middle" x="460.62" y="-1565.72" font-family="sans-serif" font-size="32.00" fill="white">Pyrite Ore</text>
</a>
</g>
</g>
<!-- I_pyrite_smelter -->
<g id="pyrite_smelter" class="node">
<title>I_pyrite_smelter</title>
<g id="a_pyrite_smelter"><a xlink:href="industries.html#pyrite_smelter" xlink:title="Pyrite Smelter" target="_top">
<polygon fill="white" stroke="none" points="611.25,-1474.38 611.25,-1685.62 913.25,-1685.62 913.25,-1474.38 611.25,-1474.38"/>
<polygon fill="none" stroke="#c1cdcd" points="611.25,-1518.62 611.25,-1685.62 913.25,-1685.62 913.25,-1518.62 611.25,-1518.62"/>
<image xlink:href="static/img/industries/pyrite_smelter.png" width="300px" height="165px" preserveAspectRatio="xMinYMin meet" x="612.25" y="-1684.62"/>
<polygon fill="none" stroke="#c1cdcd" points="611.25,-1474.38 611.25,-1518.62 913.25,-1518.62 913.25,-1474.38 611.25,-1474.38"/>
<polygon fill="ghostwhite" stroke="none" points="612.25,-1475.38 612.25,-1517.62 912.25,-1517.62 912.25,-1475.38 612.25,-1475.38"/>
<text text-anchor="start" x="662.12" y="-1482.22" font-family="sans-serif" font-size="32.00">Pyrite Smelter</text>
</a>
</g>
</g>
<!-- C_pyrite_ore&#45;&gt;I_pyrite_smelter -->
<g id="edge14" class="edge">
<title>C_pyrite_ore&#45;&gt;I_pyrite_smelter</title>
<g id="a_edge14"><a xlink:title="Pyrite Ore &#45;&gt; Pyrite Smelter">
<path fill="none" stroke="#a85050" stroke-width="5" d="M540.74,-1580C552.27,-1580 564.52,-1580 577.12,-1580"/>
<polygon fill="#a85050" stroke="#a85050" stroke-width="5" points="577.1,-1588.75 597.1,-1580 577.1,-1571.25 577.1,-1588.75"/>
</a>
</g>
</g>
<!-- C_sulphur -->
<g id="sulphur" class="node">
<title>C_sulphur</title>
<g id="a_sulphur"><a xlink:href="cargos.html#sulphur" xlink:title="Sulphur" target="_top">
<polygon fill="#7d70a8" stroke="#7d70a8" points="1132.25,-1823.12 1006,-1823.12 1006,-1782.88 1132.25,-1782.88 1132.25,-1823.12"/>
<text text-anchor="middle" x="1069.12" y="-1788.72" font-family="sans-serif" font-size="32.00" fill="white">Sulphur</text>
</a>
</g>
</g>
<!-- I_pyrite_smelter&#45;&gt;C_sulphur -->
<g id="edge32" class="edge">
<title>I_pyrite_smelter&#45;&gt;C_sulphur</title>
<g id="a_edge32"><a xlink:title="Pyrite Smelter &#45;&gt; Sulphur">
<path fill="none" stroke="#7d70a8" stroke-width="5" d="M913.01,-1689.54C961.5,-1725.01 1010.35,-1760.74 1039.93,-1782.38"/>
</a>
</g>
</g>
<!-- C_zinc -->
<g id="zinc" class="node">
<title>C_zinc</title>
<g id="a_zinc"><a xlink:href="cargos.html#zinc" xlink:title="Zinc" target="_top">
<polygon fill="#a8926d" stroke="#a8926d" points="1719.75,-1478.12 1643.75,-1478.12 1643.75,-1437.88 1719.75,-1437.88 1719.75,-1478.12"/>
<text text-anchor="middle" x="1681.75" y="-1443.72" font-family="sans-serif" font-size="32.00" fill="white">Zinc</text>
</a>
</g>
</g>
<!-- I_pyrite_smelter&#45;&gt;C_zinc -->
<g id="edge33" class="edge">
<title>I_pyrite_smelter&#45;&gt;C_zinc</title>
<g id="a_edge33"><a xlink:title="Pyrite Smelter &#45;&gt; Zinc">
<path fill="none" stroke="#a8926d" stroke-width="5" d="M921.23,-1558.99C1140.32,-1529.86 1523.06,-1478.97 1643.42,-1462.96"/>
</a>
</g>
</g>
<!-- C_sulphur&#45;&gt;I_chemical_plant -->
<g id="edge15" class="edge">
<title>C_sulphur&#45;&gt;I_chemical_plant</title>
<g id="a_edge15"><a xlink:title="Sulphur &#45;&gt; Chemical Plant">
<path fill="none" stroke="#7d70a8" stroke-width="5" d="M1100.75,-1823.59C1124.29,-1839.42 1158.9,-1862.69 1195.67,-1887.42"/>
<polygon fill="#7d70a8" stroke="#7d70a8" stroke-width="5" points="1190.54,-1894.51 1212.02,-1898.41 1200.31,-1879.99 1190.54,-1894.51"/>
</a>
</g>
</g>
<!-- C_sulphur&#45;&gt;I_paper_mill -->
<g id="edge16" class="edge">
<title>C_sulphur&#45;&gt;I_paper_mill</title>
<g id="a_edge16"><a xlink:title="Sulphur &#45;&gt; Paper Mill">
<path fill="none" stroke="#7d70a8" stroke-width="5" d="M1132.54,-1803C1243.05,-1803 1480.39,-1803 1680.75,-1803 1680.75,-1803 1680.75,-1803 1988.5,-1803 2133.17,-1803 2297,-1803 2419.13,-1803"/>
<polygon fill="#7d70a8" stroke="#7d70a8" stroke-width="5" points="2419.08,-1811.75 2439.08,-1803 2419.08,-1794.25 2419.08,-1811.75"/>
</a>
</g>
</g>
<!-- C_timber&#45;&gt;I_wharf -->
<g id="edge17" class="edge">
<title>C_timber&#45;&gt;I_wharf</title>
<g id="a_edge17"><a xlink:title="Timber &#45;&gt; Wharf">
<path fill="none" stroke="#74581c" stroke-width="5" d="M1739.53,-2239C1758.12,-2239 1779.89,-2239 1802.66,-2239"/>
<polygon fill="#74581c" stroke="#74581c" stroke-width="5" points="1802.45,-2247.75 1822.45,-2239 1802.45,-2230.25 1802.45,-2247.75"/>
</a>
</g>
</g>
<!-- C_zinc&#45;&gt;I_port -->
<g id="edge18" class="edge">
<title>C_zinc&#45;&gt;I_port</title>
<g id="a_edge18"><a xlink:title="Zinc &#45;&gt; Port">
<path fill="none" stroke="#a8926d" stroke-width="5" d="M1720,-1471.98C1742.32,-1480.36 1772.55,-1491.7 1804.64,-1503.75"/>
<polygon fill="#a8926d" stroke="#a8926d" stroke-width="5" points="1801.2,-1511.8 1823,-1510.64 1807.35,-1495.42 1801.2,-1511.8"/>
</a>
</g>
</g>
<!-- I_fish_farm -->
<g id="fish_farm" class="node">
<title>I_fish_farm</title>
<g id="a_fish_farm"><a xlink:href="industries.html#fish_farm" xlink:title="Fish Farm" target="_top">
<polygon fill="white" stroke="none" points="8,-724.38 8,-961.62 310,-961.62 310,-724.38 8,-724.38"/>
<polygon fill="none" stroke="#c1cdcd" points="8,-794.62 8,-961.62 310,-961.62 310,-794.62 8,-794.62"/>
<image xlink:href="static/img/industries/fish_farm.png" width="300px" height="165px" preserveAspectRatio="xMinYMin meet" x="9" y="-960.625"/>
<polygon fill="none" stroke="#c1cdcd" points="8,-724.38 8,-794.62 310,-794.62 310,-724.38 8,-724.38"/>
<polygon fill="ghostwhite" stroke="none" points="9,-725.38 9,-793.62 309,-793.62 309,-725.38 9,-725.38"/>
<text text-anchor="start" x="87" y="-758.23" font-family="sans-serif" font-size="32.00">Fish Farm</text>
<text text-anchor="start" x="51.75" y="-732.38" font-family="sans-serif" font-size="20.00">Requires Farm Supplies</text>
</a>
</g>
</g>
<!-- I_fish_farm&#45;&gt;C_fish -->
<g id="edge21" class="edge">
<title>I_fish_farm&#45;&gt;C_fish</title>
<g id="a_edge21"><a xlink:title="Fish Farm &#45;&gt; Fish">
<path fill="none" stroke="#a89a28" stroke-width="5" d="M317.71,-920.37C356.9,-939.6 395.37,-958.48 422.35,-971.71"/>
</a>
</g>
</g>
<!-- I_fishing_grounds -->
<g id="fishing_grounds" class="node">
<title>I_fishing_grounds</title>
<g id="a_fishing_grounds"><a xlink:href="industries.html#fishing_grounds" xlink:title="Fishing Grounds" target="_top">
<polygon fill="white" stroke="none" points="8,-1032.38 8,-1243.62 310,-1243.62 310,-1032.38 8,-1032.38"/>
<polygon fill="none" stroke="#c1cdcd" points="8,-1076.62 8,-1243.62 310,-1243.62 310,-1076.62 8,-1076.62"/>
<image xlink:href="static/img/industries/fishing_grounds.png" width="300px" height="165px" preserveAspectRatio="xMinYMin meet" x="9" y="-1242.62"/>
<polygon fill="none" stroke="#c1cdcd" points="8,-1032.38 8,-1076.62 310,-1076.62 310,-1032.38 8,-1032.38"/>
<polygon fill="ghostwhite" stroke="none" points="9,-1033.38 9,-1075.62 309,-1075.62 309,-1033.38 9,-1033.38"/>
<text text-anchor="start" x="41.62" y="-1040.22" font-family="sans-serif" font-size="32.00">Fishing Grounds</text>
</a>
</g>
</g>
<!-- I_fishing_grounds&#45;&gt;C_fish -->
<g id="edge22" class="edge">
<title>I_fishing_grounds&#45;&gt;C_fish</title>
<g id="a_edge22"><a xlink:title="Fishing Grounds &#45;&gt; Fish">
<path fill="none" stroke="#a89a28" stroke-width="5" d="M317.71,-1060.1C356.9,-1040.74 395.37,-1021.74 422.35,-1008.41"/>
</a>
</g>
</g>
<!-- I_forest -->
<g id="forest" class="node">
<title>I_forest</title>
<g id="a_forest"><a xlink:href="industries.html#forest" xlink:title="Forest" target="_top">
<polygon fill="white" stroke="none" points="611.25,-2684.38 611.25,-2921.62 913.25,-2921.62 913.25,-2684.38 611.25,-2684.38"/>
<polygon fill="none" stroke="#c1cdcd" points="611.25,-2754.62 611.25,-2921.62 913.25,-2921.62 913.25,-2754.62 611.25,-2754.62"/>
<image xlink:href="static/img/industries/forest.png" width="300px" height="165px" preserveAspectRatio="xMinYMin meet" x="612.25" y="-2920.62"/>
<polygon fill="none" stroke="#c1cdcd" points="611.25,-2684.38 611.25,-2754.62 913.25,-2754.62 913.25,-2684.38 611.25,-2684.38"/>
<polygon fill="ghostwhite" stroke="none" points="612.25,-2685.38 612.25,-2753.62 912.25,-2753.62 912.25,-2685.38 612.25,-2685.38"/>
<text text-anchor="start" x="716.88" y="-2718.22" font-family="sans-serif" font-size="32.00">Forest</text>
<text text-anchor="start" x="655" y="-2692.38" font-family="sans-serif" font-size="20.00">Requires Farm Supplies</text>
</a>
</g>
</g>
<!-- I_forest&#45;&gt;C_logs -->
<g id="edge24" class="edge">
<title>I_forest&#45;&gt;C_logs</title>
<g id="a_edge24"><a xlink:title="Forest &#45;&gt; Logs">
<path fill="none" stroke="#a88000" stroke-width="5" d="M921.05,-2803C959.84,-2803 998.17,-2803 1025.97,-2803"/>
</a>
</g>
</g>
<!-- I_herding_coop -->
<g id="herding_coop" class="node">
<title>I_herding_coop</title>
<g id="a_herding_coop"><a xlink:href="industries.html#herding_coop" xlink:title="Herding Co&#45;op" target="_top">
<polygon fill="white" stroke="none" points="611.25,-1166.38 611.25,-1403.62 913.25,-1403.62 913.25,-1166.38 611.25,-1166.38"/>
<polygon fill="none" stroke="#c1cdcd" points="611.25,-1236.62 611.25,-1403.62 913.25,-1403.62 913.25,-1236.62 611.25,-1236.62"/>
<image xlink:href="static/img/industries/herding_coop.png" width="300px" height="165px" preserveAspectRatio="xMinYMin meet" x="612.25" y="-1402.62"/>
<polygon fill="none" stroke="#c1cdcd" points="611.25,-1166.38 611.25,-1236.62 913.25,-1236.62 913.25,-1166.38 611.25,-1166.38"/>
<polygon fill="ghostwhite" stroke="none" points="612.25,-1167.38 612.25,-1235.62 912.25,-1235.62 912.25,-1167.38 612.25,-1167.38"/>
<text text-anchor="start" x="657.62" y="-1200.22" font-family="sans-serif" font-size="32.00">Herding Co&#45;op</text>
<text text-anchor="start" x="655" y="-1174.38" font-family="sans-serif" font-size="20.00">Requires Farm Supplies</text>
</a>
</g>
</g>
<!-- I_herding_coop&#45;&gt;C_food -->
<g id="edge25" class="edge">
<title>I_herding_coop&#45;&gt;C_food</title>
<g id="a_edge25"><a xlink:title="Herding Co&#45;op &#45;&gt; Food">
<path fill="none" stroke="#a84800" stroke-width="5" d="M921.05,-1180.97C965.22,-1151.85 1008.78,-1123.12 1036.9,-1104.59"/>
</a>
</g>
</g>
<!-- I_peatlands -->
<g id="peatlands" class="node">
<title>I_peatlands</title>
<g id="a_peatlands"><a xlink:href="industries.html#peatlands" xlink:title="Peatlands" target="_top">
<polygon fill="white" stroke="none" points="1225,-2466.38 1225,-2703.62 1527,-2703.62 1527,-2466.38 1225,-2466.38"/>
<polygon fill="none" stroke="#c1cdcd" points="1225,-2536.62 1225,-2703.62 1527,-2703.62 1527,-2536.62 1225,-2536.62"/>
<image xlink:href="static/img/industries/peatlands.png" width="300px" height="165px" preserveAspectRatio="xMinYMin meet" x="1226" y="-2702.62"/>
<polygon fill="none" stroke="#c1cdcd" points="1225,-2466.38 1225,-2536.62 1527,-2536.62 1527,-2466.38 1225,-2466.38"/>
<polygon fill="ghostwhite" stroke="none" points="1226,-2467.38 1226,-2535.62 1526,-2535.62 1526,-2467.38 1226,-2467.38"/>
<text text-anchor="start" x="1304.75" y="-2500.22" font-family="sans-serif" font-size="32.00">Peatlands</text>
<text text-anchor="start" x="1238" y="-2474.38" font-family="sans-serif" font-size="20.00">Requires Engineering Supplies</text>
</a>
</g>
</g>
<!-- I_peatlands&#45;&gt;C_peat -->
<g id="edge27" class="edge">
<title>I_peatlands&#45;&gt;C_peat</title>
<g id="a_edge27"><a xlink:title="Peatlands &#45;&gt; Peat">
<path fill="none" stroke="#004ca8" stroke-width="5" d="M1530.21,-2462.43C1578.57,-2423.74 1626.75,-2385.2 1655.13,-2362.49"/>
</a>
</g>
</g>
<!-- I_phosphate_mine -->
<g id="phosphate_mine" class="node">
<title>I_phosphate_mine</title>
<g id="a_phosphate_mine"><a xlink:href="industries.html#phosphate_mine" xlink:title="Phosphate Mine" target="_top">
<polygon fill="white" stroke="none" points="611.25,-1889.38 611.25,-2126.62 913.25,-2126.62 913.25,-1889.38 611.25,-1889.38"/>
<polygon fill="none" stroke="#c1cdcd" points="611.25,-1959.62 611.25,-2126.62 913.25,-2126.62 913.25,-1959.62 611.25,-1959.62"/>
<image xlink:href="static/img/industries/phosphate_mine.png" width="300px" height="165px" preserveAspectRatio="xMinYMin meet" x="612.25" y="-2125.62"/>
<polygon fill="none" stroke="#c1cdcd" points="611.25,-1889.38 611.25,-1959.62 913.25,-1959.62 913.25,-1889.38 611.25,-1889.38"/>
<polygon fill="ghostwhite" stroke="none" points="612.25,-1890.38 612.25,-1958.62 912.25,-1958.62 912.25,-1890.38 612.25,-1890.38"/>
<text text-anchor="start" x="646" y="-1923.22" font-family="sans-serif" font-size="32.00">Phosphate Mine</text>
<text text-anchor="start" x="624.25" y="-1897.38" font-family="sans-serif" font-size="20.00">Requires Engineering Supplies</text>
</a>
</g>
</g>
<!-- I_phosphate_mine&#45;&gt;C_phosphate -->
<g id="edge28" class="edge">
<title>I_phosphate_mine&#45;&gt;C_phosphate</title>
<g id="a_edge28"><a xlink:title="Phosphate Mine &#45;&gt; Phosphate">
<path fill="none" stroke="#505050" stroke-width="5" d="M921.05,-2008C942.69,-2008 964.2,-2008 983.81,-2008"/>
</a>
</g>
</g>
<!-- I_pyrite_mine -->
<g id="pyrite_mine" class="node">
<title>I_pyrite_mine</title>
<g id="a_pyrite_mine"><a xlink:href="industries.html#pyrite_mine" xlink:title="Pyrite Mine" target="_top">
<polygon fill="white" stroke="none" points="8,-1461.38 8,-1698.62 310,-1698.62 310,-1461.38 8,-1461.38"/>
<polygon fill="none" stroke="#c1cdcd" points="8,-1531.62 8,-1698.62 310,-1698.62 310,-1531.62 8,-1531.62"/>
<image xlink:href="static/img/industries/pyrite_mine.png" width="300px" height="165px" preserveAspectRatio="xMinYMin meet" x="9" y="-1697.62"/>
<polygon fill="none" stroke="#c1cdcd" points="8,-1461.38 8,-1531.62 310,-1531.62 310,-1461.38 8,-1461.38"/>
<polygon fill="ghostwhite" stroke="none" points="9,-1462.38 9,-1530.62 309,-1530.62 309,-1462.38 9,-1462.38"/>
<text text-anchor="start" x="79.12" y="-1495.22" font-family="sans-serif" font-size="32.00">Pyrite Mine</text>
<text text-anchor="start" x="21" y="-1469.38" font-family="sans-serif" font-size="20.00">Requires Engineering Supplies</text>
</a>
</g>
</g>
<!-- I_pyrite_mine&#45;&gt;C_pyrite_ore -->
<g id="edge31" class="edge">
<title>I_pyrite_mine&#45;&gt;C_pyrite_ore</title>
<g id="a_edge31"><a xlink:title="Pyrite Mine &#45;&gt; Pyrite Ore">
<path fill="none" stroke="#a85050" stroke-width="5" d="M317.71,-1580C339.56,-1580 361.19,-1580 380.73,-1580"/>
</a>
</g>
</g>
</g>
</svg>
