<?xml version="1.0" encoding="UTF-8" standalone="no"?>
<?xml-stylesheet href="static/css/cargoflow_styles.css" type="text/css"?>
<!DOCTYPE svg PUBLIC "-//W3C//DTD SVG 1.1//EN"
 "http://www.w3.org/Graphics/SVG/1.1/DTD/svg11.dtd">
<!-- Generated by graphviz version 12.1.2 (20240928.0832)
 -->
<!-- Title: temperate_basic Pages: 1 -->
<svg width="2205pt" height="3454pt"
 viewBox="0.00 0.00 2204.50 3453.62" xmlns="http://www.w3.org/2000/svg" xmlns:xlink="http://www.w3.org/1999/xlink">
<g id="page0,1_graph0" class="graph" transform="scale(1 1) rotate(0) translate(4 3449.62)">
<title>temperate_basic</title>
<g id="a_page0,1_graph0"><a xlink:title="Temperate Basic">
<polygon fill="white" stroke="none" points="-4,4 -4,-3449.62 2200.5,-3449.62 2200.5,4 -4,4"/>
</a>
</g>
<g id="clust1" class="cluster">
<title>cluster_town_industries</title>
<g id="a_clust1"><a xlink:title="Temperate Basic">
<polygon fill="#e0eeee" stroke="#e0eeee" stroke-width="5" points="1854.5,-8 1854.5,-1067 2188.5,-1067 2188.5,-8 1854.5,-8"/>
</a>
</g>
</g>
<!-- I_general_store -->
<g id="general_store" class="node">
<title>I_general_store</title>
<g id="a_general_store"><a xlink:href="industries.html#general_store" xlink:title="General Store" target="_top">
<polygon fill="white" stroke="none" points="1870.5,-20.38 1870.5,-309.62 2172.5,-309.62 2172.5,-20.38 1870.5,-20.38"/>
<polygon fill="none" stroke="#c1cdcd" points="1870.5,-142.62 1870.5,-309.62 2172.5,-309.62 2172.5,-142.62 1870.5,-142.62"/>
<image xlink:href="static/img/industries/general_store.png" width="300px" height="165px" preserveAspectRatio="xMinYMin meet" x="1871.5" y="-308.625"/>
<polygon fill="none" stroke="#c1cdcd" points="1870.5,-20.38 1870.5,-142.62 2172.5,-142.62 2172.5,-20.38 1870.5,-20.38"/>
<polygon fill="ghostwhite" stroke="none" points="1871.5,-21.38 1871.5,-141.62 2171.5,-141.62 2171.5,-21.38 1871.5,-21.38"/>
<text text-anchor="start" x="1921.75" y="-106.22" font-family="sans-serif" font-size="32.00">General Store</text>
<text text-anchor="start" x="1946.12" y="-80.38" font-family="sans-serif" font-size="20.00">Requires Alcohol</text>
<text text-anchor="start" x="1955.88" y="-54.38" font-family="sans-serif" font-size="20.00">Requires Food</text>
<text text-anchor="start" x="1949.12" y="-28.38" font-family="sans-serif" font-size="20.00">Requires Goods</text>
</a>
</g>
</g>
<!-- I_hotel -->
<g id="hotel" class="node">
<title>I_hotel</title>
<g id="a_hotel"><a xlink:href="industries.html#hotel" xlink:title="Hotel" target="_top">
<polygon fill="white" stroke="none" points="1870.5,-380.38 1870.5,-669.62 2172.5,-669.62 2172.5,-380.38 1870.5,-380.38"/>
<polygon fill="none" stroke="#c1cdcd" points="1870.5,-502.62 1870.5,-669.62 2172.5,-669.62 2172.5,-502.62 1870.5,-502.62"/>
<image xlink:href="static/img/industries/hotel.png" width="300px" height="165px" preserveAspectRatio="xMinYMin meet" x="1871.5" y="-668.625"/>
<polygon fill="none" stroke="#c1cdcd" points="1870.5,-380.38 1870.5,-502.62 2172.5,-502.62 2172.5,-380.38 1870.5,-380.38"/>
<polygon fill="ghostwhite" stroke="none" points="1871.5,-381.38 1871.5,-501.62 2171.5,-501.62 2171.5,-381.38 1871.5,-381.38"/>
<text text-anchor="start" x="1984" y="-466.23" font-family="sans-serif" font-size="32.00">Hotel</text>
<text text-anchor="start" x="1946.12" y="-440.38" font-family="sans-serif" font-size="20.00">Requires Alcohol</text>
<text text-anchor="start" x="1955.88" y="-414.38" font-family="sans-serif" font-size="20.00">Requires Food</text>
<text text-anchor="start" x="1925.88" y="-388.38" font-family="sans-serif" font-size="20.00">Requires Passengers</text>
</a>
</g>
</g>
<!-- I_plaza -->
<g id="plaza" class="node">
<title>I_plaza</title>
<g id="a_plaza"><a xlink:href="industries.html#plaza" xlink:title="Plaza" target="_top">
<polygon fill="white" stroke="none" points="1870.5,-740.38 1870.5,-951.62 2172.5,-951.62 2172.5,-740.38 1870.5,-740.38"/>
<polygon fill="none" stroke="#c1cdcd" points="1870.5,-784.62 1870.5,-951.62 2172.5,-951.62 2172.5,-784.62 1870.5,-784.62"/>
<image xlink:href="static/img/industries/plaza.png" width="300px" height="165px" preserveAspectRatio="xMinYMin meet" x="1871.5" y="-950.625"/>
<polygon fill="none" stroke="#c1cdcd" points="1870.5,-740.38 1870.5,-784.62 2172.5,-784.62 2172.5,-740.38 1870.5,-740.38"/>
<polygon fill="ghostwhite" stroke="none" points="1871.5,-741.38 1871.5,-783.62 2171.5,-783.62 2171.5,-741.38 1871.5,-741.38"/>
<text text-anchor="start" x="1981.75" y="-748.23" font-family="sans-serif" font-size="32.00">Plaza</text>
</a>
</g>
</g>
<!-- T_town_industries -->
<g id="node4" class="node">
<title>T_town_industries</title>
<text text-anchor="middle" x="2021.5" y="-1024.72" font-family="sans-serif" font-size="32.00">Town Industries</text>
</g>
<!-- I_port -->
<g id="port" class="node">
<title>I_port</title>
<g id="a_port"><a xlink:href="industries.html#port" xlink:title="Port" target="_top">
<polygon fill="white" stroke="none" points="1870.5,-2274.38 1870.5,-2537.62 2172.5,-2537.62 2172.5,-2274.38 1870.5,-2274.38"/>
<polygon fill="none" stroke="#c1cdcd" points="1870.5,-2370.62 1870.5,-2537.62 2172.5,-2537.62 2172.5,-2370.62 1870.5,-2370.62"/>
<image xlink:href="static/img/industries/port.png" width="300px" height="165px" preserveAspectRatio="xMinYMin meet" x="1871.5" y="-2536.62"/>
<polygon fill="none" stroke="#c1cdcd" points="1870.5,-2274.38 1870.5,-2370.62 2172.5,-2370.62 2172.5,-2274.38 1870.5,-2274.38"/>
<polygon fill="ghostwhite" stroke="none" points="1871.5,-2275.38 1871.5,-2369.62 2171.5,-2369.62 2171.5,-2275.38 1871.5,-2275.38"/>
<text text-anchor="start" x="1992.25" y="-2334.22" font-family="sans-serif" font-size="32.00">Port</text>
<text text-anchor="start" x="1881.25" y="-2308.38" font-family="sans-serif" font-size="20.00">Produces Engineering Supplies</text>
<text text-anchor="start" x="1912" y="-2282.38" font-family="sans-serif" font-size="20.00">Produces Farm Supplies</text>
</a>
</g>
</g>
<!-- C_chemicals -->
<g id="chemicals" class="node">
<title>C_chemicals</title>
<g id="a_chemicals"><a xlink:href="cargos.html#chemicals" xlink:title="Chemicals" target="_top">
<polygon fill="#602c03" stroke="#602c03" points="1182.75,-2643.12 1017.5,-2643.12 1017.5,-2602.88 1182.75,-2602.88 1182.75,-2643.12"/>
<text text-anchor="middle" x="1100.12" y="-2608.72" font-family="sans-serif" font-size="32.00" fill="white">Chemicals</text>
</a>
</g>
</g>
<!-- I_port&#45;&gt;C_chemicals -->
<g id="edge32" class="edge">
<title>I_port&#45;&gt;C_chemicals</title>
<g id="a_edge32"><a xlink:title="Port &#45;&gt; Chemicals">
<path fill="none" stroke="#602c03" stroke-width="5" d="M1862.68,-2443.25C1841.45,-2448.23 1819.94,-2453.25 1799.5,-2458 1553.55,-2515.14 1490.94,-2524.69 1245.75,-2585 1223.57,-2590.46 1199.54,-2596.65 1177.57,-2602.43"/>
</a>
</g>
</g>
<!-- C_alcohol -->
<g id="alcohol" class="node">
<title>C_alcohol</title>
<g id="a_alcohol"><a xlink:href="cargos.html#alcohol" xlink:title="Alcohol" target="_top">
<polygon fill="#a80000" stroke="#a80000" points="1773.25,-1182.12 1653,-1182.12 1653,-1141.88 1773.25,-1141.88 1773.25,-1182.12"/>
<text text-anchor="middle" x="1713.12" y="-1147.72" font-family="sans-serif" font-size="32.00" fill="white">Alcohol</text>
</a>
</g>
</g>
<!-- T_towns_alcohol -->
<g id="node7" class="node">
<title>T_towns_alcohol</title>
<polygon fill="none" stroke="#a80000" stroke-width="5" stroke-dasharray="5,2" points="2090.64,-1201.88 1952.37,-1201.88 1952.37,-1122.12 2090.64,-1122.12 2090.64,-1201.88"/>
<text text-anchor="middle" x="2021.5" y="-1147.72" font-family="sans-serif" font-size="32.00" fill="#a80000">Towns</text>
</g>
<!-- C_alcohol&#45;&gt;T_towns_alcohol -->
<g id="edge1" class="edge">
<title>C_alcohol&#45;&gt;T_towns_alcohol</title>
<path fill="none" stroke="#a80000" stroke-width="5" stroke-dasharray="5,2" d="M1773.56,-1162C1816.24,-1162 1874.69,-1162 1924.01,-1162"/>
<polygon fill="#a80000" stroke="#a80000" stroke-width="5" points="1923.71,-1170.75 1943.71,-1162 1923.71,-1153.25 1923.71,-1170.75"/>
</g>
<!-- I_glass_works -->
<g id="glass_works" class="node">
<title>I_glass_works</title>
<g id="a_glass_works"><a xlink:href="industries.html#glass_works" xlink:title="Glass Works" target="_top">
<polygon fill="white" stroke="none" points="1253.75,-2620.38 1253.75,-2831.62 1555.75,-2831.62 1555.75,-2620.38 1253.75,-2620.38"/>
<polygon fill="none" stroke="#c1cdcd" points="1253.75,-2664.62 1253.75,-2831.62 1555.75,-2831.62 1555.75,-2664.62 1253.75,-2664.62"/>
<image xlink:href="static/img/industries/glass_works.png" width="300px" height="165px" preserveAspectRatio="xMinYMin meet" x="1254.75" y="-2830.62"/>
<polygon fill="none" stroke="#c1cdcd" points="1253.75,-2620.38 1253.75,-2664.62 1555.75,-2664.62 1555.75,-2620.38 1253.75,-2620.38"/>
<polygon fill="ghostwhite" stroke="none" points="1254.75,-2621.38 1254.75,-2663.62 1554.75,-2663.62 1554.75,-2621.38 1254.75,-2621.38"/>
<text text-anchor="start" x="1315.12" y="-2628.22" font-family="sans-serif" font-size="32.00">Glass Works</text>
</a>
</g>
</g>
<!-- C_chemicals&#45;&gt;I_glass_works -->
<g id="edge2" class="edge">
<title>C_chemicals&#45;&gt;I_glass_works</title>
<g id="a_edge2"><a xlink:title="Chemicals &#45;&gt; Glass Works">
<path fill="none" stroke="#602c03" stroke-width="5" d="M1161.64,-2643.6C1179.4,-2649.64 1199.81,-2656.59 1221.09,-2663.83"/>
<polygon fill="#602c03" stroke="#602c03" stroke-width="5" points="1218.21,-2672.09 1239.96,-2670.25 1223.85,-2655.53 1218.21,-2672.09"/>
</a>
</g>
</g>
<!-- I_metal_workshop -->
<g id="metal_workshop" class="node">
<title>I_metal_workshop</title>
<g id="a_metal_workshop"><a xlink:href="industries.html#metal_workshop" xlink:title="Metal Workshop" target="_top">
<polygon fill="white" stroke="none" points="1253.75,-2902.38 1253.75,-3113.62 1555.75,-3113.62 1555.75,-2902.38 1253.75,-2902.38"/>
<polygon fill="none" stroke="#c1cdcd" points="1253.75,-2946.62 1253.75,-3113.62 1555.75,-3113.62 1555.75,-2946.62 1253.75,-2946.62"/>
<image xlink:href="static/img/industries/metal_workshop.png" width="300px" height="165px" preserveAspectRatio="xMinYMin meet" x="1254.75" y="-3112.62"/>
<polygon fill="none" stroke="#c1cdcd" points="1253.75,-2902.38 1253.75,-2946.62 1555.75,-2946.62 1555.75,-2902.38 1253.75,-2902.38"/>
<polygon fill="ghostwhite" stroke="none" points="1254.75,-2903.38 1254.75,-2945.62 1554.75,-2945.62 1554.75,-2903.38 1254.75,-2903.38"/>
<text text-anchor="start" x="1289.25" y="-2910.22" font-family="sans-serif" font-size="32.00">Metal Workshop</text>
</a>
</g>
</g>
<!-- C_chemicals&#45;&gt;I_metal_workshop -->
<g id="edge3" class="edge">
<title>C_chemicals&#45;&gt;I_metal_workshop</title>
<g id="a_edge3"><a xlink:title="Chemicals &#45;&gt; Metal Workshop">
<path fill="none" stroke="#602c03" stroke-width="5" d="M1146.19,-2643.56C1159.49,-2651.47 1173.07,-2661.63 1182.75,-2674 1238.35,-2745.06 1196.39,-2791.47 1245.75,-2867 1248.26,-2870.84 1250.9,-2874.64 1253.65,-2878.4"/>
<polygon fill="#602c03" stroke="#602c03" stroke-width="5" points="1246.68,-2883.69 1266.01,-2893.83 1260.34,-2872.75 1246.68,-2883.69"/>
</a>
</g>
</g>
<!-- C_goods -->
<g id="goods" class="node">
<title>C_goods</title>
<g id="a_goods"><a xlink:href="cargos.html#goods" xlink:title="Goods" target="_top">
<polygon fill="#a84b60" stroke="#a84b60" points="1768.38,-2660.12 1657.88,-2660.12 1657.88,-2619.88 1768.38,-2619.88 1768.38,-2660.12"/>
<text text-anchor="middle" x="1713.12" y="-2625.72" font-family="sans-serif" font-size="32.00" fill="white">Goods</text>
</a>
</g>
</g>
<!-- I_glass_works&#45;&gt;C_goods -->
<g id="edge27" class="edge">
<title>I_glass_works&#45;&gt;C_goods</title>
<g id="a_edge27"><a xlink:title="Glass Works &#45;&gt; Goods">
<path fill="none" stroke="#a84b60" stroke-width="5" d="M1563.42,-2681.74C1597.29,-2672.23 1630.87,-2662.81 1657.52,-2655.33"/>
</a>
</g>
</g>
<!-- I_metal_workshop&#45;&gt;C_goods -->
<g id="edge29" class="edge">
<title>I_metal_workshop&#45;&gt;C_goods</title>
<g id="a_edge29"><a xlink:title="Metal Workshop &#45;&gt; Goods">
<path fill="none" stroke="#a84b60" stroke-width="5" d="M1534.52,-2898.44C1544.75,-2888.14 1554.64,-2877.59 1563.75,-2867 1623.79,-2797.23 1678.66,-2701.64 1701.24,-2660.35"/>
</a>
</g>
</g>
<!-- C_kaolin -->
<g id="kaolin" class="node">
<title>C_kaolin</title>
<g id="a_kaolin"><a xlink:href="cargos.html#kaolin" xlink:title="China Clay" target="_top">
<polygon fill="#882034" stroke="#882034" points="1799.5,-2426.12 1626.75,-2426.12 1626.75,-2385.88 1799.5,-2385.88 1799.5,-2426.12"/>
<text text-anchor="middle" x="1713.12" y="-2391.72" font-family="sans-serif" font-size="32.00" fill="white">China Clay</text>
</a>
</g>
</g>
<!-- C_kaolin&#45;&gt;I_port -->
<g id="edge4" class="edge">
<title>C_kaolin&#45;&gt;I_port</title>
<g id="a_edge4"><a xlink:title="China Clay &#45;&gt; Port">
<path fill="none" stroke="#882034" stroke-width="5" d="M1799.87,-2406C1811.54,-2406 1823.86,-2406 1836.47,-2406"/>
<polygon fill="#882034" stroke="#882034" stroke-width="5" points="1836.41,-2414.75 1856.41,-2406 1836.41,-2397.25 1836.41,-2414.75"/>
</a>
</g>
</g>
<!-- C_coal -->
<g id="coal" class="node">
<title>C_coal</title>
<g id="a_coal"><a xlink:href="cargos.html#coal" xlink:title="Coal" target="_top">
<polygon fill="#a86052" stroke="#a86052" points="515.5,-3138.12 433.5,-3138.12 433.5,-3097.88 515.5,-3097.88 515.5,-3138.12"/>
<text text-anchor="middle" x="474.5" y="-3103.72" font-family="sans-serif" font-size="32.00" fill="white">Coal</text>
</a>
</g>
</g>
<!-- I_integrated_steel_mill -->
<g id="integrated_steel_mill" class="node">
<title>I_integrated_steel_mill</title>
<g id="a_integrated_steel_mill"><a xlink:href="industries.html#integrated_steel_mill" xlink:title="Steel Mill" target="_top">
<polygon fill="white" stroke="none" points="641.75,-2909.38 641.75,-3120.62 943.75,-3120.62 943.75,-2909.38 641.75,-2909.38"/>
<polygon fill="none" stroke="#c1cdcd" points="641.75,-2953.62 641.75,-3120.62 943.75,-3120.62 943.75,-2953.62 641.75,-2953.62"/>
<image xlink:href="static/img/industries/integrated_steel_mill.png" width="300px" height="165px" preserveAspectRatio="xMinYMin meet" x="642.75" y="-3119.62"/>
<polygon fill="none" stroke="#c1cdcd" points="641.75,-2909.38 641.75,-2953.62 943.75,-2953.62 943.75,-2909.38 641.75,-2909.38"/>
<polygon fill="ghostwhite" stroke="none" points="642.75,-2910.38 642.75,-2952.62 942.75,-2952.62 942.75,-2910.38 642.75,-2910.38"/>
<text text-anchor="start" x="728.25" y="-2917.22" font-family="sans-serif" font-size="32.00">Steel Mill</text>
</a>
</g>
</g>
<!-- C_coal&#45;&gt;I_integrated_steel_mill -->
<g id="edge5" class="edge">
<title>C_coal&#45;&gt;I_integrated_steel_mill</title>
<g id="a_edge5"><a xlink:title="Coal &#45;&gt; Steel Mill">
<path fill="none" stroke="#a86052" stroke-width="5" d="M515.87,-3104.85C540.51,-3096.83 573.93,-3085.94 609.02,-3074.51"/>
<polygon fill="#a86052" stroke="#a86052" stroke-width="5" points="611.56,-3082.89 627.87,-3068.38 606.14,-3066.25 611.56,-3082.89"/>
</a>
</g>
</g>
<!-- C_steel -->
<g id="steel" class="node">
<title>C_steel</title>
<g id="a_steel"><a xlink:href="cargos.html#steel" xlink:title="Steel" target="_top">
<polygon fill="#7d70a8" stroke="#7d70a8" points="1144.5,-3028.12 1055.75,-3028.12 1055.75,-2987.88 1144.5,-2987.88 1144.5,-3028.12"/>
<text text-anchor="middle" x="1100.12" y="-2993.72" font-family="sans-serif" font-size="32.00" fill="white">Steel</text>
</a>
</g>
</g>
<!-- I_integrated_steel_mill&#45;&gt;C_steel -->
<g id="edge34" class="edge">
<title>I_integrated_steel_mill&#45;&gt;C_steel</title>
<g id="a_edge34"><a xlink:title="Steel Mill &#45;&gt; Steel">
<path fill="none" stroke="#7d70a8" stroke-width="5" d="M951.36,-3011.39C989.71,-3010.51 1027.65,-3009.64 1055.49,-3009"/>
</a>
</g>
</g>
<!-- C_fish -->
<g id="fish" class="node">
<title>C_fish</title>
<g id="a_fish"><a xlink:href="cargos.html#fish" xlink:title="Fish" target="_top">
<polygon fill="#5d45a8" stroke="#5d45a8" points="1138.12,-2028.12 1062.12,-2028.12 1062.12,-1987.88 1138.12,-1987.88 1138.12,-2028.12"/>
<text text-anchor="middle" x="1100.12" y="-1993.72" font-family="sans-serif" font-size="32.00" fill="white">Fish</text>
</a>
</g>
</g>
<!-- I_fishing_harbour -->
<g id="fishing_harbour" class="node">
<title>I_fishing_harbour</title>
<g id="a_fishing_harbour"><a xlink:href="industries.html#fishing_harbour" xlink:title="Fishing Harbour" target="_top">
<polygon fill="white" stroke="none" points="1253.75,-1902.38 1253.75,-2113.62 1555.75,-2113.62 1555.75,-1902.38 1253.75,-1902.38"/>
<polygon fill="none" stroke="#c1cdcd" points="1253.75,-1946.62 1253.75,-2113.62 1555.75,-2113.62 1555.75,-1946.62 1253.75,-1946.62"/>
<image xlink:href="static/img/industries/fishing_harbour.png" width="300px" height="165px" preserveAspectRatio="xMinYMin meet" x="1254.75" y="-2112.62"/>
<polygon fill="none" stroke="#c1cdcd" points="1253.75,-1902.38 1253.75,-1946.62 1555.75,-1946.62 1555.75,-1902.38 1253.75,-1902.38"/>
<polygon fill="ghostwhite" stroke="none" points="1254.75,-1903.38 1254.75,-1945.62 1554.75,-1945.62 1554.75,-1903.38 1254.75,-1903.38"/>
<text text-anchor="start" x="1290.75" y="-1910.22" font-family="sans-serif" font-size="32.00">Fishing Harbour</text>
</a>
</g>
</g>
<!-- C_fish&#45;&gt;I_fishing_harbour -->
<g id="edge6" class="edge">
<title>C_fish&#45;&gt;I_fishing_harbour</title>
<g id="a_edge6"><a xlink:title="Fish &#45;&gt; Fishing Harbour">
<path fill="none" stroke="#5d45a8" stroke-width="5" d="M1138.54,-2008C1160.1,-2008 1188.98,-2008 1219.75,-2008"/>
<polygon fill="#5d45a8" stroke="#5d45a8" stroke-width="5" points="1219.69,-2016.75 1239.69,-2008 1219.69,-1999.25 1219.69,-2016.75"/>
</a>
</g>
</g>
<!-- C_food -->
<g id="food" class="node">
<title>C_food</title>
<g id="a_food"><a xlink:href="cargos.html#food" xlink:title="Food" target="_top">
<polygon fill="#a84800" stroke="#a84800" points="1757.88,-2108.12 1668.38,-2108.12 1668.38,-2067.88 1757.88,-2067.88 1757.88,-2108.12"/>
<text text-anchor="middle" x="1713.12" y="-2073.72" font-family="sans-serif" font-size="32.00" fill="white">Food</text>
</a>
</g>
</g>
<!-- I_fishing_harbour&#45;&gt;C_food -->
<g id="edge26" class="edge">
<title>I_fishing_harbour&#45;&gt;C_food</title>
<g id="a_edge26"><a xlink:title="Fishing Harbour &#45;&gt; Food">
<path fill="none" stroke="#a84800" stroke-width="5" d="M1563.42,-2049.17C1601.99,-2059.24 1640.17,-2069.21 1668.18,-2076.53"/>
</a>
</g>
</g>
<!-- C_food&#45;&gt;I_port -->
<g id="edge7" class="edge">
<title>C_food&#45;&gt;I_port</title>
<g id="a_edge7"><a xlink:title="Food &#45;&gt; Port">
<path fill="none" stroke="#a84800" stroke-width="5" d="M1733.76,-2108.38C1762.24,-2137.94 1817.59,-2195.39 1872.13,-2252"/>
<polygon fill="#a84800" stroke="#a84800" stroke-width="5" points="1865.66,-2257.9 1885.84,-2266.23 1878.26,-2245.75 1865.66,-2257.9"/>
</a>
</g>
</g>
<!-- T_towns_food -->
<g id="node17" class="node">
<title>T_towns_food</title>
<polygon fill="none" stroke="#a84800" stroke-width="5" stroke-dasharray="5,2" points="2090.64,-2127.89 1952.37,-2127.89 1952.37,-2048.11 2090.64,-2048.11 2090.64,-2127.89"/>
<text text-anchor="middle" x="2021.5" y="-2073.72" font-family="sans-serif" font-size="32.00" fill="#a84800">Towns</text>
</g>
<!-- C_food&#45;&gt;T_towns_food -->
<g id="edge8" class="edge">
<title>C_food&#45;&gt;T_towns_food</title>
<path fill="none" stroke="#a84800" stroke-width="5" stroke-dasharray="5,2" d="M1758.35,-2088C1801.43,-2088 1868.34,-2088 1923.78,-2088"/>
<polygon fill="#a84800" stroke="#a84800" stroke-width="5" points="1923.69,-2096.75 1943.69,-2088 1923.69,-2079.25 1923.69,-2096.75"/>
</g>
<!-- C_fruits -->
<g id="fruits" class="node">
<title>C_fruits</title>
<g id="a_fruits"><a xlink:href="cargos.html#fruits" xlink:title="Fruit" target="_top">
<polygon fill="#a88000" stroke="#a88000" points="1140,-1310.12 1060.25,-1310.12 1060.25,-1269.88 1140,-1269.88 1140,-1310.12"/>
<text text-anchor="middle" x="1100.12" y="-1275.72" font-family="sans-serif" font-size="32.00" fill="white">Fruit</text>
</a>
</g>
</g>
<!-- I_cider_mill -->
<g id="cider_mill" class="node">
<title>I_cider_mill</title>
<g id="a_cider_mill"><a xlink:href="industries.html#cider_mill" xlink:title="Cider Mill" target="_top">
<polygon fill="white" stroke="none" points="1253.75,-1056.38 1253.75,-1267.62 1555.75,-1267.62 1555.75,-1056.38 1253.75,-1056.38"/>
<polygon fill="none" stroke="#c1cdcd" points="1253.75,-1100.62 1253.75,-1267.62 1555.75,-1267.62 1555.75,-1100.62 1253.75,-1100.62"/>
<image xlink:href="static/img/industries/cider_mill.png" width="300px" height="165px" preserveAspectRatio="xMinYMin meet" x="1254.75" y="-1266.62"/>
<polygon fill="none" stroke="#c1cdcd" points="1253.75,-1056.38 1253.75,-1100.62 1555.75,-1100.62 1555.75,-1056.38 1253.75,-1056.38"/>
<polygon fill="ghostwhite" stroke="none" points="1254.75,-1057.38 1254.75,-1099.62 1554.75,-1099.62 1554.75,-1057.38 1254.75,-1057.38"/>
<text text-anchor="start" x="1338.38" y="-1064.22" font-family="sans-serif" font-size="32.00">Cider Mill</text>
</a>
</g>
</g>
<!-- C_fruits&#45;&gt;I_cider_mill -->
<g id="edge9" class="edge">
<title>C_fruits&#45;&gt;I_cider_mill</title>
<g id="a_edge9"><a xlink:title="Fruit &#45;&gt; Cider Mill">
<path fill="none" stroke="#a88000" stroke-width="5" d="M1140.38,-1273.4C1162.3,-1264.13 1191.36,-1251.84 1222.16,-1238.81"/>
<polygon fill="#a88000" stroke="#a88000" stroke-width="5" points="1225.21,-1247.02 1240.22,-1231.17 1218.39,-1230.9 1225.21,-1247.02"/>
</a>
</g>
</g>
<!-- I_cider_mill&#45;&gt;C_alcohol -->
<g id="edge18" class="edge">
<title>I_cider_mill&#45;&gt;C_alcohol</title>
<g id="a_edge18"><a xlink:title="Cider Mill &#45;&gt; Alcohol">
<path fill="none" stroke="#a80000" stroke-width="5" d="M1563.42,-1162C1595.24,-1162 1626.8,-1162 1652.6,-1162"/>
</a>
</g>
</g>
<!-- C_goods&#45;&gt;I_port -->
<g id="edge10" class="edge">
<title>C_goods&#45;&gt;I_port</title>
<g id="a_edge10"><a xlink:title="Goods &#45;&gt; Port">
<path fill="none" stroke="#a84b60" stroke-width="5" d="M1741.05,-2619.44C1765.04,-2601.12 1802.41,-2572.57 1842.1,-2542.26"/>
<polygon fill="#a84b60" stroke="#a84b60" stroke-width="5" points="1847.15,-2549.41 1857.73,-2530.32 1836.52,-2535.5 1847.15,-2549.41"/>
</a>
</g>
</g>
<!-- T_towns_goods -->
<g id="node21" class="node">
<title>T_towns_goods</title>
<polygon fill="none" stroke="#a84b60" stroke-width="5" stroke-dasharray="5,2" points="2090.64,-2684.89 1952.37,-2684.89 1952.37,-2605.11 2090.64,-2605.11 2090.64,-2684.89"/>
<text text-anchor="middle" x="2021.5" y="-2630.72" font-family="sans-serif" font-size="32.00" fill="#a84b60">Towns</text>
</g>
<!-- C_goods&#45;&gt;T_towns_goods -->
<g id="edge11" class="edge">
<title>C_goods&#45;&gt;T_towns_goods</title>
<path fill="none" stroke="#a84b60" stroke-width="5" stroke-dasharray="5,2" d="M1768.55,-2640.89C1811.57,-2641.59 1872.71,-2642.59 1923.99,-2643.43"/>
<polygon fill="#a84b60" stroke="#a84b60" stroke-width="5" points="1923.77,-2652.17 1943.91,-2643.75 1924.05,-2634.67 1923.77,-2652.17"/>
</g>
<!-- C_iron_ore -->
<g id="iron_ore" class="node">
<title>C_iron_ore</title>
<g id="a_iron_ore"><a xlink:href="cargos.html#iron_ore" xlink:title="Iron Ore" target="_top">
<polygon fill="#74581c" stroke="#74581c" points="541.38,-3035.12 407.62,-3035.12 407.62,-2994.88 541.38,-2994.88 541.38,-3035.12"/>
<text text-anchor="middle" x="474.5" y="-3000.72" font-family="sans-serif" font-size="32.00" fill="white">Iron Ore</text>
</a>
</g>
</g>
<!-- C_iron_ore&#45;&gt;I_integrated_steel_mill -->
<g id="edge12" class="edge">
<title>C_iron_ore&#45;&gt;I_integrated_steel_mill</title>
<g id="a_edge12"><a xlink:title="Iron Ore &#45;&gt; Steel Mill">
<path fill="none" stroke="#74581c" stroke-width="5" d="M541.8,-3015C561.58,-3015 584.29,-3015 607.78,-3015"/>
<polygon fill="#74581c" stroke="#74581c" stroke-width="5" points="607.77,-3023.75 627.77,-3015 607.77,-3006.25 607.77,-3023.75"/>
</a>
</g>
</g>
<!-- C_livestock -->
<g id="livestock" class="node">
<title>C_livestock</title>
<g id="a_livestock"><a xlink:href="cargos.html#livestock" xlink:title="Livestock" target="_top">
<polygon fill="#004ca8" stroke="#004ca8" points="1174.5,-1464.12 1025.75,-1464.12 1025.75,-1423.88 1174.5,-1423.88 1174.5,-1464.12"/>
<text text-anchor="middle" x="1100.12" y="-1429.72" font-family="sans-serif" font-size="32.00" fill="white">Livestock</text>
</a>
</g>
</g>
<!-- I_stockyard -->
<g id="stockyard" class="node">
<title>I_stockyard</title>
<g id="a_stockyard"><a xlink:href="industries.html#stockyard" xlink:title="Stockyard" target="_top">
<polygon fill="white" stroke="none" points="1253.75,-1338.38 1253.75,-1549.62 1555.75,-1549.62 1555.75,-1338.38 1253.75,-1338.38"/>
<polygon fill="none" stroke="#c1cdcd" points="1253.75,-1382.62 1253.75,-1549.62 1555.75,-1549.62 1555.75,-1382.62 1253.75,-1382.62"/>
<image xlink:href="static/img/industries/stockyard.png" width="300px" height="165px" preserveAspectRatio="xMinYMin meet" x="1254.75" y="-1548.62"/>
<polygon fill="none" stroke="#c1cdcd" points="1253.75,-1338.38 1253.75,-1382.62 1555.75,-1382.62 1555.75,-1338.38 1253.75,-1338.38"/>
<polygon fill="ghostwhite" stroke="none" points="1254.75,-1339.38 1254.75,-1381.62 1554.75,-1381.62 1554.75,-1339.38 1254.75,-1339.38"/>
<text text-anchor="start" x="1333.88" y="-1346.22" font-family="sans-serif" font-size="32.00">Stockyard</text>
</a>
</g>
</g>
<!-- C_livestock&#45;&gt;I_stockyard -->
<g id="edge13" class="edge">
<title>C_livestock&#45;&gt;I_stockyard</title>
<g id="a_edge13"><a xlink:title="Livestock &#45;&gt; Stockyard">
<path fill="none" stroke="#004ca8" stroke-width="5" d="M1174.77,-1444C1188.84,-1444 1204.13,-1444 1219.92,-1444"/>
<polygon fill="#004ca8" stroke="#004ca8" stroke-width="5" points="1219.69,-1452.75 1239.69,-1444 1219.69,-1435.25 1219.69,-1452.75"/>
</a>
</g>
</g>
<!-- I_stockyard&#45;&gt;C_food -->
<g id="edge35" class="edge">
<title>I_stockyard&#45;&gt;C_food</title>
<g id="a_edge35"><a xlink:title="Stockyard &#45;&gt; Food">
<path fill="none" stroke="#a84800" stroke-width="5" d="M1540.31,-1553.51C1548.91,-1563.59 1556.87,-1574.13 1563.75,-1585 1669.21,-1751.53 1702.41,-1996.14 1710.15,-2067.66"/>
</a>
</g>
</g>
<!-- C_milk -->
<g id="milk" class="node">
<title>C_milk</title>
<g id="a_milk"><a xlink:href="cargos.html#milk" xlink:title="Milk" target="_top">
<polygon fill="#505050" stroke="#505050" points="1136.25,-1618.12 1064,-1618.12 1064,-1577.88 1136.25,-1577.88 1136.25,-1618.12"/>
<text text-anchor="middle" x="1100.12" y="-1583.72" font-family="sans-serif" font-size="32.00" fill="white">Milk</text>
</a>
</g>
</g>
<!-- I_dairy -->
<g id="dairy" class="node">
<title>I_dairy</title>
<g id="a_dairy"><a xlink:href="industries.html#dairy" xlink:title="Dairy" target="_top">
<polygon fill="white" stroke="none" points="1253.75,-1620.38 1253.75,-1831.62 1555.75,-1831.62 1555.75,-1620.38 1253.75,-1620.38"/>
<polygon fill="none" stroke="#c1cdcd" points="1253.75,-1664.62 1253.75,-1831.62 1555.75,-1831.62 1555.75,-1664.62 1253.75,-1664.62"/>
<image xlink:href="static/img/industries/dairy.png" width="300px" height="165px" preserveAspectRatio="xMinYMin meet" x="1254.75" y="-1830.62"/>
<polygon fill="none" stroke="#c1cdcd" points="1253.75,-1620.38 1253.75,-1664.62 1555.75,-1664.62 1555.75,-1620.38 1253.75,-1620.38"/>
<polygon fill="ghostwhite" stroke="none" points="1254.75,-1621.38 1254.75,-1663.62 1554.75,-1663.62 1554.75,-1621.38 1254.75,-1621.38"/>
<text text-anchor="start" x="1367.62" y="-1628.22" font-family="sans-serif" font-size="32.00">Dairy</text>
</a>
</g>
</g>
<!-- C_milk&#45;&gt;I_dairy -->
<g id="edge14" class="edge">
<title>C_milk&#45;&gt;I_dairy</title>
<g id="a_edge14"><a xlink:title="Milk &#45;&gt; Dairy">
<path fill="none" stroke="#505050" stroke-width="5" d="M1136.73,-1613.06C1158.98,-1622.47 1189.52,-1635.39 1222.01,-1649.13"/>
<polygon fill="#505050" stroke="#505050" stroke-width="5" points="1218.35,-1657.08 1240.17,-1656.81 1225.16,-1640.96 1218.35,-1657.08"/>
</a>
</g>
</g>
<!-- I_dairy&#45;&gt;C_food -->
<g id="edge21" class="edge">
<title>I_dairy&#45;&gt;C_food</title>
<g id="a_edge21"><a xlink:title="Dairy &#45;&gt; Food">
<path fill="none" stroke="#a84800" stroke-width="5" d="M1533.97,-1835.28C1544.38,-1845.68 1554.45,-1856.33 1563.75,-1867 1622.8,-1934.77 1677.77,-2027.13 1700.77,-2067.6"/>
</a>
</g>
</g>
<!-- C_sand -->
<g id="sand" class="node">
<title>C_sand</title>
<g id="a_sand"><a xlink:href="cargos.html#sand" xlink:title="Sand" target="_top">
<polygon fill="#468fa8" stroke="#468fa8" points="1145.62,-2746.12 1054.62,-2746.12 1054.62,-2705.88 1145.62,-2705.88 1145.62,-2746.12"/>
<text text-anchor="middle" x="1100.12" y="-2711.72" font-family="sans-serif" font-size="32.00" fill="white">Sand</text>
</a>
</g>
</g>
<!-- C_sand&#45;&gt;I_glass_works -->
<g id="edge15" class="edge">
<title>C_sand&#45;&gt;I_glass_works</title>
<g id="a_edge15"><a xlink:title="Sand &#45;&gt; Glass Works">
<path fill="none" stroke="#468fa8" stroke-width="5" d="M1146.1,-2726C1166.67,-2726 1192.54,-2726 1219.9,-2726"/>
<polygon fill="#468fa8" stroke="#468fa8" stroke-width="5" points="1219.66,-2734.75 1239.66,-2726 1219.66,-2717.25 1219.66,-2734.75"/>
</a>
</g>
</g>
<!-- C_scrap_metal -->
<g id="scrap_metal" class="node">
<title>C_scrap_metal</title>
<g id="a_scrap_metal"><a xlink:href="cargos.html#scrap_metal" xlink:title="Scrap Metal" target="_top">
<polygon fill="#a85050" stroke="#a85050" points="568,-2932.12 381,-2932.12 381,-2891.88 568,-2891.88 568,-2932.12"/>
<text text-anchor="middle" x="474.5" y="-2897.72" font-family="sans-serif" font-size="32.00" fill="white">Scrap Metal</text>
</a>
</g>
</g>
<!-- C_scrap_metal&#45;&gt;I_integrated_steel_mill -->
<g id="edge16" class="edge">
<title>C_scrap_metal&#45;&gt;I_integrated_steel_mill</title>
<g id="a_edge16"><a xlink:title="Scrap Metal &#45;&gt; Steel Mill">
<path fill="none" stroke="#a85050" stroke-width="5" d="M538.74,-2932.6C559.6,-2939.39 583.95,-2947.32 609.16,-2955.53"/>
<polygon fill="#a85050" stroke="#a85050" stroke-width="5" points="606.37,-2963.82 628.09,-2961.7 611.78,-2947.18 606.37,-2963.82"/>
</a>
</g>
</g>
<!-- C_steel&#45;&gt;I_metal_workshop -->
<g id="edge17" class="edge">
<title>C_steel&#45;&gt;I_metal_workshop</title>
<g id="a_edge17"><a xlink:title="Steel &#45;&gt; Metal Workshop">
<path fill="none" stroke="#7d70a8" stroke-width="5" d="M1144.81,-3008C1165.61,-3008 1192.04,-3008 1220.02,-3008"/>
<polygon fill="#7d70a8" stroke="#7d70a8" stroke-width="5" points="1219.8,-3016.75 1239.8,-3008 1219.8,-2999.25 1219.8,-3016.75"/>
</a>
</g>
</g>
<!-- I_clay_pit -->
<g id="clay_pit" class="node">
<title>I_clay_pit</title>
<g id="a_clay_pit"><a xlink:href="industries.html#clay_pit" xlink:title="Clay Pit" target="_top">
<polygon fill="white" stroke="none" points="1253.75,-2184.38 1253.75,-2421.62 1555.75,-2421.62 1555.75,-2184.38 1253.75,-2184.38"/>
<polygon fill="none" stroke="#c1cdcd" points="1253.75,-2254.62 1253.75,-2421.62 1555.75,-2421.62 1555.75,-2254.62 1253.75,-2254.62"/>
<image xlink:href="static/img/industries/clay_pit.png" width="300px" height="165px" preserveAspectRatio="xMinYMin meet" x="1254.75" y="-2420.62"/>
<polygon fill="none" stroke="#c1cdcd" points="1253.75,-2184.38 1253.75,-2254.62 1555.75,-2254.62 1555.75,-2184.38 1253.75,-2184.38"/>
<polygon fill="ghostwhite" stroke="none" points="1254.75,-2185.38 1254.75,-2253.62 1554.75,-2253.62 1554.75,-2185.38 1254.75,-2185.38"/>
<text text-anchor="start" x="1350" y="-2218.22" font-family="sans-serif" font-size="32.00">Clay Pit</text>
<text text-anchor="start" x="1266.75" y="-2192.38" font-family="sans-serif" font-size="20.00">Requires Engineering Supplies</text>
</a>
</g>
</g>
<!-- I_clay_pit&#45;&gt;C_kaolin -->
<g id="edge19" class="edge">
<title>I_clay_pit&#45;&gt;C_kaolin</title>
<g id="a_edge19"><a xlink:title="Clay Pit &#45;&gt; China Clay">
<path fill="none" stroke="#882034" stroke-width="5" d="M1563.42,-2356.01C1594.51,-2366.46 1625.34,-2376.83 1650.81,-2385.39"/>
</a>
</g>
</g>
<!-- I_coal_mine -->
<g id="coal_mine" class="node">
<title>I_coal_mine</title>
<g id="a_coal_mine"><a xlink:href="industries.html#coal_mine" xlink:title="Coal Mine" target="_top">
<polygon fill="white" stroke="none" points="8,-3204.38 8,-3441.62 310,-3441.62 310,-3204.38 8,-3204.38"/>
<polygon fill="none" stroke="#c1cdcd" points="8,-3274.62 8,-3441.62 310,-3441.62 310,-3274.62 8,-3274.62"/>
<image xlink:href="static/img/industries/coal_mine.png" width="300px" height="165px" preserveAspectRatio="xMinYMin meet" x="9" y="-3440.62"/>
<polygon fill="none" stroke="#c1cdcd" points="8,-3204.38 8,-3274.62 310,-3274.62 310,-3204.38 8,-3204.38"/>
<polygon fill="ghostwhite" stroke="none" points="9,-3205.38 9,-3273.62 309,-3273.62 309,-3205.38 9,-3205.38"/>
<text text-anchor="start" x="86.62" y="-3238.22" font-family="sans-serif" font-size="32.00">Coal Mine</text>
<text text-anchor="start" x="21" y="-3212.38" font-family="sans-serif" font-size="20.00">Requires Engineering Supplies</text>
</a>
</g>
</g>
<!-- I_coal_mine&#45;&gt;C_coal -->
<g id="edge20" class="edge">
<title>I_coal_mine&#45;&gt;C_coal</title>
<g id="a_edge20"><a xlink:title="Coal Mine &#45;&gt; Coal">
<path fill="none" stroke="#a86052" stroke-width="5" d="M317.67,-3219.9C365.09,-3188.89 412.4,-3157.96 442.23,-3138.45"/>
</a>
</g>
</g>
<!-- I_dairy_farm -->
<g id="dairy_farm" class="node">
<title>I_dairy_farm</title>
<g id="a_dairy_farm"><a xlink:href="industries.html#dairy_farm" xlink:title="Dairy Farm" target="_top">
<polygon fill="white" stroke="none" points="641.75,-1479.38 641.75,-1716.62 943.75,-1716.62 943.75,-1479.38 641.75,-1479.38"/>
<polygon fill="none" stroke="#c1cdcd" points="641.75,-1549.62 641.75,-1716.62 943.75,-1716.62 943.75,-1549.62 641.75,-1549.62"/>
<image xlink:href="static/img/industries/dairy_farm.png" width="300px" height="165px" preserveAspectRatio="xMinYMin meet" x="642.75" y="-1715.62"/>
<polygon fill="none" stroke="#c1cdcd" points="641.75,-1479.38 641.75,-1549.62 943.75,-1549.62 943.75,-1479.38 641.75,-1479.38"/>
<polygon fill="ghostwhite" stroke="none" points="642.75,-1480.38 642.75,-1548.62 942.75,-1548.62 942.75,-1480.38 642.75,-1480.38"/>
<text text-anchor="start" x="713.62" y="-1513.22" font-family="sans-serif" font-size="32.00">Dairy Farm</text>
<text text-anchor="start" x="685.5" y="-1487.38" font-family="sans-serif" font-size="20.00">Requires Farm Supplies</text>
</a>
</g>
</g>
<!-- I_dairy_farm&#45;&gt;C_livestock -->
<g id="edge22" class="edge">
<title>I_dairy_farm&#45;&gt;C_livestock</title>
<g id="a_edge22"><a xlink:title="Dairy Farm &#45;&gt; Livestock">
<path fill="none" stroke="#004ca8" stroke-width="5" d="M951.36,-1518.52C991.03,-1498.51 1030.25,-1478.73 1058.31,-1464.58"/>
</a>
</g>
</g>
<!-- I_dairy_farm&#45;&gt;C_milk -->
<g id="edge23" class="edge">
<title>I_dairy_farm&#45;&gt;C_milk</title>
<g id="a_edge23"><a xlink:title="Dairy Farm &#45;&gt; Milk">
<path fill="none" stroke="#505050" stroke-width="5" d="M951.36,-1598C993.65,-1598 1035.44,-1598 1063.73,-1598"/>
</a>
</g>
</g>
<!-- I_dredging_site -->
<g id="dredging_site" class="node">
<title>I_dredging_site</title>
<g id="a_dredging_site"><a xlink:href="industries.html#dredging_site" xlink:title="Dredging Site" target="_top">
<polygon fill="white" stroke="none" points="641.75,-2601.38 641.75,-2838.62 943.75,-2838.62 943.75,-2601.38 641.75,-2601.38"/>
<polygon fill="none" stroke="#c1cdcd" points="641.75,-2671.62 641.75,-2838.62 943.75,-2838.62 943.75,-2671.62 641.75,-2671.62"/>
<image xlink:href="static/img/industries/dredging_site.png" width="300px" height="165px" preserveAspectRatio="xMinYMin meet" x="642.75" y="-2837.62"/>
<polygon fill="none" stroke="#c1cdcd" points="641.75,-2601.38 641.75,-2671.62 943.75,-2671.62 943.75,-2601.38 641.75,-2601.38"/>
<polygon fill="ghostwhite" stroke="none" points="642.75,-2602.38 642.75,-2670.62 942.75,-2670.62 942.75,-2602.38 642.75,-2602.38"/>
<text text-anchor="start" x="695.62" y="-2635.22" font-family="sans-serif" font-size="32.00">Dredging Site</text>
<text text-anchor="start" x="654.75" y="-2609.38" font-family="sans-serif" font-size="20.00">Requires Engineering Supplies</text>
</a>
</g>
</g>
<!-- I_dredging_site&#45;&gt;C_sand -->
<g id="edge24" class="edge">
<title>I_dredging_site&#45;&gt;C_sand</title>
<g id="a_edge24"><a xlink:title="Dredging Site &#45;&gt; Sand">
<path fill="none" stroke="#468fa8" stroke-width="5" d="M951.36,-2723.1C989.13,-2723.84 1026.5,-2724.57 1054.21,-2725.12"/>
</a>
</g>
</g>
<!-- I_fishing_grounds -->
<g id="fishing_grounds" class="node">
<title>I_fishing_grounds</title>
<g id="a_fishing_grounds"><a xlink:href="industries.html#fishing_grounds" xlink:title="Fishing Grounds" target="_top">
<polygon fill="white" stroke="none" points="641.75,-1902.38 641.75,-2113.62 943.75,-2113.62 943.75,-1902.38 641.75,-1902.38"/>
<polygon fill="none" stroke="#c1cdcd" points="641.75,-1946.62 641.75,-2113.62 943.75,-2113.62 943.75,-1946.62 641.75,-1946.62"/>
<image xlink:href="static/img/industries/fishing_grounds.png" width="300px" height="165px" preserveAspectRatio="xMinYMin meet" x="642.75" y="-2112.62"/>
<polygon fill="none" stroke="#c1cdcd" points="641.75,-1902.38 641.75,-1946.62 943.75,-1946.62 943.75,-1902.38 641.75,-1902.38"/>
<polygon fill="ghostwhite" stroke="none" points="642.75,-1903.38 642.75,-1945.62 942.75,-1945.62 942.75,-1903.38 642.75,-1903.38"/>
<text text-anchor="start" x="675.38" y="-1910.22" font-family="sans-serif" font-size="32.00">Fishing Grounds</text>
</a>
</g>
</g>
<!-- I_fishing_grounds&#45;&gt;C_fish -->
<g id="edge25" class="edge">
<title>I_fishing_grounds&#45;&gt;C_fish</title>
<g id="a_edge25"><a xlink:title="Fishing Grounds &#45;&gt; Fish">
<path fill="none" stroke="#5d45a8" stroke-width="5" d="M951.36,-2008C992.63,-2008 1033.42,-2008 1061.66,-2008"/>
</a>
</g>
</g>
<!-- I_iron_ore_mine -->
<g id="iron_ore_mine" class="node">
<title>I_iron_ore_mine</title>
<g id="a_iron_ore_mine"><a xlink:href="industries.html#iron_ore_mine" xlink:title="Iron Ore Mine" target="_top">
<polygon fill="white" stroke="none" points="8,-2896.38 8,-3133.62 310,-3133.62 310,-2896.38 8,-2896.38"/>
<polygon fill="none" stroke="#c1cdcd" points="8,-2966.62 8,-3133.62 310,-3133.62 310,-2966.62 8,-2966.62"/>
<image xlink:href="static/img/industries/iron_ore_mine.png" width="300px" height="165px" preserveAspectRatio="xMinYMin meet" x="9" y="-3132.62"/>
<polygon fill="none" stroke="#c1cdcd" points="8,-2896.38 8,-2966.62 310,-2966.62 310,-2896.38 8,-2896.38"/>
<polygon fill="ghostwhite" stroke="none" points="9,-2897.38 9,-2965.62 309,-2965.62 309,-2897.38 9,-2897.38"/>
<text text-anchor="start" x="60.75" y="-2930.22" font-family="sans-serif" font-size="32.00">Iron Ore Mine</text>
<text text-anchor="start" x="21" y="-2904.38" font-family="sans-serif" font-size="20.00">Requires Engineering Supplies</text>
</a>
</g>
</g>
<!-- I_iron_ore_mine&#45;&gt;C_iron_ore -->
<g id="edge28" class="edge">
<title>I_iron_ore_mine&#45;&gt;C_iron_ore</title>
<g id="a_edge28"><a xlink:title="Iron Ore Mine &#45;&gt; Iron Ore">
<path fill="none" stroke="#74581c" stroke-width="5" d="M317.67,-3015C349.38,-3015 381.05,-3015 407.47,-3015"/>
</a>
</g>
</g>
<!-- I_orchard_piggery -->
<g id="orchard_piggery" class="node">
<title>I_orchard_piggery</title>
<g id="a_orchard_piggery"><a xlink:href="industries.html#orchard_piggery" xlink:title="Orchard and Piggery" target="_top">
<polygon fill="white" stroke="none" points="639,-1171.38 639,-1408.62 946.5,-1408.62 946.5,-1171.38 639,-1171.38"/>
<polygon fill="none" stroke="#c1cdcd" points="639,-1241.62 639,-1408.62 946.5,-1408.62 946.5,-1241.62 639,-1241.62"/>
<image xlink:href="static/img/industries/orchard_piggery.png" width="305.5px" height="165px" preserveAspectRatio="xMinYMin meet" x="640" y="-1407.62"/>
<polygon fill="none" stroke="#c1cdcd" points="639,-1171.38 639,-1241.62 946.5,-1241.62 946.5,-1171.38 639,-1171.38"/>
<polygon fill="ghostwhite" stroke="none" points="640,-1172.38 640,-1240.62 945.5,-1240.62 945.5,-1172.38 640,-1172.38"/>
<text text-anchor="start" x="645" y="-1205.22" font-family="sans-serif" font-size="32.00">Orchard and Piggery</text>
<text text-anchor="start" x="685.5" y="-1179.38" font-family="sans-serif" font-size="20.00">Requires Farm Supplies</text>
</a>
</g>
</g>
<!-- I_orchard_piggery&#45;&gt;C_fruits -->
<g id="edge30" class="edge">
<title>I_orchard_piggery&#45;&gt;C_fruits</title>
<g id="a_edge30"><a xlink:title="Orchard and Piggery &#45;&gt; Fruit">
<path fill="none" stroke="#a88000" stroke-width="5" d="M954.49,-1290C993.86,-1290 1032.51,-1290 1059.94,-1290"/>
</a>
</g>
</g>
<!-- I_orchard_piggery&#45;&gt;C_livestock -->
<g id="edge31" class="edge">
<title>I_orchard_piggery&#45;&gt;C_livestock</title>
<g id="a_edge31"><a xlink:title="Orchard and Piggery &#45;&gt; Livestock">
<path fill="none" stroke="#004ca8" stroke-width="5" d="M954.49,-1371.06C993.14,-1390.55 1031.1,-1409.7 1058.43,-1423.48"/>
</a>
</g>
</g>
<!-- I_scrap_yard -->
<g id="scrap_yard" class="node">
<title>I_scrap_yard</title>
<g id="a_scrap_yard"><a xlink:href="industries.html#scrap_yard" xlink:title="Scrap Yard" target="_top">
<polygon fill="white" stroke="none" points="8,-2614.38 8,-2825.62 310,-2825.62 310,-2614.38 8,-2614.38"/>
<polygon fill="none" stroke="#c1cdcd" points="8,-2658.62 8,-2825.62 310,-2825.62 310,-2658.62 8,-2658.62"/>
<image xlink:href="static/img/industries/scrap_yard.png" width="300px" height="165px" preserveAspectRatio="xMinYMin meet" x="9" y="-2824.62"/>
<polygon fill="none" stroke="#c1cdcd" points="8,-2614.38 8,-2658.62 310,-2658.62 310,-2614.38 8,-2614.38"/>
<polygon fill="ghostwhite" stroke="none" points="9,-2615.38 9,-2657.62 309,-2657.62 309,-2615.38 9,-2615.38"/>
<text text-anchor="start" x="80.62" y="-2622.22" font-family="sans-serif" font-size="32.00">Scrap Yard</text>
</a>
</g>
</g>
<!-- I_scrap_yard&#45;&gt;C_scrap_metal -->
<g id="edge33" class="edge">
<title>I_scrap_yard&#45;&gt;C_scrap_metal</title>
<g id="a_edge33"><a xlink:title="Scrap Yard &#45;&gt; Scrap Metal">
<path fill="none" stroke="#a85050" stroke-width="5" d="M317.67,-2816.56C363.87,-2844.86 409.96,-2873.09 439.9,-2891.42"/>
</a>
</g>
</g>
</g>
</svg>
