<?xml version="1.0" encoding="UTF-8" standalone="no"?>
<?xml-stylesheet href="static/css/cargoflow_styles.css" type="text/css"?>
<!DOCTYPE svg PUBLIC "-//W3C//DTD SVG 1.1//EN"
 "http://www.w3.org/Graphics/SVG/1.1/DTD/svg11.dtd">
<!-- Generated by graphviz version 12.1.2 (20240928.0832)
 -->
<!-- Title: tropic_basic Pages: 1 -->
<svg width="2911pt" height="2304pt"
 viewBox="0.00 0.00 2911.00 2303.62" xmlns="http://www.w3.org/2000/svg" xmlns:xlink="http://www.w3.org/1999/xlink">
<g id="page0,1_graph0" class="graph" transform="scale(1 1) rotate(0) translate(4 2299.62)">
<title>tropic_basic</title>
<g id="a_page0,1_graph0"><a xlink:title="Tropic Basic">
<polygon fill="white" stroke="none" points="-4,4 -4,-2299.62 2907,-2299.62 2907,4 -4,4"/>
</a>
</g>
<g id="clust1" class="cluster">
<title>cluster_town_industries</title>
<g id="a_clust1"><a xlink:title="Tropic Basic">
<polygon fill="#e0eeee" stroke="#e0eeee" stroke-width="5" points="2561,-8 2561,-1067 2895,-1067 2895,-8 2561,-8"/>
</a>
</g>
</g>
<g id="clust6" class="cluster">
<title>cluster_BASIC_TROPIC_0</title>
<g id="a_clust6"><a xlink:title="Tropic Basic">
<polygon fill="none" stroke="white" points="997.5,-724 997.5,-883 1197.5,-883 1197.5,-724 997.5,-724"/>
</a>
</g>
</g>
<g id="clust7" class="cluster">
<title>cluster_BASIC_TROPIC_1</title>
<g id="a_clust7"><a xlink:title="Tropic Basic">
<polygon fill="none" stroke="white" points="384.25,-525 384.25,-684 526.5,-684 526.5,-525 384.25,-525"/>
</a>
</g>
</g>
<g id="clust8" class="cluster">
<title>cluster_BASIC_TROPIC_2</title>
<g id="a_clust8"><a xlink:title="Tropic Basic">
<polygon fill="none" stroke="white" points="394,-1786 394,-1945 516.75,-1945 516.75,-1786 394,-1786"/>
</a>
</g>
</g>
<g id="clust9" class="cluster">
<title>cluster_BASIC_TROPIC_3</title>
<g id="a_clust9"><a xlink:title="Tropic Basic">
<polygon fill="none" stroke="white" points="1723.62,-1031 1723.62,-1396 1861.38,-1396 1861.38,-1031 1723.62,-1031"/>
</a>
</g>
</g>
<!-- I_general_store -->
<g id="general_store" class="node">
<title>I_general_store</title>
<g id="a_general_store"><a xlink:href="industries.html#general_store" xlink:title="General Store" target="_top">
<polygon fill="white" stroke="none" points="2577,-20.38 2577,-309.62 2879,-309.62 2879,-20.38 2577,-20.38"/>
<polygon fill="none" stroke="#c1cdcd" points="2577,-142.62 2577,-309.62 2879,-309.62 2879,-142.62 2577,-142.62"/>
<image xlink:href="static/img/industries/general_store.png" width="300px" height="165px" preserveAspectRatio="xMinYMin meet" x="2578" y="-308.625"/>
<polygon fill="none" stroke="#c1cdcd" points="2577,-20.38 2577,-142.62 2879,-142.62 2879,-20.38 2577,-20.38"/>
<polygon fill="ghostwhite" stroke="none" points="2578,-21.38 2578,-141.62 2878,-141.62 2878,-21.38 2578,-21.38"/>
<text text-anchor="start" x="2628.25" y="-106.22" font-family="sans-serif" font-size="32.00">General Store</text>
<text text-anchor="start" x="2652.62" y="-80.38" font-family="sans-serif" font-size="20.00">Requires Alcohol</text>
<text text-anchor="start" x="2662.38" y="-54.38" font-family="sans-serif" font-size="20.00">Requires Food</text>
<text text-anchor="start" x="2655.62" y="-28.38" font-family="sans-serif" font-size="20.00">Requires Goods</text>
</a>
</g>
</g>
<!-- I_hotel -->
<g id="hotel" class="node">
<title>I_hotel</title>
<g id="a_hotel"><a xlink:href="industries.html#hotel" xlink:title="Hotel" target="_top">
<polygon fill="white" stroke="none" points="2577,-380.38 2577,-669.62 2879,-669.62 2879,-380.38 2577,-380.38"/>
<polygon fill="none" stroke="#c1cdcd" points="2577,-502.62 2577,-669.62 2879,-669.62 2879,-502.62 2577,-502.62"/>
<image xlink:href="static/img/industries/hotel.png" width="300px" height="165px" preserveAspectRatio="xMinYMin meet" x="2578" y="-668.625"/>
<polygon fill="none" stroke="#c1cdcd" points="2577,-380.38 2577,-502.62 2879,-502.62 2879,-380.38 2577,-380.38"/>
<polygon fill="ghostwhite" stroke="none" points="2578,-381.38 2578,-501.62 2878,-501.62 2878,-381.38 2578,-381.38"/>
<text text-anchor="start" x="2690.5" y="-466.23" font-family="sans-serif" font-size="32.00">Hotel</text>
<text text-anchor="start" x="2652.62" y="-440.38" font-family="sans-serif" font-size="20.00">Requires Alcohol</text>
<text text-anchor="start" x="2662.38" y="-414.38" font-family="sans-serif" font-size="20.00">Requires Food</text>
<text text-anchor="start" x="2632.38" y="-388.38" font-family="sans-serif" font-size="20.00">Requires Passengers</text>
</a>
</g>
</g>
<!-- I_plaza -->
<g id="plaza" class="node">
<title>I_plaza</title>
<g id="a_plaza"><a xlink:href="industries.html#plaza" xlink:title="Plaza" target="_top">
<polygon fill="white" stroke="none" points="2577,-740.38 2577,-951.62 2879,-951.62 2879,-740.38 2577,-740.38"/>
<polygon fill="none" stroke="#c1cdcd" points="2577,-784.62 2577,-951.62 2879,-951.62 2879,-784.62 2577,-784.62"/>
<image xlink:href="static/img/industries/plaza.png" width="300px" height="165px" preserveAspectRatio="xMinYMin meet" x="2578" y="-950.625"/>
<polygon fill="none" stroke="#c1cdcd" points="2577,-740.38 2577,-784.62 2879,-784.62 2879,-740.38 2577,-740.38"/>
<polygon fill="ghostwhite" stroke="none" points="2578,-741.38 2578,-783.62 2878,-783.62 2878,-741.38 2578,-741.38"/>
<text text-anchor="start" x="2688.25" y="-748.23" font-family="sans-serif" font-size="32.00">Plaza</text>
</a>
</g>
</g>
<!-- T_town_industries -->
<g id="node4" class="node">
<title>T_town_industries</title>
<text text-anchor="middle" x="2728" y="-1024.72" font-family="sans-serif" font-size="32.00">Town Industries</text>
</g>
<!-- I_arable_farm -->
<g id="arable_farm" class="node">
<title>I_arable_farm</title>
<g id="a_arable_farm"><a xlink:href="industries.html#arable_farm" xlink:title="Arable Farm" target="_top">
<polygon fill="white" stroke="none" points="8,-1967.38 8,-2204.62 310,-2204.62 310,-1967.38 8,-1967.38"/>
<polygon fill="none" stroke="#c1cdcd" points="8,-2037.62 8,-2204.62 310,-2204.62 310,-2037.62 8,-2037.62"/>
<image xlink:href="static/img/industries/arable_farm.png" width="300px" height="165px" preserveAspectRatio="xMinYMin meet" x="9" y="-2203.62"/>
<polygon fill="none" stroke="#c1cdcd" points="8,-1967.38 8,-2037.62 310,-2037.62 310,-1967.38 8,-1967.38"/>
<polygon fill="ghostwhite" stroke="none" points="9,-1968.38 9,-2036.62 309,-2036.62 309,-1968.38 9,-1968.38"/>
<text text-anchor="start" x="70.88" y="-2001.22" font-family="sans-serif" font-size="32.00">Arable Farm</text>
<text text-anchor="start" x="51.75" y="-1975.38" font-family="sans-serif" font-size="20.00">Requires Farm Supplies</text>
</a>
</g>
</g>
<!-- C_beans -->
<g id="beans" class="node">
<title>C_beans</title>
<g id="a_beans"><a xlink:href="cargos.html#beans" xlink:title="Beans" target="_top">
<polygon fill="#602c03" stroke="#602c03" points="508.75,-1937.12 402,-1937.12 402,-1896.88 508.75,-1896.88 508.75,-1937.12"/>
<text text-anchor="middle" x="455.38" y="-1902.72" font-family="sans-serif" font-size="32.00" fill="white">Beans</text>
</a>
</g>
</g>
<!-- I_arable_farm&#45;&gt;C_beans -->
<g id="edge19" class="edge">
<title>I_arable_farm&#45;&gt;C_beans</title>
<g id="a_edge19"><a xlink:title="Arable Farm &#45;&gt; Beans">
<path fill="none" stroke="#602c03" stroke-width="5" d="M317.96,-1995.32C355.88,-1973.55 392.84,-1952.33 418.7,-1937.48"/>
</a>
</g>
</g>
<!-- C_grain -->
<g id="grain" class="node">
<title>C_grain</title>
<g id="a_grain"><a xlink:href="cargos.html#grain" xlink:title="Grain" target="_top">
<polygon fill="#505050" stroke="#505050" points="502.38,-2106.12 408.38,-2106.12 408.38,-2065.88 502.38,-2065.88 502.38,-2106.12"/>
<text text-anchor="middle" x="455.38" y="-2071.72" font-family="sans-serif" font-size="32.00" fill="white">Grain</text>
</a>
</g>
</g>
<!-- I_arable_farm&#45;&gt;C_grain -->
<g id="edge20" class="edge">
<title>I_arable_farm&#45;&gt;C_grain</title>
<g id="a_edge20"><a xlink:title="Arable Farm &#45;&gt; Grain">
<path fill="none" stroke="#505050" stroke-width="5" d="M317.96,-2086C350.97,-2086 383.25,-2086 408.11,-2086"/>
</a>
</g>
</g>
<!-- I_coffee_estate -->
<g id="coffee_estate" class="node">
<title>I_coffee_estate</title>
<g id="a_coffee_estate"><a xlink:href="industries.html#coffee_estate" xlink:title="Coffee Estate" target="_top">
<polygon fill="white" stroke="none" points="8,-1351.38 8,-1588.62 310,-1588.62 310,-1351.38 8,-1351.38"/>
<polygon fill="none" stroke="#c1cdcd" points="8,-1421.62 8,-1588.62 310,-1588.62 310,-1421.62 8,-1421.62"/>
<image xlink:href="static/img/industries/coffee_estate.png" width="300px" height="165px" preserveAspectRatio="xMinYMin meet" x="9" y="-1587.62"/>
<polygon fill="none" stroke="#c1cdcd" points="8,-1351.38 8,-1421.62 310,-1421.62 310,-1351.38 8,-1351.38"/>
<polygon fill="ghostwhite" stroke="none" points="9,-1352.38 9,-1420.62 309,-1420.62 309,-1352.38 9,-1352.38"/>
<text text-anchor="start" x="62.25" y="-1385.22" font-family="sans-serif" font-size="32.00">Coffee Estate</text>
<text text-anchor="start" x="51.75" y="-1359.38" font-family="sans-serif" font-size="20.00">Requires Farm Supplies</text>
</a>
</g>
</g>
<!-- C_fruits -->
<g id="fruits" class="node">
<title>C_fruits</title>
<g id="a_fruits"><a xlink:href="cargos.html#fruits" xlink:title="Fruit" target="_top">
<polygon fill="#004ca8" stroke="#004ca8" points="495.25,-1834.12 415.5,-1834.12 415.5,-1793.88 495.25,-1793.88 495.25,-1834.12"/>
<text text-anchor="middle" x="455.38" y="-1799.72" font-family="sans-serif" font-size="32.00" fill="white">Fruit</text>
</a>
</g>
</g>
<!-- I_coffee_estate&#45;&gt;C_fruits -->
<g id="edge23" class="edge">
<title>I_coffee_estate&#45;&gt;C_fruits</title>
<g id="a_edge23"><a xlink:title="Coffee Estate &#45;&gt; Fruit">
<path fill="none" stroke="#004ca8" stroke-width="5" d="M289.58,-1592.56C299.42,-1602.99 309.01,-1613.55 318,-1624 367.91,-1682.02 418.26,-1757.61 441.34,-1793.44"/>
</a>
</g>
</g>
<!-- C_coffee -->
<g id="coffee" class="node">
<title>C_coffee</title>
<g id="a_coffee"><a xlink:href="cargos.html#coffee" xlink:title="Coffee" target="_top">
<polygon fill="#347084" stroke="#347084" points="1847.38,-1285.12 1737.62,-1285.12 1737.62,-1244.88 1847.38,-1244.88 1847.38,-1285.12"/>
<text text-anchor="middle" x="1792.5" y="-1250.72" font-family="sans-serif" font-size="32.00" fill="white">Coffee</text>
</a>
</g>
</g>
<!-- I_coffee_estate&#45;&gt;C_coffee -->
<g id="edge22" class="edge">
<title>I_coffee_estate&#45;&gt;C_coffee</title>
<g id="a_edge22"><a xlink:title="Coffee Estate &#45;&gt; Coffee">
<path fill="none" stroke="#347084" stroke-width="5" d="M317.76,-1377.86C338.58,-1368.07 359.99,-1359.11 381,-1352 545.5,-1296.35 592.96,-1289 766.62,-1289 766.62,-1289 766.62,-1289 1098.5,-1289 1336.56,-1289 1620.35,-1274.68 1737.17,-1268.16"/>
</a>
</g>
</g>
<!-- I_nitrate_mine -->
<g id="nitrate_mine" class="node">
<title>I_nitrate_mine</title>
<g id="a_nitrate_mine"><a xlink:href="industries.html#nitrate_mine" xlink:title="Nitrate Mine" target="_top">
<polygon fill="white" stroke="none" points="8,-524.38 8,-787.62 310,-787.62 310,-524.38 8,-524.38"/>
<polygon fill="none" stroke="#c1cdcd" points="8,-620.62 8,-787.62 310,-787.62 310,-620.62 8,-620.62"/>
<image xlink:href="static/img/industries/nitrate_mine.png" width="300px" height="165px" preserveAspectRatio="xMinYMin meet" x="9" y="-786.625"/>
<polygon fill="none" stroke="#c1cdcd" points="8,-524.38 8,-620.62 310,-620.62 310,-524.38 8,-524.38"/>
<polygon fill="ghostwhite" stroke="none" points="9,-525.38 9,-619.62 309,-619.62 309,-525.38 9,-525.38"/>
<text text-anchor="start" x="72.38" y="-584.23" font-family="sans-serif" font-size="32.00">Nitrate Mine</text>
<text text-anchor="start" x="21" y="-558.38" font-family="sans-serif" font-size="20.00">Requires Engineering Supplies</text>
<text text-anchor="start" x="49.5" y="-532.38" font-family="sans-serif" font-size="20.00">Produces Farm Supplies</text>
</a>
</g>
</g>
<!-- C_nitrates -->
<g id="nitrates" class="node">
<title>C_nitrates</title>
<g id="a_nitrates"><a xlink:href="cargos.html#nitrates" xlink:title="Nitrates" target="_top">
<polygon fill="#a85050" stroke="#a85050" points="518.5,-676.12 392.25,-676.12 392.25,-635.88 518.5,-635.88 518.5,-676.12"/>
<text text-anchor="middle" x="455.38" y="-641.73" font-family="sans-serif" font-size="32.00" fill="white">Nitrates</text>
</a>
</g>
</g>
<!-- I_nitrate_mine&#45;&gt;C_nitrates -->
<g id="edge30" class="edge">
<title>I_nitrate_mine&#45;&gt;C_nitrates</title>
<g id="a_edge30"><a xlink:title="Nitrate Mine &#45;&gt; Nitrates">
<path fill="none" stroke="#a85050" stroke-width="5" d="M317.96,-656C344.15,-656 369.88,-656 391.81,-656"/>
</a>
</g>
</g>
<!-- I_ranch -->
<g id="ranch" class="node">
<title>I_ranch</title>
<g id="a_ranch"><a xlink:href="industries.html#ranch" xlink:title="Ranch" target="_top">
<polygon fill="white" stroke="none" points="8,-1043.38 8,-1280.62 310,-1280.62 310,-1043.38 8,-1043.38"/>
<polygon fill="none" stroke="#c1cdcd" points="8,-1113.62 8,-1280.62 310,-1280.62 310,-1113.62 8,-1113.62"/>
<image xlink:href="static/img/industries/ranch.png" width="300px" height="165px" preserveAspectRatio="xMinYMin meet" x="9" y="-1279.62"/>
<polygon fill="none" stroke="#c1cdcd" points="8,-1043.38 8,-1113.62 310,-1113.62 310,-1043.38 8,-1043.38"/>
<polygon fill="ghostwhite" stroke="none" points="9,-1044.38 9,-1112.62 309,-1112.62 309,-1044.38 9,-1044.38"/>
<text text-anchor="start" x="112.5" y="-1077.22" font-family="sans-serif" font-size="32.00">Ranch</text>
<text text-anchor="start" x="51.75" y="-1051.38" font-family="sans-serif" font-size="20.00">Requires Farm Supplies</text>
</a>
</g>
</g>
<!-- C_wool -->
<g id="wool" class="node">
<title>C_wool</title>
<g id="a_wool"><a xlink:href="cargos.html#wool" xlink:title="Wool" target="_top">
<polygon fill="#a8926d" stroke="#a8926d" points="1836.5,-1182.12 1748.5,-1182.12 1748.5,-1141.88 1836.5,-1141.88 1836.5,-1182.12"/>
<text text-anchor="middle" x="1792.5" y="-1147.72" font-family="sans-serif" font-size="32.00" fill="white">Wool</text>
</a>
</g>
</g>
<!-- I_ranch&#45;&gt;C_wool -->
<g id="edge34" class="edge">
<title>I_ranch&#45;&gt;C_wool</title>
<g id="a_edge34"><a xlink:title="Ranch &#45;&gt; Wool">
<path fill="none" stroke="#a8926d" stroke-width="5" d="M317.75,-1162C440.18,-1162 614.18,-1162 766.62,-1162 766.62,-1162 766.62,-1162 1098.5,-1162 1344.24,-1162 1638.99,-1162 1748.12,-1162"/>
</a>
</g>
</g>
<!-- C_livestock -->
<g id="livestock" class="node">
<title>C_livestock</title>
<g id="a_livestock"><a xlink:href="cargos.html#livestock" xlink:title="Livestock" target="_top">
<polygon fill="#468fa8" stroke="#468fa8" points="529.75,-1424.12 381,-1424.12 381,-1383.88 529.75,-1383.88 529.75,-1424.12"/>
<text text-anchor="middle" x="455.38" y="-1389.72" font-family="sans-serif" font-size="32.00" fill="white">Livestock</text>
</a>
</g>
</g>
<!-- I_ranch&#45;&gt;C_livestock -->
<g id="edge33" class="edge">
<title>I_ranch&#45;&gt;C_livestock</title>
<g id="a_edge33"><a xlink:title="Ranch &#45;&gt; Livestock">
<path fill="none" stroke="#468fa8" stroke-width="5" d="M308.91,-1284.42C355.54,-1322.75 401.95,-1360.9 429.39,-1383.46"/>
</a>
</g>
</g>
<!-- I_flour_mill -->
<g id="flour_mill" class="node">
<title>I_flour_mill</title>
<g id="a_flour_mill"><a xlink:href="industries.html#flour_mill" xlink:title="Flour Mill" target="_top">
<polygon fill="white" stroke="none" points="616.62,-2080.38 616.62,-2291.62 918.62,-2291.62 918.62,-2080.38 616.62,-2080.38"/>
<polygon fill="none" stroke="#c1cdcd" points="616.62,-2124.62 616.62,-2291.62 918.62,-2291.62 918.62,-2124.62 616.62,-2124.62"/>
<image xlink:href="static/img/industries/flour_mill.png" width="300px" height="165px" preserveAspectRatio="xMinYMin meet" x="617.625" y="-2290.62"/>
<polygon fill="none" stroke="#c1cdcd" points="616.62,-2080.38 616.62,-2124.62 918.62,-2124.62 918.62,-2080.38 616.62,-2080.38"/>
<polygon fill="ghostwhite" stroke="none" points="617.62,-2081.38 617.62,-2123.62 917.62,-2123.62 917.62,-2081.38 617.62,-2081.38"/>
<text text-anchor="start" x="703.12" y="-2088.22" font-family="sans-serif" font-size="32.00">Flour Mill</text>
</a>
</g>
</g>
<!-- C_food -->
<g id="food" class="node">
<title>C_food</title>
<g id="a_food"><a xlink:href="cargos.html#food" xlink:title="Food" target="_top">
<polygon fill="#a84800" stroke="#a84800" points="2218.25,-1528.12 2128.75,-1528.12 2128.75,-1487.88 2218.25,-1487.88 2218.25,-1528.12"/>
<text text-anchor="middle" x="2173.5" y="-1493.72" font-family="sans-serif" font-size="32.00" fill="white">Food</text>
</a>
</g>
</g>
<!-- I_flour_mill&#45;&gt;C_food -->
<g id="edge28" class="edge">
<title>I_flour_mill&#45;&gt;C_food</title>
<g id="a_edge28"><a xlink:title="Flour Mill &#45;&gt; Food">
<path fill="none" stroke="#a84800" stroke-width="5" d="M926.61,-2143.11C1161.97,-2074.86 1613.21,-1927.04 1951.5,-1713 2037.52,-1658.58 2120.4,-1568.52 2155.26,-1528.39"/>
</a>
</g>
</g>
<!-- I_food_processor -->
<g id="food_processor" class="node">
<title>I_food_processor</title>
<g id="a_food_processor"><a xlink:href="industries.html#food_processor" xlink:title="Food Processing Plant" target="_top">
<polygon fill="white" stroke="none" points="600.75,-1798.38 600.75,-2009.62 934.5,-2009.62 934.5,-1798.38 600.75,-1798.38"/>
<polygon fill="none" stroke="#c1cdcd" points="600.75,-1842.62 600.75,-2009.62 934.5,-2009.62 934.5,-1842.62 600.75,-1842.62"/>
<image xlink:href="static/img/industries/food_processor.png" width="331.75px" height="165px" preserveAspectRatio="xMinYMin meet" x="601.75" y="-2008.62"/>
<polygon fill="none" stroke="#c1cdcd" points="600.75,-1798.38 600.75,-1842.62 934.5,-1842.62 934.5,-1798.38 600.75,-1798.38"/>
<polygon fill="ghostwhite" stroke="none" points="601.75,-1799.38 601.75,-1841.62 933.5,-1841.62 933.5,-1799.38 601.75,-1799.38"/>
<text text-anchor="start" x="606.75" y="-1806.22" font-family="sans-serif" font-size="32.00">Food Processing Plant</text>
</a>
</g>
</g>
<!-- I_food_processor&#45;&gt;C_food -->
<g id="edge29" class="edge">
<title>I_food_processor&#45;&gt;C_food</title>
<g id="a_edge29"><a xlink:title="Food Processing Plant &#45;&gt; Food">
<path fill="none" stroke="#a84800" stroke-width="5" d="M942.49,-1879.11C1106.4,-1853.45 1357.94,-1808.39 1570.5,-1746 1785.36,-1682.93 2030.44,-1573.86 2128.54,-1528.6"/>
</a>
</g>
</g>
<!-- I_stockyard -->
<g id="stockyard" class="node">
<title>I_stockyard</title>
<g id="a_stockyard"><a xlink:href="industries.html#stockyard" xlink:title="Stockyard" target="_top">
<polygon fill="white" stroke="none" points="616.62,-1388.38 616.62,-1599.62 918.62,-1599.62 918.62,-1388.38 616.62,-1388.38"/>
<polygon fill="none" stroke="#c1cdcd" points="616.62,-1432.62 616.62,-1599.62 918.62,-1599.62 918.62,-1432.62 616.62,-1432.62"/>
<image xlink:href="static/img/industries/stockyard.png" width="300px" height="165px" preserveAspectRatio="xMinYMin meet" x="617.625" y="-1598.62"/>
<polygon fill="none" stroke="#c1cdcd" points="616.62,-1388.38 616.62,-1432.62 918.62,-1432.62 918.62,-1388.38 616.62,-1388.38"/>
<polygon fill="ghostwhite" stroke="none" points="617.62,-1389.38 617.62,-1431.62 917.62,-1431.62 917.62,-1389.38 617.62,-1389.38"/>
<text text-anchor="start" x="696.75" y="-1396.22" font-family="sans-serif" font-size="32.00">Stockyard</text>
</a>
</g>
</g>
<!-- I_stockyard&#45;&gt;C_food -->
<g id="edge35" class="edge">
<title>I_stockyard&#45;&gt;C_food</title>
<g id="a_edge35"><a xlink:title="Stockyard &#45;&gt; Food">
<path fill="none" stroke="#a84800" stroke-width="5" d="M926.6,-1495.58C1244.27,-1498.74 1945.68,-1505.74 2128.32,-1507.56"/>
</a>
</g>
</g>
<!-- C_fish -->
<g id="fish" class="node">
<title>C_fish</title>
<g id="a_fish"><a xlink:href="cargos.html#fish" xlink:title="Fish" target="_top">
<polygon fill="#882034" stroke="#882034" points="2211.5,-2112.12 2135.5,-2112.12 2135.5,-2071.88 2211.5,-2071.88 2211.5,-2112.12"/>
<text text-anchor="middle" x="2173.5" y="-2077.72" font-family="sans-serif" font-size="32.00" fill="white">Fish</text>
</a>
</g>
</g>
<!-- I_fishing_harbour -->
<g id="fishing_harbour" class="node">
<title>I_fishing_harbour</title>
<g id="a_fishing_harbour"><a xlink:href="industries.html#fishing_harbour" xlink:title="Fishing Harbour" target="_top">
<polygon fill="white" stroke="none" points="2022.5,-1727.38 2022.5,-1938.62 2324.5,-1938.62 2324.5,-1727.38 2022.5,-1727.38"/>
<polygon fill="none" stroke="#c1cdcd" points="2022.5,-1771.62 2022.5,-1938.62 2324.5,-1938.62 2324.5,-1771.62 2022.5,-1771.62"/>
<image xlink:href="static/img/industries/fishing_harbour.png" width="300px" height="165px" preserveAspectRatio="xMinYMin meet" x="2023.5" y="-1937.62"/>
<polygon fill="none" stroke="#c1cdcd" points="2022.5,-1727.38 2022.5,-1771.62 2324.5,-1771.62 2324.5,-1727.38 2022.5,-1727.38"/>
<polygon fill="ghostwhite" stroke="none" points="2023.5,-1728.38 2023.5,-1770.62 2323.5,-1770.62 2323.5,-1728.38 2023.5,-1728.38"/>
<text text-anchor="start" x="2059.5" y="-1735.22" font-family="sans-serif" font-size="32.00">Fishing Harbour</text>
</a>
</g>
</g>
<!-- C_fish&#45;&gt;I_fishing_harbour -->
<g id="edge9" class="edge">
<title>C_fish&#45;&gt;I_fishing_harbour</title>
<g id="a_edge9"><a xlink:title="Fish &#45;&gt; Fishing Harbour">
<path fill="none" stroke="#882034" stroke-width="5" d="M2173.5,-2071.56C2173.5,-2037.29 2173.5,-2003.01 2173.5,-1968.73"/>
<polygon fill="#882034" stroke="#882034" stroke-width="5" points="2182.25,-1968.76 2173.5,-1948.76 2164.75,-1968.76 2182.25,-1968.76"/>
</a>
</g>
</g>
<!-- I_port -->
<g id="port" class="node">
<title>I_port</title>
<g id="a_port"><a xlink:href="industries.html#port" xlink:title="Port" target="_top">
<polygon fill="white" stroke="none" points="2022.5,-1030.38 2022.5,-1293.62 2324.5,-1293.62 2324.5,-1030.38 2022.5,-1030.38"/>
<polygon fill="none" stroke="#c1cdcd" points="2022.5,-1126.62 2022.5,-1293.62 2324.5,-1293.62 2324.5,-1126.62 2022.5,-1126.62"/>
<image xlink:href="static/img/industries/port.png" width="300px" height="165px" preserveAspectRatio="xMinYMin meet" x="2023.5" y="-1292.62"/>
<polygon fill="none" stroke="#c1cdcd" points="2022.5,-1030.38 2022.5,-1126.62 2324.5,-1126.62 2324.5,-1030.38 2022.5,-1030.38"/>
<polygon fill="ghostwhite" stroke="none" points="2023.5,-1031.38 2023.5,-1125.62 2323.5,-1125.62 2323.5,-1031.38 2023.5,-1031.38"/>
<text text-anchor="start" x="2144.25" y="-1090.22" font-family="sans-serif" font-size="32.00">Port</text>
<text text-anchor="start" x="2033.25" y="-1064.38" font-family="sans-serif" font-size="20.00">Produces Engineering Supplies</text>
<text text-anchor="start" x="2064" y="-1038.38" font-family="sans-serif" font-size="20.00">Produces Farm Supplies</text>
</a>
</g>
</g>
<!-- C_food&#45;&gt;I_port -->
<g id="edge10" class="edge">
<title>C_food&#45;&gt;I_port</title>
<g id="a_edge10"><a xlink:title="Food &#45;&gt; Port">
<path fill="none" stroke="#a84800" stroke-width="5" d="M2173.5,-1487.44C2173.5,-1432.78 2173.5,-1378.12 2173.5,-1323.46"/>
<polygon fill="#a84800" stroke="#a84800" stroke-width="5" points="2182.25,-1323.73 2173.5,-1303.73 2164.75,-1323.73 2182.25,-1323.73"/>
</a>
</g>
</g>
<!-- T_towns_food -->
<g id="node17" class="node">
<title>T_towns_food</title>
<polygon fill="none" stroke="#a84800" stroke-width="5" stroke-dasharray="5,2" points="2797.14,-1575.88 2658.86,-1575.88 2658.86,-1496.12 2797.14,-1496.12 2797.14,-1575.88"/>
<text text-anchor="middle" x="2728" y="-1521.72" font-family="sans-serif" font-size="32.00" fill="#a84800">Towns</text>
</g>
<!-- C_food&#45;&gt;T_towns_food -->
<g id="edge11" class="edge">
<title>C_food&#45;&gt;T_towns_food</title>
<path fill="none" stroke="#a84800" stroke-width="5" stroke-dasharray="5,2" d="M2218.32,-1510.22C2306.94,-1514.71 2509.33,-1524.97 2630.4,-1531.1"/>
<polygon fill="#a84800" stroke="#a84800" stroke-width="5" points="2629.75,-1539.83 2650.17,-1532.11 2630.64,-1522.36 2629.75,-1539.83"/>
</g>
<!-- I_fishing_harbour&#45;&gt;C_food -->
<g id="edge27" class="edge">
<title>I_fishing_harbour&#45;&gt;C_food</title>
<g id="a_edge27"><a xlink:title="Fishing Harbour &#45;&gt; Food">
<path fill="none" stroke="#a84800" stroke-width="5" d="M2173.5,-1723.5C2173.5,-1658.44 2173.5,-1593.38 2173.5,-1528.31"/>
</a>
</g>
</g>
<!-- C_goods -->
<g id="goods" class="node">
<title>C_goods</title>
<g id="a_goods"><a xlink:href="cargos.html#goods" xlink:title="Goods" target="_top">
<polygon fill="#a84b60" stroke="#a84b60" points="2506,-1182.12 2395.5,-1182.12 2395.5,-1141.88 2506,-1141.88 2506,-1182.12"/>
<text text-anchor="middle" x="2450.75" y="-1147.72" font-family="sans-serif" font-size="32.00" fill="white">Goods</text>
</a>
</g>
</g>
<!-- I_port&#45;&gt;C_goods -->
<g id="edge32" class="edge">
<title>I_port&#45;&gt;C_goods</title>
<g id="a_edge32"><a xlink:title="Port &#45;&gt; Goods">
<path fill="none" stroke="#a84b60" stroke-width="5" d="M2332.22,-1162C2354.8,-1162 2376.65,-1162 2395.25,-1162"/>
</a>
</g>
</g>
<!-- T_towns_alcohol -->
<g id="node16" class="node">
<title>T_towns_alcohol</title>
<polygon fill="none" stroke="#a80000" stroke-width="5" stroke-dasharray="5,2" points="2797.14,-1432.88 2658.86,-1432.88 2658.86,-1353.12 2797.14,-1353.12 2797.14,-1432.88"/>
<text text-anchor="middle" x="2728" y="-1378.72" font-family="sans-serif" font-size="32.00" fill="#a80000">Towns</text>
</g>
<!-- T_towns_goods -->
<g id="node18" class="node">
<title>T_towns_goods</title>
<polygon fill="none" stroke="#a84b60" stroke-width="5" stroke-dasharray="5,2" points="2797.14,-1201.88 2658.86,-1201.88 2658.86,-1122.12 2797.14,-1122.12 2797.14,-1201.88"/>
<text text-anchor="middle" x="2728" y="-1147.72" font-family="sans-serif" font-size="32.00" fill="#a84b60">Towns</text>
</g>
<!-- C_chemicals -->
<g id="chemicals" class="node">
<title>C_chemicals</title>
<g id="a_chemicals"><a xlink:href="cargos.html#chemicals" xlink:title="Chemicals" target="_top">
<polygon fill="#a86052" stroke="#a86052" points="1180.12,-772.12 1014.88,-772.12 1014.88,-731.88 1180.12,-731.88 1180.12,-772.12"/>
<text text-anchor="middle" x="1097.5" y="-737.73" font-family="sans-serif" font-size="32.00" fill="white">Chemicals</text>
</a>
</g>
</g>
<!-- C_chemicals&#45;&gt;I_port -->
<g id="edge5" class="edge">
<title>C_chemicals&#45;&gt;I_port</title>
<g id="a_edge5"><a xlink:title="Chemicals &#45;&gt; Port">
<path fill="none" stroke="#a86052" stroke-width="5" d="M1180.56,-754.51C1276.24,-759.38 1438.16,-773.74 1570.5,-816 1752.68,-874.17 1786.84,-918.72 1951.5,-1016 1965.08,-1024.02 1978.98,-1032.51 1992.88,-1041.2"/>
<polygon fill="#a86052" stroke="#a86052" stroke-width="5" points="1987.82,-1048.36 2009.4,-1051.65 1997.18,-1033.57 1987.82,-1048.36"/>
</a>
</g>
</g>
<!-- I_copper_smelter -->
<g id="copper_smelter" class="node">
<title>I_copper_smelter</title>
<g id="a_copper_smelter"><a xlink:href="industries.html#copper_smelter" xlink:title="Copper Smelter" target="_top">
<polygon fill="white" stroke="none" points="1260.5,-851.38 1260.5,-1062.62 1562.5,-1062.62 1562.5,-851.38 1260.5,-851.38"/>
<polygon fill="none" stroke="#c1cdcd" points="1260.5,-895.62 1260.5,-1062.62 1562.5,-1062.62 1562.5,-895.62 1260.5,-895.62"/>
<image xlink:href="static/img/industries/copper_smelter.png" width="300px" height="165px" preserveAspectRatio="xMinYMin meet" x="1261.5" y="-1061.62"/>
<polygon fill="none" stroke="#c1cdcd" points="1260.5,-851.38 1260.5,-895.62 1562.5,-895.62 1562.5,-851.38 1260.5,-851.38"/>
<polygon fill="ghostwhite" stroke="none" points="1261.5,-852.38 1261.5,-894.62 1561.5,-894.62 1561.5,-852.38 1261.5,-852.38"/>
<text text-anchor="start" x="1299" y="-859.23" font-family="sans-serif" font-size="32.00">Copper Smelter</text>
</a>
</g>
</g>
<!-- C_chemicals&#45;&gt;I_copper_smelter -->
<g id="edge4" class="edge">
<title>C_chemicals&#45;&gt;I_copper_smelter</title>
<g id="a_edge4"><a xlink:title="Chemicals &#45;&gt; Copper Smelter">
<path fill="none" stroke="#a86052" stroke-width="5" d="M1141.67,-772.47C1159.31,-781.29 1179.71,-792.07 1197.5,-803 1212.63,-812.29 1228.08,-822.32 1243.41,-832.64"/>
<polygon fill="#a86052" stroke="#a86052" stroke-width="5" points="1238.35,-839.78 1259.8,-843.86 1248.24,-825.34 1238.35,-839.78"/>
</a>
</g>
</g>
<!-- C_copper_ore -->
<g id="copper_ore" class="node">
<title>C_copper_ore</title>
<g id="a_copper_ore"><a xlink:href="cargos.html#copper_ore" xlink:title="Copper Ore" target="_top">
<polygon fill="#5d45a8" stroke="#5d45a8" points="1189.5,-875.12 1005.5,-875.12 1005.5,-834.88 1189.5,-834.88 1189.5,-875.12"/>
<text text-anchor="middle" x="1097.5" y="-840.73" font-family="sans-serif" font-size="32.00" fill="white">Copper Ore</text>
</a>
</g>
</g>
<!-- C_copper_ore&#45;&gt;I_copper_smelter -->
<g id="edge8" class="edge">
<title>C_copper_ore&#45;&gt;I_copper_smelter</title>
<g id="a_edge8"><a xlink:title="Copper Ore &#45;&gt; Copper Smelter">
<path fill="none" stroke="#5d45a8" stroke-width="5" d="M1161.26,-875.52C1181.11,-882.01 1204.14,-889.54 1228.02,-897.34"/>
<polygon fill="#5d45a8" stroke="#5d45a8" stroke-width="5" points="1224.95,-905.55 1246.68,-903.44 1230.39,-888.91 1224.95,-905.55"/>
</a>
</g>
</g>
<!-- I_chemical_plant -->
<g id="chemical_plant" class="node">
<title>I_chemical_plant</title>
<g id="a_chemical_plant"><a xlink:href="industries.html#chemical_plant" xlink:title="Chemical Plant" target="_top">
<polygon fill="white" stroke="none" points="616.62,-499.38 616.62,-710.62 918.62,-710.62 918.62,-499.38 616.62,-499.38"/>
<polygon fill="none" stroke="#c1cdcd" points="616.62,-543.62 616.62,-710.62 918.62,-710.62 918.62,-543.62 616.62,-543.62"/>
<image xlink:href="static/img/industries/chemical_plant.png" width="300px" height="165px" preserveAspectRatio="xMinYMin meet" x="617.625" y="-709.625"/>
<polygon fill="none" stroke="#c1cdcd" points="616.62,-499.38 616.62,-543.62 918.62,-543.62 918.62,-499.38 616.62,-499.38"/>
<polygon fill="ghostwhite" stroke="none" points="617.62,-500.38 617.62,-542.62 917.62,-542.62 917.62,-500.38 617.62,-500.38"/>
<text text-anchor="start" x="660" y="-507.23" font-family="sans-serif" font-size="32.00">Chemical Plant</text>
</a>
</g>
</g>
<!-- C_nitrates&#45;&gt;I_chemical_plant -->
<g id="edge16" class="edge">
<title>C_nitrates&#45;&gt;I_chemical_plant</title>
<g id="a_edge16"><a xlink:title="Nitrates &#45;&gt; Chemical Plant">
<path fill="none" stroke="#a85050" stroke-width="5" d="M518.79,-645.74C537.92,-642.6 560.02,-638.96 582.98,-635.19"/>
<polygon fill="#a85050" stroke="#a85050" stroke-width="5" points="584.18,-643.86 602.49,-631.98 581.34,-626.59 584.18,-643.86"/>
</a>
</g>
</g>
<!-- C_oil -->
<g id="oil" class="node">
<title>C_oil</title>
<g id="a_oil"><a xlink:href="cargos.html#oil" xlink:title="Oil" target="_top">
<polygon fill="#7d70a8" stroke="#7d70a8" points="482.5,-573.12 428.25,-573.12 428.25,-532.88 482.5,-532.88 482.5,-573.12"/>
<text text-anchor="middle" x="455.38" y="-538.73" font-family="sans-serif" font-size="32.00" fill="white">Oil</text>
</a>
</g>
</g>
<!-- C_oil&#45;&gt;I_chemical_plant -->
<g id="edge17" class="edge">
<title>C_oil&#45;&gt;I_chemical_plant</title>
<g id="a_edge17"><a xlink:title="Oil &#45;&gt; Chemical Plant">
<path fill="none" stroke="#7d70a8" stroke-width="5" d="M482.83,-557.43C506.56,-561.41 543.68,-567.63 583.33,-574.28"/>
<polygon fill="#7d70a8" stroke="#7d70a8" stroke-width="5" points="581.62,-582.86 602.8,-577.54 584.52,-565.61 581.62,-582.86"/>
</a>
</g>
</g>
<!-- C_beans&#45;&gt;I_food_processor -->
<g id="edge3" class="edge">
<title>C_beans&#45;&gt;I_food_processor</title>
<g id="a_edge3"><a xlink:title="Beans &#45;&gt; Food Processing Plant">
<path fill="none" stroke="#602c03" stroke-width="5" d="M509,-1914.79C525.9,-1914.09 545.74,-1913.26 566.78,-1912.37"/>
<polygon fill="#602c03" stroke="#602c03" stroke-width="5" points="567.07,-1921.12 586.69,-1911.54 566.34,-1903.63 567.07,-1921.12"/>
</a>
</g>
</g>
<!-- C_fruits&#45;&gt;I_food_processor -->
<g id="edge12" class="edge">
<title>C_fruits&#45;&gt;I_food_processor</title>
<g id="a_edge12"><a xlink:title="Fruit &#45;&gt; Food Processing Plant">
<path fill="none" stroke="#004ca8" stroke-width="5" d="M495.67,-1825.4C515.31,-1831.1 540.7,-1838.46 568.05,-1846.39"/>
<polygon fill="#004ca8" stroke="#004ca8" stroke-width="5" points="565.41,-1854.74 587.06,-1851.91 570.29,-1837.93 565.41,-1854.74"/>
</a>
</g>
</g>
<!-- C_alcohol -->
<g id="alcohol" class="node">
<title>C_alcohol</title>
<g id="a_alcohol"><a xlink:href="cargos.html#alcohol" xlink:title="Alcohol" target="_top">
<polygon fill="#a80000" stroke="#a80000" points="1852.62,-1388.12 1732.38,-1388.12 1732.38,-1347.88 1852.62,-1347.88 1852.62,-1388.12"/>
<text text-anchor="middle" x="1792.5" y="-1353.72" font-family="sans-serif" font-size="32.00" fill="white">Alcohol</text>
</a>
</g>
</g>
<!-- C_alcohol&#45;&gt;I_port -->
<g id="edge1" class="edge">
<title>C_alcohol&#45;&gt;I_port</title>
<g id="a_edge1"><a xlink:title="Alcohol &#45;&gt; Port">
<path fill="none" stroke="#a80000" stroke-width="5" d="M1852.93,-1353.38C1883.27,-1344.79 1920.28,-1332.54 1951.5,-1317 1965.17,-1310.19 1978.94,-1302.61 1992.56,-1294.56"/>
<polygon fill="#a80000" stroke="#a80000" stroke-width="5" points="1996.75,-1302.25 2009.24,-1284.35 1987.61,-1287.33 1996.75,-1302.25"/>
</a>
</g>
</g>
<!-- C_alcohol&#45;&gt;T_towns_alcohol -->
<g id="edge2" class="edge">
<title>C_alcohol&#45;&gt;T_towns_alcohol</title>
<path fill="none" stroke="#a80000" stroke-width="5" stroke-dasharray="5,2" d="M1852.96,-1369.59C2010.15,-1373.8 2437.83,-1385.26 2630.56,-1390.42"/>
<polygon fill="#a80000" stroke="#a80000" stroke-width="5" points="2630.22,-1399.16 2650.45,-1390.95 2630.69,-1381.67 2630.22,-1399.16"/>
</g>
<!-- C_coffee&#45;&gt;I_port -->
<g id="edge6" class="edge">
<title>C_coffee&#45;&gt;I_port</title>
<g id="a_edge6"><a xlink:title="Coffee &#45;&gt; Port">
<path fill="none" stroke="#347084" stroke-width="5" d="M1847.8,-1250.24C1885.36,-1240.04 1937.69,-1225.81 1989.39,-1211.76"/>
<polygon fill="#347084" stroke="#347084" stroke-width="5" points="1991.63,-1220.22 2008.63,-1206.53 1987.04,-1203.33 1991.63,-1220.22"/>
</a>
</g>
</g>
<!-- C_copper -->
<g id="copper" class="node">
<title>C_copper</title>
<g id="a_copper"><a xlink:href="cargos.html#copper" xlink:title="Copper" target="_top">
<polygon fill="#a89a28" stroke="#a89a28" points="1853.38,-1079.12 1731.62,-1079.12 1731.62,-1038.88 1853.38,-1038.88 1853.38,-1079.12"/>
<text text-anchor="middle" x="1792.5" y="-1044.72" font-family="sans-serif" font-size="32.00" fill="white">Copper</text>
</a>
</g>
</g>
<!-- C_copper&#45;&gt;I_port -->
<g id="edge7" class="edge">
<title>C_copper&#45;&gt;I_port</title>
<g id="a_edge7"><a xlink:title="Copper &#45;&gt; Port">
<path fill="none" stroke="#a89a28" stroke-width="5" d="M1853.55,-1075.32C1890.61,-1085.39 1940.31,-1098.9 1989.44,-1112.25"/>
<polygon fill="#a89a28" stroke="#a89a28" stroke-width="5" points="1987,-1120.66 2008.6,-1117.46 1991.59,-1103.77 1987,-1120.66"/>
</a>
</g>
</g>
<!-- C_wool&#45;&gt;I_port -->
<g id="edge18" class="edge">
<title>C_wool&#45;&gt;I_port</title>
<g id="a_edge18"><a xlink:title="Wool &#45;&gt; Port">
<path fill="none" stroke="#a8926d" stroke-width="5" d="M1836.98,-1162C1874.75,-1162 1932.15,-1162 1988.86,-1162"/>
<polygon fill="#a8926d" stroke="#a8926d" stroke-width="5" points="1988.55,-1170.75 2008.55,-1162 1988.55,-1153.25 1988.55,-1170.75"/>
</a>
</g>
</g>
<!-- I_copper_smelter&#45;&gt;C_copper -->
<g id="edge25" class="edge">
<title>I_copper_smelter&#45;&gt;C_copper</title>
<g id="a_edge25"><a xlink:title="Copper Smelter &#45;&gt; Copper">
<path fill="none" stroke="#a89a28" stroke-width="5" d="M1570.49,-999.52C1627.36,-1014.82 1688.12,-1031.18 1731.52,-1042.86"/>
</a>
</g>
</g>
<!-- C_goods&#45;&gt;T_towns_goods -->
<g id="edge13" class="edge">
<title>C_goods&#45;&gt;T_towns_goods</title>
<path fill="none" stroke="#a84b60" stroke-width="5" stroke-dasharray="5,2" d="M2506.46,-1162C2541.85,-1162 2588.89,-1162 2630.44,-1162"/>
<polygon fill="#a84b60" stroke="#a84b60" stroke-width="5" points="2630.21,-1170.75 2650.21,-1162 2630.21,-1153.25 2630.21,-1170.75"/>
</g>
<!-- C_grain&#45;&gt;I_flour_mill -->
<g id="edge14" class="edge">
<title>C_grain&#45;&gt;I_flour_mill</title>
<g id="a_edge14"><a xlink:title="Grain &#45;&gt; Flour Mill">
<path fill="none" stroke="#505050" stroke-width="5" d="M502.82,-2100.97C525.32,-2108.22 553.94,-2117.45 583.99,-2127.13"/>
<polygon fill="#505050" stroke="#505050" stroke-width="5" points="581.22,-2135.43 602.94,-2133.24 586.59,-2118.78 581.22,-2135.43"/>
</a>
</g>
</g>
<!-- C_livestock&#45;&gt;I_stockyard -->
<g id="edge15" class="edge">
<title>C_livestock&#45;&gt;I_stockyard</title>
<g id="a_edge15"><a xlink:title="Livestock &#45;&gt; Stockyard">
<path fill="none" stroke="#468fa8" stroke-width="5" d="M527.16,-1424.54C544.49,-1429.56 563.83,-1435.17 583.8,-1440.96"/>
<polygon fill="#468fa8" stroke="#468fa8" stroke-width="5" points="581.22,-1449.33 602.86,-1446.49 586.09,-1432.52 581.22,-1449.33"/>
</a>
</g>
</g>
<!-- I_chemical_plant&#45;&gt;C_chemicals -->
<g id="edge21" class="edge">
<title>I_chemical_plant&#45;&gt;C_chemicals</title>
<g id="a_edge21"><a xlink:title="Chemical Plant &#45;&gt; Chemicals">
<path fill="none" stroke="#a86052" stroke-width="5" d="M926.32,-675.7C971.76,-696.08 1017.85,-716.74 1050.58,-731.41"/>
</a>
</g>
</g>
<!-- I_copper_mine -->
<g id="copper_mine" class="node">
<title>I_copper_mine</title>
<g id="a_copper_mine"><a xlink:href="industries.html#copper_mine" xlink:title="Copper Mine" target="_top">
<polygon fill="white" stroke="none" points="616.62,-781.38 616.62,-1018.62 918.62,-1018.62 918.62,-781.38 616.62,-781.38"/>
<polygon fill="none" stroke="#c1cdcd" points="616.62,-851.62 616.62,-1018.62 918.62,-1018.62 918.62,-851.62 616.62,-851.62"/>
<image xlink:href="static/img/industries/copper_mine.png" width="300px" height="165px" preserveAspectRatio="xMinYMin meet" x="617.625" y="-1017.62"/>
<polygon fill="none" stroke="#c1cdcd" points="616.62,-781.38 616.62,-851.62 918.62,-851.62 918.62,-781.38 616.62,-781.38"/>
<polygon fill="ghostwhite" stroke="none" points="617.62,-782.38 617.62,-850.62 917.62,-850.62 917.62,-782.38 617.62,-782.38"/>
<text text-anchor="start" x="675.38" y="-815.23" font-family="sans-serif" font-size="32.00">Copper Mine</text>
<text text-anchor="start" x="629.62" y="-789.38" font-family="sans-serif" font-size="20.00">Requires Engineering Supplies</text>
</a>
</g>
</g>
<!-- I_copper_mine&#45;&gt;C_copper_ore -->
<g id="edge24" class="edge">
<title>I_copper_mine&#45;&gt;C_copper_ore</title>
<g id="a_edge24"><a xlink:title="Copper Mine &#45;&gt; Copper Ore">
<path fill="none" stroke="#5d45a8" stroke-width="5" d="M926.32,-878.36C953.39,-874.64 980.69,-870.9 1005.25,-867.52"/>
</a>
</g>
</g>
<!-- I_fishing_grounds -->
<g id="fishing_grounds" class="node">
<title>I_fishing_grounds</title>
<g id="a_fishing_grounds"><a xlink:href="industries.html#fishing_grounds" xlink:title="Fishing Grounds" target="_top">
<polygon fill="white" stroke="none" points="1641.5,-2052.38 1641.5,-2263.62 1943.5,-2263.62 1943.5,-2052.38 1641.5,-2052.38"/>
<polygon fill="none" stroke="#c1cdcd" points="1641.5,-2096.62 1641.5,-2263.62 1943.5,-2263.62 1943.5,-2096.62 1641.5,-2096.62"/>
<image xlink:href="static/img/industries/fishing_grounds.png" width="300px" height="165px" preserveAspectRatio="xMinYMin meet" x="1642.5" y="-2262.62"/>
<polygon fill="none" stroke="#c1cdcd" points="1641.5,-2052.38 1641.5,-2096.62 1943.5,-2096.62 1943.5,-2052.38 1641.5,-2052.38"/>
<polygon fill="ghostwhite" stroke="none" points="1642.5,-2053.38 1642.5,-2095.62 1942.5,-2095.62 1942.5,-2053.38 1642.5,-2053.38"/>
<text text-anchor="start" x="1675.12" y="-2060.22" font-family="sans-serif" font-size="32.00">Fishing Grounds</text>
</a>
</g>
</g>
<!-- I_fishing_grounds&#45;&gt;C_fish -->
<g id="edge26" class="edge">
<title>I_fishing_grounds&#45;&gt;C_fish</title>
<g id="a_edge26"><a xlink:title="Fishing Grounds &#45;&gt; Fish">
<path fill="none" stroke="#882034" stroke-width="5" d="M1951.49,-2130.49C2019.12,-2118.71 2092.27,-2105.97 2135.15,-2098.5"/>
</a>
</g>
</g>
<!-- I_oil_wells -->
<g id="oil_wells" class="node">
<title>I_oil_wells</title>
<g id="a_oil_wells"><a xlink:href="industries.html#oil_wells" xlink:title="Oil Wells" target="_top">
<polygon fill="white" stroke="none" points="8,-216.38 8,-453.62 310,-453.62 310,-216.38 8,-216.38"/>
<polygon fill="none" stroke="#c1cdcd" points="8,-286.62 8,-453.62 310,-453.62 310,-286.62 8,-286.62"/>
<image xlink:href="static/img/industries/oil_wells.png" width="300px" height="165px" preserveAspectRatio="xMinYMin meet" x="9" y="-452.625"/>
<polygon fill="none" stroke="#c1cdcd" points="8,-216.38 8,-286.62 310,-286.62 310,-216.38 8,-216.38"/>
<polygon fill="ghostwhite" stroke="none" points="9,-217.38 9,-285.62 309,-285.62 309,-217.38 9,-217.38"/>
<text text-anchor="start" x="97.12" y="-250.22" font-family="sans-serif" font-size="32.00">Oil Wells</text>
<text text-anchor="start" x="21" y="-224.38" font-family="sans-serif" font-size="20.00">Requires Engineering Supplies</text>
</a>
</g>
</g>
<!-- I_oil_wells&#45;&gt;C_oil -->
<g id="edge31" class="edge">
<title>I_oil_wells&#45;&gt;C_oil</title>
<g id="a_edge31"><a xlink:title="Oil Wells &#45;&gt; Oil">
<path fill="none" stroke="#7d70a8" stroke-width="5" d="M317.96,-451.98C360.79,-483.69 402.39,-514.5 428.17,-533.59"/>
</a>
</g>
</g>
<!-- I_vineyard -->
<g id="vineyard" class="node">
<title>I_vineyard</title>
<g id="a_vineyard"><a xlink:href="industries.html#vineyard" xlink:title="Vineyard" target="_top">
<polygon fill="white" stroke="none" points="8,-1659.38 8,-1896.62 310,-1896.62 310,-1659.38 8,-1659.38"/>
<polygon fill="none" stroke="#c1cdcd" points="8,-1729.62 8,-1896.62 310,-1896.62 310,-1729.62 8,-1729.62"/>
<image xlink:href="static/img/industries/vineyard.png" width="300px" height="165px" preserveAspectRatio="xMinYMin meet" x="9" y="-1895.62"/>
<polygon fill="none" stroke="#c1cdcd" points="8,-1659.38 8,-1729.62 310,-1729.62 310,-1659.38 8,-1659.38"/>
<polygon fill="ghostwhite" stroke="none" points="9,-1660.38 9,-1728.62 309,-1728.62 309,-1660.38 9,-1660.38"/>
<text text-anchor="start" x="96" y="-1693.22" font-family="sans-serif" font-size="32.00">Vineyard</text>
<text text-anchor="start" x="51.75" y="-1667.38" font-family="sans-serif" font-size="20.00">Requires Farm Supplies</text>
</a>
</g>
</g>
<!-- I_vineyard&#45;&gt;C_fruits -->
<g id="edge37" class="edge">
<title>I_vineyard&#45;&gt;C_fruits</title>
<g id="a_edge37"><a xlink:title="Vineyard &#45;&gt; Fruit">
<path fill="none" stroke="#004ca8" stroke-width="5" d="M317.96,-1797.32C354.24,-1801.75 389.64,-1806.08 415.29,-1809.22"/>
</a>
</g>
</g>
<!-- I_vineyard&#45;&gt;C_alcohol -->
<g id="edge36" class="edge">
<title>I_vineyard&#45;&gt;C_alcohol</title>
<g id="a_edge36"><a xlink:title="Vineyard &#45;&gt; Alcohol">
<path fill="none" stroke="#a80000" stroke-width="5" d="M317.97,-1746.04C439.97,-1724.13 613.29,-1699 766.62,-1699 766.62,-1699 766.62,-1699 1098.5,-1699 1388.16,-1699 1685.27,-1460.62 1768.58,-1388.46"/>
</a>
</g>
</g>
</g>
</svg>
